SplineFontDB: 1.0
FontName: Norasi
FullName: Norasi
FamilyName: Norasi
Weight: Book
Copyright: The National Font Project (v.beta 1 ). Yannis Haralambous, Virach Sornlertlamvanich and Anutara Tantraporn
Version: 1.0; 1999; initial release
ItalicAngle: 0
UnderlinePosition: -100
UnderlineWidth: 50
Ascent: 1638
Descent: 410
NeedsXUIDChange: 1
FSType: 0
PfmFamily: 17
TTFWeight: 400
TTFWidth: 5
Panose: 2 0 5 6 0 0 0 2 0 4
LineGap: 20
VLineGap: 0

LangName: 1033 "" "" "Regular" "TheOmegaProject(v.beta1).YannisHaralambous,VirachSornlertlamvanichandAnutaraTantraporn: Omega3: 1999" "" "Version 1.0; 1999; initial release" "" "NECTEC" "" "Yannis Haralambous, Virach Sornlertlamvanich and Anutara Tantraporn" "This font was developed under National Font Project at NECTEC as to be a free licensed font for Thai users and developers." 
Encoding: compacted
DisplaySize: -72
AntiAlias: 1
BeginChars: 224 223
StartChar: exclam
Encoding: 2 33
OldEncoding: 33
Width: 522
VWidth: 1000
Flags: HW
Fore
338 831 m 1
 336 780 l 1
 272 246 l 1
 254 246 l 1
 247 319 241 385 234 441 c 0
 228 498 223 549 218 594 c 0
 213 639 209 680 204 718 c 0
 199 755 195 792 190 827 c 1
 190 905 214 944 262 944 c 0
 313 944 338 909 338 840 c 2
 338 831 l 1
342 57 m 0
 342 38 334 23 318 10 c 0
 303 -2 285 -8 264 -8 c 0
 215 -8 190 14 190 57 c 0
 190 102 215 128 264 133 c 1
 315 133 341 108 342 57 c 0
EndSplineSet
EndChar
StartChar: quotedbl
Encoding: 3 34
OldEncoding: 34
Width: 645
VWidth: 1000
Flags: HW
Fore
500 885 m 0
 500 870 493 824 479 748 c 0
 472 708 467 675 463 650 c 0
 459 625 455 606 453 594 c 1
 424 594 l 1
 413 654 404 702 398 738 c 0
 392 774 387 803 384 823 c 0
 381 844 379 858 378 866 c 0
 377 874 377 881 377 885 c 0
 377 924 397 944 438 944 c 0
 478 944 498 924 500 885 c 0
258 885 m 0
 258 870 251 824 238 748 c 0
 231 708 225 675 221 650 c 0
 217 625 214 606 211 594 c 1
 182 594 l 1
 171 654 163 702 157 738 c 0
 151 774 146 803 142 823 c 0
 139 844 137 858 136 866 c 0
 136 874 135 881 135 885 c 0
 135 924 156 944 197 944 c 0
 236 944 257 924 258 885 c 0
EndSplineSet
EndChar
StartChar: numbersign
Encoding: 4 35
OldEncoding: 35
Width: 774
VWidth: 1000
Flags: HW
Fore
719 567 m 1
 573 567 l 1
 545 381 l 1
 684 381 l 1
 684 303 l 1
 530 303 l 1
 489 0 l 1
 408 0 l 1
 451 303 l 1
 262 303 l 1
 217 0 l 1
 135 0 l 1
 180 303 l 1
 31 303 l 1
 31 381 l 1
 195 381 l 1
 223 567 l 1
 70 567 l 1
 70 645 l 1
 236 645 l 1
 279 926 l 1
 358 926 l 1
 317 645 l 1
 504 645 l 1
 545 926 l 1
 625 926 l 1
 584 645 l 1
 719 645 l 1
 719 567 l 1
492 567 m 1
 305 567 l 1
 274 381 l 1
 463 381 l 1
 492 567 l 1
EndSplineSet
EndChar
StartChar: dollar
Encoding: 5 36
OldEncoding: 36
Width: 790
VWidth: 1000
Flags: HW
Fore
680 250 m 0
 680 111 588 27 403 0 c 1
 403 -121 l 1
 354 -121 l 1
 354 0 l 1
 257 0 169 25 88 74 c 1
 88 260 l 1
 109 260 l 1
 141 114 223 41 354 41 c 1
 354 444 l 1
 313 468 278 489 249 509 c 0
 219 529 196 547 178 563 c 0
 125 615 98 672 98 733 c 0
 98 800 125 854 178 895 c 0
 225 933 283 952 354 952 c 1
 354 1042 l 1
 403 1042 l 1
 403 952 l 1
 520 932 l 2
 564 924 601 905 633 877 c 1
 633 717 l 1
 612 717 l 1
 591 836 521 901 403 913 c 1
 403 561 l 1
 537 479 l 1
 610 422 l 1
 657 375 680 318 680 250 c 0
352 584 m 1
 352 913 l 1
 254 897 205 847 205 762 c 0
 205 729 218 697 246 666 c 1
 352 584 l 1
567 217 m 0
 567 262 551 302 518 336 c 0
 502 354 464 382 403 420 c 1
 403 41 l 1
 513 60 567 119 567 217 c 0
EndSplineSet
EndChar
StartChar: percent
Encoding: 6 37
OldEncoding: 37
Width: 1200
VWidth: 1000
Flags: HW
Fore
913 969 m 1
 360 -14 l 1
 293 -14 l 1
 793 872 l 1
 742 848 691 836 639 836 c 0
 595 836 564 840 545 850 c 1
 555 786 l 1
 555 725 541 664 512 604 c 0
 505 588 493 568 475 545 c 0
 416 457 345 414 260 414 c 0
 208 414 167 433 137 471 c 0
 107 509 92 555 92 608 c 0
 92 692 123 769 184 840 c 0
 248 912 320 948 399 948 c 0
 429 948 466 935 508 909 c 1
 556 885 597 872 633 872 c 0
 709 872 784 905 856 969 c 1
 913 969 l 1
1110 375 m 0
 1110 286 1085 204 1034 129 c 0
 980 43 909 0 823 0 c 0
 766 0 722 18 692 55 c 0
 662 92 647 139 647 197 c 0
 647 277 679 353 741 424 c 0
 806 496 877 532 954 532 c 0
 1058 532 1110 480 1110 375 c 0
518 793 m 0
 518 809 514 831 506 860 c 1
 480 867 455 877 432 891 c 2
 414 903 l 1
 408 905 l 2
 358 905 310 861 262 772 c 0
 221 693 201 625 201 569 c 0
 201 498 230 463 289 463 c 0
 353 463 409 503 457 584 c 0
 498 653 518 723 518 793 c 0
1073 365 m 0
 1073 397 1064 426 1047 450 c 0
 1029 473 1004 485 973 485 c 0
 913 485 859 438 813 342 c 0
 775 267 756 203 756 152 c 0
 756 79 786 43 848 43 c 0
 909 43 963 83 1010 162 c 0
 1052 229 1073 296 1073 365 c 0
EndSplineSet
EndChar
StartChar: ampersand
Encoding: 7 38
OldEncoding: 38
Width: 1171
VWidth: 1000
Flags: HW
Fore
1075 139 m 1
 1072 127 1067 114 1058 100 c 0
 1049 87 1038 72 1026 57 c 0
 981 10 926 -14 862 -14 c 0
 790 -14 711 27 625 109 c 1
 563 57 l 1
 514 27 l 1
 451 -1 385 -14 315 -14 c 0
 243 -14 186 3 145 39 c 0
 104 74 84 128 84 201 c 0
 84 311 157 410 303 496 c 2
 358 526 l 1
 322 641 l 1
 307 725 l 1
 307 755 313 783 324 810 c 0
 335 837 350 860 369 880 c 0
 388 899 411 915 437 927 c 0
 464 938 492 944 522 944 c 0
 574 944 619 929 656 899 c 0
 694 869 713 828 713 776 c 0
 713 716 688 664 639 621 c 0
 614 600 567 572 496 537 c 1
 523 483 552 433 583 385 c 0
 613 337 646 292 682 250 c 1
 765 358 807 442 807 502 c 0
 807 544 777 565 717 565 c 1
 717 596 l 1
 1022 596 l 1
 1022 565 l 1
 991 561 967 555 950 547 c 0
 931 539 911 517 889 483 c 1
 854 420 l 2
 832 383 810 347 787 311 c 0
 765 276 740 242 713 209 c 1
 728 184 746 162 769 143 c 0
 792 124 819 109 850 96 c 0
 868 87 891 82 920 82 c 0
 954 82 982 89 1004 102 c 0
 1010 105 1018 111 1025 120 c 0
 1033 129 1042 141 1053 156 c 1
 1075 139 l 1
639 782 m 0
 639 815 629 843 608 866 c 0
 588 890 561 901 528 901 c 0
 456 901 420 860 420 778 c 0
 420 721 438 655 475 582 c 1
 584 638 639 705 639 782 c 0
592 145 m 1
 559 185 525 232 488 288 c 0
 452 343 415 407 377 479 c 1
 313 436 l 1
 272 397 l 1
 233 351 213 302 213 252 c 0
 213 226 217 201 226 177 c 0
 235 153 248 132 264 114 c 0
 281 95 300 81 322 70 c 0
 343 59 367 53 393 53 c 0
 452 53 518 84 592 145 c 1
EndSplineSet
EndChar
StartChar: quotesingle
Encoding: 8 39
OldEncoding: 39
Width: 333
VWidth: 1000
Flags: HW
Fore
268 831 m 0
 268 796 251 754 215 707 c 0
 182 667 147 638 109 621 c 1
 96 647 l 1
 174 699 213 750 213 801 c 0
 213 813 206 819 193 819 c 2
 176 817 l 1
 158 815 l 2
 99 815 70 839 70 887 c 0
 70 935 98 962 154 969 c 1
 178 969 201 961 223 944 c 0
 253 918 268 881 268 831 c 0
EndSplineSet
EndChar
StartChar: parenleft
Encoding: 9 40
OldEncoding: 40
Width: 526
VWidth: 1000
Flags: HW
Fore
481 -227 m 1
 463 -250 l 1
 352 -191 259 -89 182 55 c 0
 175 70 169 84 163 97 c 0
 157 110 152 124 147 137 c 0
 126 203 115 282 115 375 c 0
 115 626 232 824 467 969 c 1
 481 946 l 1
 406 887 352 829 319 772 c 0
 259 662 232 532 238 385 c 2
 244 215 l 1
 245 196 247 175 251 154 c 0
 254 132 259 108 266 82 c 0
 303 -55 375 -158 481 -227 c 1
EndSplineSet
EndChar
StartChar: parenright
Encoding: 10 41
OldEncoding: 41
Width: 526
VWidth: 1000
Flags: HW
Fore
453 340 m 0
 453 216 422 103 359 1 c 0
 297 -101 211 -184 100 -250 c 1
 86 -227 l 1
 119 -201 147 -176 172 -151 c 0
 197 -125 217 -99 234 -73 c 0
 252 -46 266 -17 279 13 c 0
 291 44 301 78 309 115 c 0
 323 171 330 242 330 330 c 0
 330 458 320 559 301 633 c 0
 263 772 191 877 86 946 c 1
 104 969 l 1
 212 910 298 821 360 700 c 0
 422 588 453 468 453 340 c 0
EndSplineSet
EndChar
StartChar: asterisk
Encoding: 11 42
OldEncoding: 42
Width: 790
VWidth: 1000
Flags: HW
Fore
664 553 m 0
 664 519 646 502 612 502 c 0
 595 502 567 523 528 565 c 0
 507 588 487 607 470 621 c 0
 453 634 439 644 428 649 c 2
 418 653 l 1
 418 643 l 2
 418 590 425 543 438 504 c 2
 459 440 l 1
 459 405 440 384 401 379 c 1
 369 379 352 398 352 436 c 1
 371 514 l 1
 384 567 391 601 391 616 c 2
 391 643 l 1
 389 653 l 1
 322 606 l 1
 281 565 l 1
 244 522 l 1
 227 510 210 504 193 504 c 0
 160 504 143 519 143 549 c 0
 143 580 168 602 217 614 c 0
 294 635 348 655 381 676 c 1
 365 686 l 2
 359 692 315 706 231 729 c 0
 173 747 143 770 143 799 c 0
 143 810 147 821 156 834 c 0
 164 842 175 847 190 848 c 0
 212 848 237 832 264 801 c 0
 304 753 346 718 391 696 c 1
 391 715 l 2
 391 741 385 775 373 817 c 0
 360 862 354 894 354 913 c 0
 354 950 372 969 408 969 c 0
 440 969 457 950 457 913 c 1
 438 836 l 1
 425 782 418 748 418 731 c 2
 418 694 l 1
 428 700 l 2
 459 720 495 751 535 795 c 0
 567 831 593 850 610 850 c 0
 646 850 664 833 664 799 c 0
 664 774 654 756 635 745 c 1
 555 727 l 2
 504 716 463 698 430 674 c 1
 440 666 l 1
 502 637 l 1
 596 614 l 2
 641 605 664 584 664 553 c 0
EndSplineSet
EndChar
StartChar: plus
Encoding: 12 43
OldEncoding: 43
Width: 892
VWidth: 1000
Flags: HW
Fore
811 328 m 1
 485 328 l 1
 485 0 l 1
 414 0 l 1
 414 328 l 1
 88 328 l 1
 88 399 l 1
 414 399 l 1
 414 725 l 1
 485 725 l 1
 485 399 l 1
 811 399 l 1
 811 328 l 1
EndSplineSet
EndChar
StartChar: comma
Encoding: 13 44
OldEncoding: 44
Width: 356
VWidth: 1000
Flags: HW
Fore
283 8 m 0
 283 -23 265 -63 229 -111 c 0
 195 -156 160 -185 123 -199 c 1
 111 -170 l 1
 188 -121 227 -70 227 -18 c 0
 227 -6 221 0 207 0 c 2
 190 -2 l 1
 174 -4 l 2
 114 -4 84 18 84 63 c 0
 84 118 112 145 168 145 c 0
 205 145 233 132 253 105 c 0
 273 79 283 46 283 8 c 0
EndSplineSet
EndChar
StartChar: hyphen
Encoding: 14 45
OldEncoding: 45
Width: 552
VWidth: 1000
Flags: HW
Fore
498 264 m 1
 53 264 l 1
 53 332 l 1
 498 332 l 1
 498 264 l 1
EndSplineSet
EndChar
StartChar: period
Encoding: 15 46
OldEncoding: 46
Width: 395
VWidth: 1000
Flags: HW
Fore
285 61 m 0
 285 41 276 24 259 9 c 0
 242 -5 223 -12 203 -12 c 0
 182 -12 164 -5 148 9 c 0
 133 24 125 41 125 61 c 0
 125 83 132 102 147 119 c 0
 162 135 181 143 203 143 c 0
 223 143 242 135 259 118 c 0
 276 101 285 82 285 61 c 0
EndSplineSet
EndChar
StartChar: slash
Encoding: 16 47
OldEncoding: 47
Width: 475
VWidth: 1000
Flags: HW
Fore
477 969 m 1
 74 -248 l 1
 0 -248 l 1
 401 969 l 1
 477 969 l 1
EndSplineSet
EndChar
StartChar: zero
Encoding: 17 48
OldEncoding: 48
Width: 774
VWidth: 1000
Flags: HW
Fore
700 463 m 0
 700 344 680 242 639 158 c 0
 584 42 500 -16 385 -16 c 0
 326 -16 277 -1 237 29 c 0
 196 59 164 97 139 144 c 0
 115 191 97 243 86 299 c 0
 75 355 70 410 70 463 c 0
 70 515 75 569 86 626 c 0
 97 682 115 734 139 781 c 0
 164 828 196 867 237 898 c 0
 277 929 326 944 385 944 c 0
 500 944 584 885 639 766 c 0
 680 680 700 579 700 463 c 0
567 463 m 0
 567 760 507 909 385 909 c 0
 264 909 203 760 203 463 c 0
 203 165 264 16 385 16 c 0
 507 16 567 165 567 463 c 0
EndSplineSet
EndChar
StartChar: one
Encoding: 18 49
OldEncoding: 49
Width: 780
VWidth: 1000
Flags: HW
Fore
600 0 m 1
 215 0 l 1
 215 20 l 1
 263 20 297 28 316 42 c 0
 336 56 346 85 346 129 c 2
 346 762 l 2
 346 806 330 827 299 827 c 0
 294 827 262 818 205 799 c 1
 205 815 l 1
 455 944 l 1
 467 942 l 1
 467 104 l 2
 467 65 480 40 506 29 c 0
 522 23 554 20 600 20 c 1
 600 0 l 1
EndSplineSet
EndChar
StartChar: two
Encoding: 19 50
OldEncoding: 50
Width: 774
VWidth: 1000
Flags: HW
Fore
709 190 m 1
 633 0 l 1
 88 0 l 1
 88 16 l 1
 338 283 l 2
 459 410 520 529 520 641 c 0
 520 707 503 756 468 791 c 0
 433 825 383 842 317 842 c 0
 261 842 217 821 184 780 c 0
 162 754 141 713 119 657 c 1
 90 666 l 1
 104 752 135 820 184 869 c 0
 233 919 301 944 387 944 c 0
 423 944 456 938 486 926 c 0
 517 913 544 896 566 873 c 0
 589 851 607 824 620 794 c 0
 632 763 639 729 639 692 c 0
 639 591 580 478 461 352 c 2
 225 104 l 1
 559 104 l 2
 593 104 620 112 639 127 c 0
 653 137 670 160 690 197 c 1
 709 190 l 1
EndSplineSet
EndChar
StartChar: three
Encoding: 20 51
OldEncoding: 51
Width: 776
VWidth: 1000
Flags: HW
Fore
649 301 m 0
 649 197 610 117 530 59 c 0
 457 9 367 -16 262 -16 c 0
 221 -16 191 -12 172 -2 c 1
 128 9 106 29 106 59 c 0
 106 92 124 109 160 109 c 0
 179 109 210 96 254 70 c 0
 302 42 337 29 360 29 c 0
 421 29 467 51 500 96 c 1
 532 136 549 186 549 246 c 0
 549 279 542 308 528 334 c 1
 498 418 409 461 260 461 c 1
 258 479 l 1
 414 528 492 607 492 715 c 0
 492 758 477 794 449 820 c 0
 420 847 383 860 338 860 c 0
 253 860 184 811 131 713 c 1
 109 719 l 1
 156 869 248 944 385 944 c 0
 446 944 498 928 540 896 c 0
 581 864 602 818 602 758 c 0
 602 685 559 620 473 561 c 1
 521 539 557 516 582 492 c 0
 627 446 649 383 649 301 c 0
EndSplineSet
EndChar
StartChar: four
Encoding: 21 52
OldEncoding: 52
Width: 759
VWidth: 1000
Flags: HW
Fore
690 229 m 1
 553 229 l 1
 553 0 l 1
 446 0 l 1
 446 229 l 1
 61 229 l 1
 61 317 l 1
 492 926 l 1
 553 926 l 1
 553 317 l 1
 690 317 l 1
 690 229 l 1
444 317 m 1
 444 782 l 1
 117 317 l 1
 444 317 l 1
EndSplineSet
EndChar
StartChar: five
Encoding: 22 53
OldEncoding: 53
Width: 778
VWidth: 1000
Flags: HW
Fore
672 956 m 1
 618 831 l 2
 614 823 603 819 586 819 c 2
 311 819 l 1
 252 700 l 1
 418 676 527 627 578 553 c 1
 618 498 l 1
 639 455 l 1
 650 418 655 371 655 313 c 0
 655 212 618 131 543 70 c 0
 469 12 382 -16 281 -16 c 0
 160 -16 100 10 100 63 c 0
 100 100 119 119 158 119 c 0
 188 119 224 104 266 74 c 0
 309 46 341 33 362 33 c 0
 423 33 471 60 508 115 c 0
 539 162 555 218 555 283 c 0
 555 382 508 459 414 512 c 0
 333 556 248 578 158 578 c 0
 150 578 146 584 147 596 c 1
 301 928 l 1
 594 928 l 2
 617 928 639 941 659 967 c 1
 672 956 l 1
EndSplineSet
EndChar
StartChar: six
Encoding: 23 54
OldEncoding: 54
Width: 765
VWidth: 1000
Flags: HW
Fore
682 301 m 0
 682 256 675 214 663 175 c 0
 650 136 631 103 606 75 c 0
 582 47 551 25 514 8 c 0
 477 -8 435 -16 387 -16 c 0
 330 -16 282 -4 244 20 c 0
 205 45 174 77 151 116 c 0
 127 155 110 199 99 250 c 0
 89 300 84 351 84 401 c 0
 84 475 99 545 130 611 c 0
 161 678 202 735 254 784 c 0
 306 834 366 872 435 901 c 0
 504 930 576 944 651 944 c 1
 655 922 l 1
 545 902 454 859 383 791 c 0
 312 722 266 635 246 528 c 1
 338 575 l 1
 371 585 401 590 430 590 c 0
 470 590 505 582 537 567 c 0
 568 552 594 532 615 507 c 0
 637 482 653 451 665 416 c 0
 676 380 682 342 682 301 c 0
559 246 m 0
 559 433 496 526 369 526 c 0
 311 526 268 513 240 485 c 1
 236 472 231 454 226 432 c 0
 222 410 219 384 219 352 c 0
 219 318 222 282 226 243 c 0
 231 204 240 168 254 135 c 0
 268 102 287 75 311 53 c 0
 336 31 368 20 408 20 c 0
 436 20 460 27 479 39 c 0
 498 51 514 68 526 89 c 0
 539 110 547 134 552 162 c 0
 557 189 559 217 559 246 c 0
EndSplineSet
EndChar
StartChar: seven
Encoding: 24 55
OldEncoding: 55
Width: 778
VWidth: 1000
Flags: HW
Fore
676 905 m 1
 379 -8 l 1
 287 -8 l 1
 565 825 l 1
 260 825 l 2
 222 825 189 816 162 797 c 0
 147 787 126 758 98 711 c 1
 74 721 l 1
 156 928 l 1
 676 928 l 1
 676 905 l 1
EndSplineSet
EndChar
StartChar: eight
Encoding: 25 56
OldEncoding: 56
Width: 763
VWidth: 1000
Flags: HW
Fore
649 209 m 0
 649 171 642 137 628 109 c 0
 613 80 594 56 569 38 c 0
 545 19 516 6 483 -3 c 0
 451 -12 416 -16 379 -16 c 0
 345 -16 312 -12 281 -2 c 0
 249 8 222 22 198 41 c 0
 174 60 155 83 140 111 c 0
 126 138 119 169 119 203 c 0
 119 237 123 265 130 287 c 0
 138 309 149 328 165 346 c 0
 181 364 199 382 221 399 c 0
 243 417 268 438 297 463 c 1
 271 490 247 513 226 531 c 0
 205 550 187 568 173 587 c 0
 159 605 147 625 139 647 c 0
 131 669 127 696 127 729 c 0
 127 762 134 792 148 818 c 0
 163 845 182 867 206 886 c 0
 230 904 257 919 288 929 c 0
 318 939 350 944 383 944 c 0
 414 944 445 940 474 933 c 0
 503 925 529 913 551 897 c 0
 573 881 590 860 603 836 c 0
 616 811 623 782 623 748 c 0
 623 690 605 645 570 612 c 0
 536 580 492 548 438 518 c 1
 470 491 498 467 523 446 c 0
 549 426 571 405 590 383 c 0
 609 361 624 337 634 310 c 0
 644 284 649 250 649 209 c 0
526 754 m 0
 526 796 515 831 492 858 c 0
 463 891 424 907 375 907 c 0
 332 907 297 894 269 868 c 0
 241 842 227 808 227 764 c 0
 227 693 285 619 399 543 c 1
 449 582 l 1
 481 614 l 1
 511 653 526 699 526 754 c 0
547 176 m 0
 547 225 531 267 500 301 c 0
 475 327 419 371 332 434 c 1
 291 395 l 1
 262 360 l 1
 236 321 223 273 223 217 c 0
 223 160 238 113 268 76 c 0
 298 39 341 20 395 20 c 0
 439 20 475 35 504 65 c 0
 532 94 547 131 547 176 c 0
EndSplineSet
EndChar
StartChar: nine
Encoding: 26 57
OldEncoding: 57
Width: 776
VWidth: 1000
Flags: HW
Fore
688 553 m 0
 688 396 639 265 541 160 c 0
 426 35 289 -27 129 -27 c 1
 125 0 l 1
 178 7 228 22 274 45 c 0
 321 68 362 98 398 135 c 0
 435 172 465 214 490 260 c 0
 516 307 535 355 547 406 c 1
 488 356 419 332 340 332 c 0
 262 332 200 359 154 414 c 0
 110 464 88 528 88 606 c 0
 88 702 113 780 162 842 c 0
 189 877 221 903 258 920 c 0
 295 936 336 944 381 944 c 0
 481 944 558 902 614 817 c 0
 664 743 688 655 688 553 c 0
551 496 m 2
 551 551 l 2
 551 788 489 907 367 907 c 0
 266 907 215 825 215 662 c 0
 215 588 227 528 252 483 c 0
 283 422 331 391 395 391 c 0
 442 391 487 407 530 438 c 0
 544 449 551 468 551 496 c 2
EndSplineSet
EndChar
StartChar: colon
Encoding: 27 58
OldEncoding: 58
Width: 440
VWidth: 1000
Flags: HW
Fore
299 575 m 0
 299 525 272 500 219 500 c 0
 199 500 181 507 165 522 c 0
 149 537 141 555 141 575 c 0
 141 623 167 651 219 657 c 0
 241 657 260 649 275 633 c 0
 291 616 299 597 299 575 c 0
299 61 m 0
 299 40 291 22 275 8 c 0
 260 -5 241 -12 219 -12 c 0
 199 -12 181 -5 165 9 c 0
 149 24 141 41 141 61 c 0
 141 83 149 102 164 119 c 0
 179 135 197 143 219 143 c 0
 241 143 260 135 275 119 c 0
 291 102 299 83 299 61 c 0
EndSplineSet
EndChar
StartChar: semicolon
Encoding: 28 59
OldEncoding: 59
Width: 440
VWidth: 1000
Flags: HW
Fore
299 575 m 0
 299 525 272 500 219 500 c 0
 199 500 181 507 165 522 c 0
 149 537 141 555 141 575 c 0
 141 623 167 651 219 657 c 0
 241 657 260 649 275 633 c 0
 291 616 299 597 299 575 c 0
338 8 m 0
 338 -38 317 -82 274 -123 c 2
 223 -172 l 2
 216 -177 209 -183 202 -187 c 0
 194 -192 186 -196 178 -199 c 1
 166 -170 l 1
 244 -121 283 -70 283 -18 c 0
 283 -6 276 0 262 0 c 2
 246 -2 l 1
 227 -4 l 2
 169 -4 139 18 139 63 c 0
 139 118 167 145 223 145 c 0
 300 145 338 100 338 8 c 0
EndSplineSet
EndChar
StartChar: less
Encoding: 29 60
OldEncoding: 60
Width: 892
VWidth: 1000
Flags: HW
Fore
813 -8 m 1
 86 317 l 1
 86 408 l 1
 813 737 l 1
 813 657 l 1
 164 365 l 1
 813 70 l 1
 813 -8 l 1
EndSplineSet
EndChar
StartChar: equal
Encoding: 30 61
OldEncoding: 61
Width: 892
VWidth: 1000
Flags: HW
Fore
811 471 m 1
 88 471 l 1
 88 543 l 1
 811 543 l 1
 811 471 l 1
811 184 m 1
 88 184 l 1
 88 256 l 1
 811 256 l 1
 811 184 l 1
EndSplineSet
EndChar
StartChar: greater
Encoding: 31 62
OldEncoding: 62
Width: 892
VWidth: 1000
Flags: HW
Fore
813 317 m 1
 86 -8 l 1
 86 70 l 1
 735 365 l 1
 86 657 l 1
 86 737 l 1
 813 408 l 1
 813 317 l 1
EndSplineSet
EndChar
StartChar: question
Encoding: 32 63
OldEncoding: 63
Width: 700
VWidth: 1000
Flags: HW
Fore
598 731 m 0
 598 671 562 597 489 508 c 2
 436 442 l 1
 399 383 l 2
 393 371 385 352 377 328 c 0
 369 303 361 272 354 236 c 1
 330 236 l 1
 330 304 344 371 373 438 c 2
 412 530 l 2
 447 618 465 689 465 743 c 0
 465 795 451 839 424 873 c 0
 397 908 358 926 307 926 c 0
 279 926 248 918 217 901 c 1
 188 881 174 859 174 838 c 0
 174 828 183 812 201 791 c 0
 220 767 229 748 229 731 c 0
 232 692 214 672 174 672 c 0
 126 672 102 702 102 762 c 0
 102 793 109 822 121 847 c 0
 133 872 150 894 172 911 c 0
 194 929 219 943 247 953 c 0
 275 964 304 969 336 969 c 0
 374 969 414 961 457 944 c 1
 506 920 l 1
 547 887 l 1
 581 840 598 788 598 731 c 0
422 61 m 0
 422 41 414 25 398 12 c 0
 383 0 365 -7 344 -8 c 0
 294 -10 268 14 268 61 c 0
 268 108 294 134 344 139 c 0
 365 139 383 131 398 116 c 0
 414 100 422 82 422 61 c 0
EndSplineSet
EndChar
StartChar: at
Encoding: 33 64
OldEncoding: 64
Width: 1134
VWidth: 1000
Flags: HW
Fore
1057 532 m 0
 1057 449 1035 375 991 311 c 0
 941 236 876 199 797 199 c 0
 757 199 725 214 700 244 c 0
 683 261 674 280 674 299 c 1
 645 270 l 1
 614 244 l 2
 584 219 550 205 510 201 c 1
 421 201 377 259 377 375 c 0
 377 408 382 441 392 475 c 0
 402 509 419 544 442 580 c 0
 496 667 565 711 651 711 c 1
 688 705 l 1
 711 694 732 671 750 637 c 1
 764 690 l 1
 862 690 l 1
 770 336 l 1
 768 301 l 1
 768 264 785 246 819 246 c 0
 849 246 876 256 898 275 c 0
 921 295 940 320 955 349 c 0
 971 379 983 410 990 442 c 0
 998 475 1001 504 1001 530 c 0
 1001 584 990 633 967 678 c 0
 943 723 913 762 876 795 c 0
 838 827 795 853 748 872 c 0
 700 892 651 901 600 901 c 0
 533 901 475 888 426 862 c 0
 377 836 336 802 303 759 c 0
 270 716 246 666 230 608 c 0
 215 551 207 490 207 426 c 0
 207 370 218 318 240 270 c 0
 261 223 291 181 328 145 c 0
 365 110 408 82 457 62 c 0
 506 43 558 33 612 33 c 0
 700 33 792 56 889 102 c 1
 905 59 l 1
 847 35 793 16 745 3 c 0
 698 -10 654 -16 614 -16 c 0
 446 -16 313 35 213 139 c 0
 130 228 88 328 88 438 c 0
 88 584 137 705 233 801 c 0
 330 896 453 944 600 944 c 0
 722 944 827 907 918 834 c 0
 1010 757 1057 657 1057 532 c 0
725 557 m 0
 725 618 705 649 666 649 c 0
 610 649 563 616 526 551 c 0
 491 492 473 435 473 379 c 0
 473 301 502 262 561 262 c 0
 606 262 646 302 680 381 c 0
 694 411 704 441 711 470 c 0
 717 499 722 528 725 557 c 0
EndSplineSet
EndChar
StartChar: A
Encoding: 34 65
OldEncoding: 65
Width: 1024
VWidth: 1000
Flags: HW
Fore
987 0 m 1
 637 0 l 1
 637 25 l 1
 682 25 l 1
 707 33 l 2
 724 38 733 53 733 78 c 1
 727 109 l 1
 707 166 l 1
 651 297 l 1
 291 297 l 1
 227 135 l 1
 219 117 215 100 215 84 c 0
 215 44 246 25 309 25 c 1
 309 0 l 1
 37 0 l 1
 37 25 l 1
 75 25 112 55 147 115 c 0
 150 122 157 136 167 158 c 0
 177 180 190 211 207 252 c 1
 494 926 l 1
 522 926 l 1
 864 145 l 2
 885 98 904 66 921 49 c 0
 938 33 960 25 987 25 c 1
 987 0 l 1
631 354 m 1
 473 731 l 1
 313 354 l 1
 631 354 l 1
EndSplineSet
EndChar
StartChar: B
Encoding: 35 66
OldEncoding: 66
Width: 892
VWidth: 1000
Flags: HW
Fore
856 246 m 0
 855 208 845 173 828 141 c 0
 811 110 788 84 759 62 c 0
 729 41 694 25 653 14 c 0
 612 3 567 -1 518 0 c 2
 49 0 l 1
 49 27 l 1
 102 27 138 34 157 50 c 0
 175 66 184 100 184 152 c 2
 184 774 l 2
 184 823 176 857 160 874 c 1
 153 877 146 880 139 884 c 0
 132 887 126 890 119 893 c 2
 49 901 l 1
 49 926 l 1
 442 926 l 2
 687 926 809 847 809 690 c 0
 809 622 785 571 737 539 c 1
 721 524 683 507 623 487 c 1
 778 455 856 374 856 246 c 0
666 682 m 0
 666 810 584 874 420 874 c 2
 358 874 l 2
 337 874 326 860 326 831 c 2
 326 510 l 1
 461 512 l 2
 597 513 666 570 666 682 c 0
696 252 m 0
 696 354 642 418 535 442 c 0
 498 452 428 457 326 457 c 1
 326 111 l 2
 326 82 338 63 362 55 c 0
 368 54 376 53 388 52 c 0
 400 52 415 51 434 51 c 0
 609 51 696 118 696 252 c 0
EndSplineSet
EndChar
StartChar: C
Encoding: 36 67
OldEncoding: 67
Width: 972
VWidth: 1000
Flags: HW
Fore
901 154 m 1
 886 126 855 97 809 66 c 0
 730 11 636 -16 526 -16 c 0
 384 -16 272 25 190 109 c 0
 110 195 70 309 70 453 c 0
 70 520 80 582 101 639 c 0
 123 696 156 749 201 797 c 0
 294 894 406 937 537 928 c 2
 608 922 l 2
 621 920 634 919 648 916 c 0
 663 914 678 911 694 907 c 2
 780 883 l 1
 812 883 833 898 844 928 c 1
 870 928 l 1
 883 621 l 1
 854 621 l 1
 836 701 801 763 749 807 c 0
 696 851 629 872 549 872 c 0
 440 872 358 828 303 739 c 0
 254 664 229 567 229 449 c 0
 229 391 236 339 249 292 c 0
 262 245 282 202 309 164 c 0
 368 81 453 39 565 39 c 0
 676 39 779 85 874 178 c 1
 901 154 l 1
EndSplineSet
EndChar
StartChar: D
Encoding: 37 68
OldEncoding: 68
Width: 1032
VWidth: 1000
Flags: HW
Fore
985 461 m 0
 985 343 949 243 877 160 c 0
 782 53 639 0 446 0 c 2
 47 0 l 1
 47 27 l 1
 87 27 121 35 150 53 c 1
 165 72 172 105 172 152 c 2
 172 776 l 2
 172 827 165 859 150 874 c 0
 141 883 128 890 111 895 c 1
 47 901 l 1
 47 928 l 1
 426 928 l 2
 593 928 724 892 821 821 c 0
 930 742 985 622 985 461 c 0
834 461 m 0
 834 597 791 702 707 774 c 0
 627 842 518 877 379 877 c 0
 352 877 333 872 324 862 c 0
 319 858 316 844 313 821 c 1
 313 111 l 2
 313 86 322 68 338 57 c 0
 349 53 369 51 397 51 c 0
 688 51 834 188 834 461 c 0
EndSplineSet
EndChar
StartChar: E
Encoding: 38 69
OldEncoding: 69
Width: 884
VWidth: 1000
Flags: HW
Fore
881 236 m 1
 817 0 l 1
 59 0 l 1
 59 27 l 1
 107 27 139 35 156 53 c 0
 172 71 180 104 180 152 c 2
 180 776 l 2
 180 831 171 865 154 879 c 1
 117 893 l 1
 59 901 l 1
 59 928 l 1
 805 928 l 1
 809 727 l 1
 774 727 l 1
 765 793 743 835 709 854 c 0
 681 869 631 877 559 877 c 2
 371 877 l 2
 356 877 345 874 338 870 c 0
 330 862 326 848 326 827 c 2
 326 516 l 1
 541 516 l 2
 598 516 635 524 651 541 c 0
 669 557 683 593 694 649 c 1
 729 649 l 1
 729 326 l 1
 694 326 l 1
 686 384 672 420 653 432 c 1
 637 449 599 457 541 457 c 2
 326 457 l 1
 326 113 l 2
 326 77 354 56 410 49 c 0
 396 51 399 52 419 52 c 0
 439 53 477 53 535 53 c 0
 622 53 685 64 723 86 c 0
 771 115 810 165 840 236 c 1
 881 236 l 1
EndSplineSet
EndChar
StartChar: F
Encoding: 39 70
OldEncoding: 70
Width: 819
VWidth: 1000
Flags: HW
Fore
788 727 m 1
 754 727 l 1
 745 791 724 833 688 852 c 0
 661 867 612 874 541 874 c 2
 350 874 l 2
 322 874 307 858 307 825 c 2
 307 516 l 1
 508 516 l 2
 564 516 602 525 624 543 c 0
 645 560 657 595 662 647 c 1
 694 647 l 1
 694 324 l 1
 662 324 l 1
 657 375 645 411 624 429 c 0
 602 447 564 457 508 457 c 2
 307 461 l 1
 307 152 l 2
 307 104 316 71 334 53 c 0
 352 35 384 27 432 27 c 1
 432 0 l 1
 41 0 l 1
 41 27 l 1
 93 27 126 38 141 59 c 0
 155 77 162 113 162 168 c 2
 162 774 l 2
 162 827 153 862 135 877 c 1
 98 893 l 1
 41 901 l 1
 41 926 l 1
 784 926 l 1
 788 727 l 1
EndSplineSet
EndChar
StartChar: G
Encoding: 40 71
OldEncoding: 71
Width: 1040
VWidth: 1000
Flags: HW
Fore
1004 463 m 1
 965 459 942 453 934 444 c 0
 916 429 907 399 907 354 c 2
 907 80 l 2
 907 69 895 59 870 49 c 0
 846 40 808 27 758 12 c 1
 713 4 675 -3 644 -8 c 0
 613 -14 589 -16 571 -16 c 0
 405 -16 276 31 184 127 c 0
 154 158 131 193 114 230 c 0
 97 268 84 309 76 352 c 0
 73 367 71 385 71 404 c 0
 70 424 70 446 70 469 c 0
 70 603 115 713 207 799 c 0
 298 886 410 930 543 930 c 0
 593 930 646 924 700 911 c 1
 788 883 l 1
 823 883 844 898 854 930 c 1
 883 930 l 1
 895 639 l 1
 864 639 l 1
 803 796 702 874 563 874 c 0
 449 874 361 829 301 737 c 1
 253 658 229 559 229 440 c 0
 229 383 236 330 250 282 c 0
 264 233 285 191 315 156 c 0
 382 75 472 35 584 35 c 0
 601 35 620 37 639 40 c 0
 658 43 677 47 694 51 c 0
 748 63 774 85 774 115 c 2
 774 340 l 2
 774 390 767 425 752 442 c 1
 713 457 l 2
 700 461 681 463 655 463 c 1
 655 487 l 1
 1004 487 l 1
 1004 463 l 1
EndSplineSet
EndChar
StartChar: H
Encoding: 41 72
OldEncoding: 72
Width: 1056
VWidth: 1000
Flags: HW
Fore
1010 0 m 1
 621 0 l 1
 621 27 l 1
 672 27 708 38 727 59 c 0
 738 74 743 111 743 168 c 2
 743 440 l 1
 317 440 l 1
 317 152 l 2
 317 106 325 74 340 55 c 0
 344 51 357 44 379 35 c 1
 442 27 l 1
 442 0 l 1
 51 0 l 1
 51 27 l 1
 103 27 139 38 158 59 c 0
 170 76 176 112 176 168 c 2
 176 776 l 2
 176 827 169 859 154 874 c 0
 145 883 132 890 115 895 c 1
 51 903 l 1
 51 928 l 1
 442 928 l 1
 442 903 l 1
 416 903 396 901 380 898 c 0
 364 895 352 888 342 879 c 0
 332 869 326 856 323 840 c 0
 319 823 317 802 317 776 c 2
 317 504 l 1
 743 504 l 1
 743 776 l 2
 743 846 723 885 682 895 c 1
 621 903 l 1
 621 928 l 1
 1010 928 l 1
 1010 903 l 1
 961 903 928 894 911 877 c 0
 895 859 887 825 887 776 c 2
 887 152 l 2
 887 104 895 71 912 53 c 0
 929 35 962 27 1010 27 c 1
 1010 0 l 1
EndSplineSet
EndChar
StartChar: I
Encoding: 42 73
OldEncoding: 73
Width: 507
VWidth: 1000
Flags: HW
Fore
465 0 m 1
 51 0 l 1
 51 27 l 1
 104 27 140 34 158 50 c 0
 175 66 184 100 184 152 c 2
 184 774 l 2
 184 821 177 854 164 874 c 1
 142 892 104 901 51 901 c 1
 51 926 l 1
 465 926 l 1
 465 901 l 1
 417 901 382 894 358 879 c 1
 339 861 330 826 330 774 c 2
 330 152 l 2
 330 100 339 66 357 50 c 0
 376 34 412 27 465 27 c 1
 465 0 l 1
EndSplineSet
EndChar
StartChar: J
Encoding: 43 74
OldEncoding: 74
Width: 544
VWidth: 1000
Flags: HW
Fore
526 901 m 1
 454 901 413 881 403 840 c 0
 399 823 397 802 397 776 c 2
 397 256 l 2
 397 174 379 109 342 59 c 1
 300 9 240 -16 162 -16 c 0
 126 -16 96 -10 70 4 c 0
 37 23 20 49 20 82 c 0
 20 98 27 114 41 129 c 0
 55 144 70 152 86 152 c 0
 113 152 133 141 145 121 c 1
 168 63 l 2
 176 43 186 33 199 33 c 0
 236 33 254 64 254 127 c 2
 254 776 l 2
 254 828 245 862 227 878 c 0
 210 893 175 901 123 901 c 1
 123 928 l 1
 526 928 l 1
 526 901 l 1
EndSplineSet
EndChar
StartChar: K
Encoding: 44 75
OldEncoding: 75
Width: 1048
VWidth: 1000
Flags: HW
Fore
1038 0 m 1
 612 0 l 1
 612 27 l 1
 674 27 707 38 711 61 c 1
 711 97 650 175 528 297 c 2
 377 444 l 1
 342 414 l 1
 342 152 l 2
 342 105 350 72 365 53 c 1
 401 33 l 1
 418 29 440 27 467 27 c 1
 467 0 l 1
 74 0 l 1
 74 27 l 1
 123 27 159 38 182 61 c 0
 193 74 199 109 199 168 c 2
 199 774 l 2
 199 823 190 857 173 874 c 0
 156 892 123 901 74 901 c 1
 74 928 l 1
 471 928 l 1
 471 901 l 1
 429 901 394 892 367 874 c 1
 350 858 342 825 342 774 c 2
 342 489 l 1
 498 629 l 1
 639 760 l 2
 680 799 700 831 700 856 c 0
 700 886 668 901 604 901 c 1
 604 928 l 1
 971 928 l 1
 971 901 l 1
 949 901 930 898 913 893 c 2
 870 881 l 1
 840 866 803 836 758 791 c 2
 492 528 l 1
 889 104 l 1
 934 63 l 1
 965 39 1000 27 1038 27 c 1
 1038 0 l 1
EndSplineSet
EndChar
StartChar: L
Encoding: 45 76
OldEncoding: 76
Width: 886
VWidth: 1000
Flags: HW
Fore
883 244 m 1
 815 0 l 1
 59 0 l 1
 59 27 l 1
 107 27 139 35 156 53 c 0
 172 71 180 104 180 152 c 2
 180 776 l 2
 180 831 171 865 154 879 c 1
 117 893 l 1
 59 901 l 1
 59 928 l 1
 457 928 l 1
 457 901 l 1
 391 895 l 1
 354 879 l 1
 335 862 326 828 326 776 c 2
 326 113 l 2
 326 89 332 74 346 66 c 0
 353 60 369 57 395 55 c 0
 399 54 408 53 422 53 c 2
 465 53 l 2
 589 53 669 62 705 80 c 0
 760 106 808 160 846 244 c 1
 883 244 l 1
EndSplineSet
EndChar
StartChar: M
Encoding: 46 77
OldEncoding: 77
Width: 1280
VWidth: 1000
Flags: HW
Fore
1231 0 m 1
 840 0 l 1
 840 27 l 1
 893 27 928 37 946 57 c 1
 960 78 967 115 967 168 c 2
 967 795 l 1
 610 0 l 1
 590 0 l 1
 240 764 l 1
 238 205 l 1
 238 141 244 97 256 74 c 0
 274 42 312 27 371 27 c 1
 371 0 l 1
 41 0 l 1
 41 27 l 1
 102 27 141 42 156 74 c 0
 169 96 176 139 176 205 c 2
 176 772 l 2
 176 825 167 859 147 874 c 0
 142 880 130 885 111 891 c 1
 45 899 l 1
 45 926 l 1
 319 926 l 1
 643 219 l 1
 952 926 l 1
 1231 926 l 1
 1231 899 l 1
 1183 899 1151 890 1135 871 c 0
 1118 853 1110 820 1110 772 c 2
 1110 152 l 2
 1110 85 1130 45 1171 33 c 1
 1231 27 l 1
 1231 0 l 1
EndSplineSet
EndChar
StartChar: N
Encoding: 47 78
OldEncoding: 78
Width: 1044
VWidth: 1000
Flags: HW
Fore
1018 901 m 1
 963 901 926 884 905 850 c 0
 890 823 883 780 883 721 c 2
 883 -12 l 1
 860 -12 l 1
 242 754 l 1
 240 207 l 1
 240 141 246 97 258 74 c 0
 276 42 314 27 373 27 c 1
 373 0 l 1
 41 0 l 1
 41 27 l 1
 101 27 140 42 158 74 c 0
 171 96 178 140 178 207 c 2
 178 825 l 1
 140 876 94 901 41 901 c 1
 41 928 l 1
 283 928 l 1
 819 254 l 1
 823 721 l 1
 823 788 816 832 803 854 c 0
 784 885 745 901 686 901 c 1
 686 928 l 1
 1018 928 l 1
 1018 901 l 1
EndSplineSet
EndChar
StartChar: O
Encoding: 48 79
OldEncoding: 79
Width: 1077
VWidth: 1000
Flags: HW
Fore
989 461 m 0
 989 323 948 208 864 117 c 0
 781 28 670 -16 532 -16 c 0
 395 -16 284 28 201 117 c 0
 116 208 74 323 74 461 c 0
 74 599 116 714 201 807 c 0
 284 898 395 944 532 944 c 0
 672 944 782 898 864 807 c 0
 948 718 989 603 989 461 c 0
829 463 m 0
 829 576 809 672 768 750 c 1
 712 847 634 895 532 895 c 0
 427 895 349 847 297 752 c 0
 255 677 233 580 233 463 c 0
 233 348 255 253 297 176 c 0
 349 78 427 29 532 29 c 0
 636 29 715 78 768 176 c 0
 809 254 829 350 829 463 c 0
EndSplineSet
EndChar
StartChar: P
Encoding: 49 80
OldEncoding: 80
Width: 821
VWidth: 1000
Flags: HW
Fore
784 676 m 0
 784 580 742 509 657 461 c 0
 625 442 587 428 545 419 c 0
 502 410 455 406 401 406 c 2
 367 406 l 1
 307 410 l 1
 307 152 l 2
 307 102 317 69 337 52 c 0
 357 35 391 27 440 27 c 1
 440 0 l 1
 47 0 l 1
 47 27 l 1
 96 27 130 38 147 59 c 0
 160 79 166 115 166 168 c 2
 166 776 l 2
 166 825 158 858 142 876 c 0
 127 893 95 901 47 901 c 1
 47 928 l 1
 418 928 l 2
 467 928 512 923 552 914 c 0
 592 906 629 893 662 877 c 0
 743 834 784 767 784 676 c 0
633 674 m 0
 633 809 543 877 365 877 c 0
 341 877 326 874 318 868 c 0
 311 863 307 850 307 829 c 2
 307 465 l 1
 314 465 321 465 329 464 c 0
 350 461 l 2
 391 461 l 2
 552 461 633 532 633 674 c 0
EndSplineSet
EndChar
StartChar: Q
Encoding: 50 81
OldEncoding: 81
Width: 1075
VWidth: 1000
Flags: HW
Fore
938 -223 m 1
 879 -225 l 2
 682 -232 537 -179 442 -66 c 1
 395 0 l 1
 349 11 304 31 262 60 c 0
 220 90 184 127 156 172 c 0
 101 257 74 353 74 461 c 0
 74 601 115 716 199 805 c 0
 283 898 394 944 530 944 c 0
 670 944 780 898 862 805 c 1
 945 717 987 603 987 461 c 0
 987 320 945 205 862 117 c 0
 828 81 786 53 736 33 c 0
 686 12 640 -1 596 -6 c 1
 631 -57 l 1
 688 -111 l 1
 759 -169 842 -199 938 -199 c 1
 938 -223 l 1
827 461 m 0
 827 574 807 670 766 748 c 0
 714 844 636 893 530 893 c 0
 424 893 345 844 295 748 c 0
 273 708 257 665 248 617 c 0
 238 570 233 518 233 461 c 0
 233 401 238 347 248 300 c 0
 257 253 273 211 295 174 c 0
 345 79 424 31 530 31 c 0
 636 31 713 79 764 176 c 0
 806 257 827 352 827 461 c 0
EndSplineSet
EndChar
StartChar: R
Encoding: 51 82
OldEncoding: 82
Width: 970
VWidth: 1000
Flags: HW
Fore
952 0 m 1
 727 0 l 1
 393 432 l 1
 315 428 l 1
 315 152 l 2
 315 104 324 71 342 53 c 0
 360 35 393 27 440 27 c 1
 440 0 l 1
 53 0 l 1
 53 27 l 1
 102 27 136 38 154 59 c 0
 165 74 170 111 170 168 c 2
 170 776 l 2
 170 827 164 859 152 872 c 0
 132 892 100 901 53 901 c 1
 53 928 l 1
 438 928 l 2
 677 928 797 847 797 684 c 0
 797 560 711 481 541 446 c 1
 829 92 l 2
 865 48 906 27 952 27 c 1
 952 0 l 1
643 686 m 0
 643 813 563 877 401 877 c 0
 369 877 348 875 340 872 c 0
 324 867 315 851 315 825 c 2
 315 481 l 1
 360 481 400 484 434 488 c 0
 468 493 498 500 524 510 c 0
 603 539 643 597 643 686 c 0
EndSplineSet
EndChar
StartChar: S
Encoding: 52 83
OldEncoding: 83
Width: 821
VWidth: 1000
Flags: HW
Fore
717 233 m 0
 717 160 685 98 623 47 c 1
 564 5 497 -16 422 -16 c 0
 392 -16 352 -10 303 4 c 0
 279 12 258 18 242 22 c 0
 225 25 212 27 203 27 c 0
 175 27 162 13 162 -14 c 1
 129 -14 l 1
 88 276 l 1
 119 276 l 1
 188 111 285 29 408 29 c 0
 453 29 492 44 525 74 c 0
 559 104 575 141 575 186 c 0
 575 240 550 290 498 338 c 0
 487 347 469 360 444 376 c 0
 420 392 388 410 348 432 c 0
 311 454 281 473 256 490 c 0
 231 508 212 524 197 539 c 0
 152 586 129 642 129 707 c 0
 129 779 153 837 200 880 c 0
 247 923 307 944 381 944 c 0
 404 944 443 936 498 920 c 2
 578 897 l 1
 601 897 616 913 625 944 c 1
 655 944 l 1
 684 647 l 1
 651 647 l 1
 636 713 607 769 563 815 c 1
 513 863 455 887 391 887 c 0
 352 887 318 875 291 851 c 0
 264 827 250 795 250 756 c 0
 250 698 290 644 371 592 c 2
 596 449 l 2
 677 397 717 325 717 233 c 0
EndSplineSet
EndChar
StartChar: T
Encoding: 53 84
OldEncoding: 84
Width: 907
VWidth: 1000
Flags: HW
Fore
856 690 m 1
 821 690 l 1
 809 763 787 810 756 834 c 0
 727 858 675 870 600 870 c 2
 524 870 l 1
 524 152 l 2
 524 102 534 69 552 52 c 0
 570 35 606 27 657 27 c 1
 657 0 l 1
 248 0 l 1
 248 27 l 1
 305 27 343 38 362 59 c 0
 375 74 381 111 381 168 c 2
 381 870 l 1
 305 870 l 2
 231 870 180 859 150 836 c 0
 121 812 98 764 82 690 c 1
 49 690 l 1
 57 928 l 1
 848 928 l 1
 856 690 l 1
EndSplineSet
EndChar
StartChar: U
Encoding: 54 85
OldEncoding: 85
Width: 1079
VWidth: 1000
Flags: HW
Fore
1028 901 m 1
 965 894 927 878 913 852 c 0
 902 833 897 789 897 721 c 2
 897 356 l 2
 897 255 882 179 852 127 c 0
 797 31 691 -16 532 -16 c 0
 302 -16 186 102 186 338 c 2
 186 776 l 2
 186 825 177 858 160 876 c 0
 142 893 109 901 59 901 c 1
 59 928 l 1
 457 928 l 1
 457 901 l 1
 405 901 370 893 353 878 c 0
 336 862 328 828 328 776 c 2
 328 326 l 2
 328 136 410 41 573 41 c 0
 681 41 758 78 803 152 c 0
 825 186 836 249 836 342 c 2
 836 721 l 2
 836 785 829 828 815 850 c 0
 797 884 760 901 702 901 c 1
 702 928 l 1
 1028 928 l 1
 1028 901 l 1
EndSplineSet
EndChar
StartChar: V
Encoding: 55 86
OldEncoding: 86
Width: 989
VWidth: 1000
Flags: HW
Fore
975 903 m 1
 956 903 941 900 932 895 c 2
 901 877 l 1
 892 867 883 853 874 836 c 2
 844 772 l 1
 535 -12 l 1
 514 -12 l 1
 166 756 l 1
 140 816 117 856 96 877 c 1
 74 891 l 2
 57 899 39 903 18 903 c 1
 18 928 l 1
 391 928 l 1
 391 903 l 1
 350 903 321 898 303 889 c 0
 292 886 287 873 287 850 c 0
 287 840 307 791 346 700 c 2
 555 227 l 1
 762 741 l 1
 776 770 784 802 788 838 c 1
 788 881 754 903 686 903 c 1
 686 928 l 1
 975 928 l 1
 975 903 l 1
EndSplineSet
EndChar
StartChar: W
Encoding: 56 87
OldEncoding: 87
Width: 1355
VWidth: 1000
Flags: HW
Fore
1331 901 m 1
 1298 894 1275 886 1260 876 c 0
 1245 865 1232 845 1221 815 c 2
 1069 406 l 1
 993 186 l 1
 928 -12 l 1
 909 -12 l 1
 890 45 862 123 825 220 c 0
 788 318 741 437 684 578 c 1
 467 -12 l 1
 446 -12 l 1
 322 348 l 1
 176 737 l 1
 156 797 140 834 129 848 c 0
 106 879 73 897 31 901 c 1
 31 928 l 1
 375 928 l 1
 375 901 l 1
 367 901 359 901 353 900 c 0
 347 899 341 898 336 897 c 2
 299 885 l 2
 288 881 283 870 283 854 c 0
 283 844 288 823 299 791 c 1
 502 264 l 1
 651 662 l 1
 606 776 l 2
 587 825 571 857 557 870 c 0
 537 891 505 901 463 901 c 1
 463 928 l 1
 838 928 l 1
 838 901 l 1
 765 901 729 883 729 848 c 1
 737 815 l 1
 768 739 l 1
 952 260 l 1
 1128 735 l 1
 1143 780 1151 814 1151 838 c 0
 1151 862 1141 879 1120 889 c 2
 1094 897 l 1
 1055 901 l 1
 1055 928 l 1
 1331 928 l 1
 1331 901 l 1
EndSplineSet
EndChar
StartChar: X
Encoding: 57 88
OldEncoding: 88
Width: 1050
VWidth: 1000
Flags: HW
Fore
1014 0 m 1
 596 0 l 1
 596 27 l 1
 678 37 l 1
 694 42 703 55 705 74 c 0
 705 94 681 139 633 209 c 2
 500 406 l 1
 332 197 l 2
 284 137 260 97 260 78 c 0
 260 44 296 27 367 27 c 1
 367 0 l 1
 39 0 l 1
 39 27 l 1
 79 31 109 41 129 57 c 1
 182 115 l 1
 242 186 l 1
 463 457 l 1
 309 682 l 2
 240 784 190 847 160 868 c 0
 149 878 134 885 117 890 c 0
 99 895 79 898 55 901 c 1
 55 928 l 1
 481 928 l 1
 481 901 l 1
 439 901 416 900 414 899 c 0
 389 894 376 880 375 858 c 0
 375 828 414 758 494 649 c 2
 551 567 l 1
 711 760 l 1
 752 815 l 2
 760 827 765 841 768 856 c 0
 768 886 735 901 670 901 c 1
 670 928 l 1
 1001 928 l 1
 1001 901 l 1
 954 901 913 889 881 864 c 0
 860 847 831 815 793 770 c 1
 590 516 l 1
 858 131 l 2
 902 68 954 33 1014 27 c 1
 1014 0 l 1
EndSplineSet
EndChar
StartChar: Y
Encoding: 58 89
OldEncoding: 89
Width: 1019
VWidth: 1000
Flags: HW
Fore
991 903 m 1
 960 899 933 890 911 877 c 0
 881 856 843 811 797 741 c 2
 590 426 l 1
 590 152 l 2
 590 104 598 70 614 51 c 1
 638 35 678 27 735 27 c 1
 735 0 l 1
 305 0 l 1
 305 27 l 1
 365 27 406 37 428 57 c 1
 440 74 446 111 446 168 c 2
 446 414 l 1
 264 682 l 1
 197 778 149 840 119 868 c 0
 91 892 63 903 35 903 c 1
 35 928 l 1
 428 928 l 1
 428 903 l 1
 362 903 330 888 330 858 c 0
 330 842 338 822 354 799 c 2
 559 487 l 1
 760 805 l 1
 773 820 780 837 780 856 c 0
 783 887 751 903 684 903 c 1
 684 928 l 1
 991 928 l 1
 991 903 l 1
EndSplineSet
EndChar
StartChar: Z
Encoding: 59 90
OldEncoding: 90
Width: 907
VWidth: 1000
Flags: HW
Fore
862 246 m 1
 827 0 l 1
 37 0 l 1
 37 20 l 1
 649 877 l 1
 340 877 l 2
 251 877 189 857 154 817 c 0
 143 806 133 790 126 769 c 0
 118 748 111 722 104 690 c 1
 68 690 l 1
 96 928 l 1
 834 928 l 1
 834 907 l 1
 227 53 l 1
 588 53 l 2
 671 53 730 73 766 113 c 0
 788 137 809 182 829 246 c 1
 862 246 l 1
EndSplineSet
EndChar
StartChar: bracketleft
Encoding: 60 91
OldEncoding: 91
Width: 526
VWidth: 1000
Flags: HW
Fore
473 -178 m 1
 172 -178 l 1
 172 989 l 1
 473 989 l 1
 473 954 l 1
 344 954 l 2
 302 954 281 933 281 891 c 2
 281 -68 l 2
 281 -118 304 -143 350 -143 c 2
 473 -143 l 1
 473 -178 l 1
EndSplineSet
EndChar
StartChar: backslash
Encoding: 61 92
OldEncoding: 92
Width: 509
VWidth: 1000
Flags: HW
Fore
518 -248 m 1
 440 -248 l 1
 37 969 l 1
 113 969 l 1
 518 -248 l 1
EndSplineSet
EndChar
StartChar: bracketright
Encoding: 62 93
OldEncoding: 93
Width: 526
VWidth: 1000
Flags: HW
Fore
395 -178 m 1
 94 -178 l 1
 94 -143 l 1
 223 -143 l 2
 266 -143 287 -122 287 -80 c 2
 287 879 l 2
 287 929 264 954 217 954 c 2
 94 954 l 1
 94 989 l 1
 395 989 l 1
 395 -178 l 1
EndSplineSet
EndChar
StartChar: asciicircum
Encoding: 63 94
OldEncoding: 94
Width: 739
VWidth: 1000
Flags: HW
Fore
684 426 m 1
 602 426 l 1
 381 872 l 1
 367 840 l 1
 162 426 l 1
 80 426 l 1
 338 948 l 1
 424 948 l 1
 684 426 l 1
EndSplineSet
EndChar
StartChar: underscore
Encoding: 64 95
OldEncoding: 95
Width: 790
VWidth: 1000
Flags: HW
Fore
762 -174 m 1
 45 -174 l 1
 45 -102 l 1
 762 -102 l 1
 762 -174 l 1
EndSplineSet
EndChar
StartChar: grave
Encoding: 65 96
OldEncoding: 96
Width: 368
VWidth: 1000
Flags: HW
Fore
299 508 m 1
 260 508 l 1
 104 606 l 2
 88 616 79 630 76 649 c 0
 76 670 87 680 109 680 c 0
 122 680 137 672 152 657 c 2
 299 508 l 1
EndSplineSet
EndChar
StartChar: a
Encoding: 66 97
OldEncoding: 97
Width: 696
VWidth: 1000
Flags: HW
Fore
676 63 m 1
 635 14 590 -10 541 -10 c 0
 475 -10 442 26 442 98 c 1
 356 26 281 -10 217 -10 c 0
 169 -10 130 4 99 32 c 0
 69 60 53 98 53 145 c 0
 53 218 87 276 154 322 c 0
 170 332 202 349 249 371 c 0
 296 393 360 420 440 453 c 1
 440 547 l 2
 440 631 401 674 322 674 c 0
 253 674 216 649 209 598 c 1
 209 594 l 2
 209 586 211 575 214 563 c 0
 217 551 219 543 219 539 c 0
 219 524 213 508 201 492 c 1
 182 478 164 471 147 471 c 0
 128 471 113 477 100 488 c 0
 88 500 82 517 82 539 c 0
 82 592 111 636 170 670 c 0
 216 697 271 711 334 711 c 0
 420 711 480 691 514 651 c 0
 548 612 565 549 565 463 c 2
 565 162 l 2
 565 106 580 77 610 76 c 0
 634 76 655 85 676 104 c 1
 676 63 l 1
440 190 m 1
 440 416 l 1
 272 361 188 289 188 201 c 0
 188 168 199 138 219 111 c 0
 234 89 259 78 293 78 c 0
 350 78 395 97 428 135 c 0
 431 141 433 148 434 158 c 0
 436 167 438 178 440 190 c 1
EndSplineSet
EndChar
StartChar: b
Encoding: 67 98
OldEncoding: 98
Width: 802
VWidth: 1000
Flags: HW
Fore
748 369 m 0
 748 281 720 200 664 125 c 0
 597 35 500 -10 373 -10 c 0
 324 -10 274 -2 225 14 c 0
 162 35 131 59 131 86 c 2
 131 887 l 2
 131 921 129 941 125 946 c 0
 115 960 98 967 72 967 c 2
 63 967 l 1
 29 965 l 1
 29 989 l 1
 53 996 84 1005 122 1016 c 0
 159 1027 204 1040 256 1057 c 1
 262 1055 l 1
 262 586 l 1
 266 605 276 622 291 637 c 0
 306 652 323 665 343 676 c 0
 363 687 384 695 407 701 c 0
 429 708 451 711 471 711 c 0
 561 711 631 674 682 602 c 0
 726 535 748 457 748 369 c 0
608 313 m 0
 608 353 606 389 600 422 c 0
 595 455 585 485 571 512 c 0
 535 582 482 616 414 616 c 0
 377 616 344 606 315 586 c 0
 280 561 262 531 262 496 c 2
 262 111 l 2
 262 98 267 87 278 78 c 0
 288 68 300 60 315 54 c 0
 330 48 346 43 364 40 c 0
 381 37 395 35 408 35 c 0
 541 35 608 128 608 313 c 0
EndSplineSet
EndChar
StartChar: c
Encoding: 68 99
OldEncoding: 99
Width: 690
VWidth: 1000
Flags: HW
Fore
653 229 m 1
 578 70 476 -10 346 -10 c 0
 256 -10 184 25 131 94 c 0
 82 158 57 238 57 332 c 0
 57 437 89 526 152 598 c 0
 216 673 300 711 403 711 c 0
 461 711 511 698 553 674 c 0
 606 645 633 605 633 553 c 0
 633 509 609 487 561 487 c 0
 524 487 499 511 485 559 c 1
 477 592 l 1
 466 623 455 644 442 653 c 0
 430 663 408 668 377 668 c 0
 311 668 260 637 223 575 c 0
 192 520 176 459 176 393 c 0
 176 311 196 244 236 190 c 0
 281 128 339 96 412 96 c 0
 439 96 463 100 484 108 c 0
 506 115 526 126 545 141 c 0
 558 152 573 166 588 181 c 0
 603 197 618 217 633 242 c 1
 653 229 l 1
EndSplineSet
EndChar
StartChar: d
Encoding: 69 100
OldEncoding: 100
Width: 778
VWidth: 1000
Flags: HW
Fore
778 66 m 1
 553 -10 l 1
 545 -6 l 1
 545 84 l 1
 498 21 431 -10 342 -10 c 0
 279 -10 224 7 176 41 c 0
 100 97 61 194 61 332 c 0
 61 384 69 431 83 473 c 0
 97 515 118 555 145 592 c 0
 207 671 285 711 381 711 c 0
 440 711 494 689 545 647 c 1
 545 887 l 2
 545 902 544 914 544 923 c 0
 543 931 541 939 539 944 c 0
 535 951 528 956 518 959 c 0
 509 963 498 965 487 965 c 2
 479 965 l 1
 442 963 l 1
 442 989 l 1
 535 1012 l 1
 666 1057 l 1
 676 1055 l 1
 676 176 l 2
 676 141 680 117 689 105 c 0
 698 94 719 88 752 88 c 2
 778 90 l 1
 778 66 l 1
545 158 m 1
 545 516 l 1
 541 565 523 604 492 633 c 0
 477 646 460 656 441 662 c 0
 423 667 403 670 383 670 c 0
 315 670 264 638 231 573 c 0
 204 522 190 459 190 387 c 0
 190 343 194 304 202 268 c 0
 209 233 221 201 236 174 c 0
 275 102 332 66 408 66 c 0
 483 66 528 96 545 158 c 1
EndSplineSet
EndChar
StartChar: e
Encoding: 70 101
OldEncoding: 101
Width: 692
VWidth: 1000
Flags: HW
Fore
674 244 m 1
 667 219 657 194 643 169 c 0
 629 144 612 119 590 96 c 0
 520 25 439 -10 346 -10 c 0
 266 -10 201 13 152 60 c 0
 102 108 72 172 61 254 c 0
 60 265 59 277 58 290 c 0
 58 303 57 317 57 332 c 0
 57 437 83 524 135 592 c 0
 194 671 273 711 373 711 c 0
 459 711 525 685 572 635 c 0
 620 584 643 515 643 428 c 1
 164 428 l 1
 164 204 246 92 412 92 c 0
 499 92 579 147 651 256 c 1
 674 244 l 1
487 479 m 1
 475 598 426 657 340 657 c 0
 250 657 193 598 168 479 c 1
 487 479 l 1
EndSplineSet
EndChar
StartChar: f
Encoding: 71 102
OldEncoding: 102
Width: 512
VWidth: 1000
Flags: HW
Fore
614 963 m 0
 614 920 591 899 545 899 c 0
 528 899 504 918 473 956 c 1
 447 995 423 1014 401 1014 c 0
 339 1014 307 967 307 874 c 2
 307 696 l 1
 498 696 l 1
 498 649 l 1
 309 649 l 1
 309 160 l 2
 309 109 315 75 328 57 c 0
 344 34 386 23 453 23 c 1
 453 0 l 1
 51 0 l 1
 51 23 l 1
 62 24 74 25 86 25 c 0
 100 25 110 26 117 29 c 0
 124 31 131 34 140 38 c 0
 149 41 155 44 158 47 c 0
 173 66 180 104 180 160 c 2
 180 649 l 1
 53 649 l 1
 53 696 l 1
 180 696 l 1
 180 938 272 1059 457 1059 c 0
 494 1059 526 1052 555 1038 c 0
 595 1019 614 994 614 963 c 0
EndSplineSet
EndChar
StartChar: g
Encoding: 72 103
OldEncoding: 103
Width: 735
VWidth: 1000
Flags: HW
Fore
694 606 m 1
 571 606 l 1
 591 560 600 514 600 469 c 0
 600 403 578 351 535 311 c 0
 491 272 435 252 367 252 c 0
 353 252 340 252 327 253 c 0
 314 254 300 255 287 258 c 2
 281 258 l 2
 268 258 251 247 229 225 c 0
 206 198 195 179 195 168 c 0
 195 145 234 131 313 127 c 2
 502 117 l 2
 554 114 597 99 631 72 c 0
 665 44 682 8 682 -37 c 0
 682 -78 669 -114 642 -144 c 0
 615 -175 583 -201 544 -222 c 0
 505 -243 464 -259 420 -270 c 0
 376 -281 337 -287 301 -287 c 0
 276 -287 250 -284 220 -280 c 0
 191 -275 163 -267 136 -256 c 0
 110 -245 87 -230 70 -212 c 0
 52 -194 43 -171 43 -143 c 0
 43 -96 91 -37 186 33 c 1
 133 61 106 87 106 111 c 0
 106 143 150 197 238 272 c 1
 147 313 102 378 102 465 c 0
 102 539 126 598 174 643 c 0
 222 688 283 711 356 711 c 0
 375 711 397 708 421 702 c 0
 445 697 471 689 500 678 c 0
 513 672 528 669 543 667 c 0
 558 665 571 664 582 664 c 2
 694 664 l 1
 694 606 l 1
485 432 m 0
 485 476 477 520 459 565 c 0
 433 635 392 670 336 670 c 0
 262 670 225 625 225 537 c 0
 225 371 276 289 377 289 c 0
 449 289 485 337 485 432 c 0
641 -59 m 0
 641 -42 635 -27 622 -15 c 0
 609 -4 591 4 569 8 c 0
 564 10 552 11 534 11 c 0
 515 12 490 14 459 16 c 0
 414 19 377 21 349 23 c 0
 321 24 299 25 282 26 c 0
 265 26 252 27 243 28 c 0
 234 28 225 29 217 31 c 1
 169 -25 145 -68 145 -98 c 0
 145 -168 220 -203 369 -203 c 0
 396 -203 423 -200 451 -195 c 0
 478 -189 506 -181 535 -170 c 0
 606 -143 641 -106 641 -59 c 0
EndSplineSet
EndChar
StartChar: h
Encoding: 73 104
OldEncoding: 104
Width: 780
VWidth: 1000
Flags: HW
Fore
774 0 m 1
 449 0 l 1
 449 20 l 1
 485 25 512 33 528 47 c 0
 539 55 546 69 549 88 c 0
 552 107 553 130 553 158 c 2
 553 465 l 2
 553 574 513 629 434 629 c 0
 382 629 326 596 264 530 c 1
 264 158 l 2
 264 130 266 108 269 89 c 0
 273 71 279 57 289 47 c 0
 297 39 324 30 369 20 c 1
 369 0 l 1
 37 0 l 1
 37 20 l 1
 60 23 79 28 92 36 c 0
 106 43 115 52 121 61 c 0
 130 76 135 109 135 158 c 2
 135 942 l 1
 128 949 120 954 110 957 c 0
 99 961 89 963 78 963 c 2
 39 961 l 1
 39 987 l 1
 258 1057 l 1
 264 1053 l 1
 264 586 l 1
 324 669 400 711 492 711 c 0
 620 711 684 629 684 467 c 2
 684 158 l 2
 684 109 687 77 694 63 c 0
 701 55 711 48 725 41 c 0
 739 34 755 27 774 20 c 1
 774 0 l 1
EndSplineSet
EndChar
StartChar: i
Encoding: 74 105
OldEncoding: 105
Width: 403
VWidth: 1000
Flags: HW
Fore
401 0 m 1
 401 20 l 1
 345 29 313 39 305 51 c 0
 291 74 285 109 285 156 c 2
 285 711 l 1
 279 713 l 1
 39 627 l 1
 39 604 l 1
 100 612 l 1
 136 612 154 581 154 518 c 2
 154 156 l 2
 154 130 152 108 150 90 c 0
 147 72 141 58 132 48 c 0
 123 38 111 31 95 27 c 0
 80 23 59 20 33 20 c 1
 33 0 l 1
 401 0 l 1
131 981 m 0
 131 958 139 939 154 924 c 0
 169 909 188 901 211 901 c 0
 234 901 253 909 268 924 c 0
 283 939 291 958 291 981 c 0
 291 1004 283 1023 268 1038 c 0
 253 1053 234 1061 211 1061 c 0
 188 1061 169 1053 154 1038 c 0
 139 1023 131 1004 131 981 c 0
EndSplineSet
EndChar
StartChar: j
Encoding: 75 106
OldEncoding: 106
Width: 387
VWidth: 1000
Flags: HW
Fore
301 711 m 1
 295 713 l 1
 55 627 l 1
 55 604 l 1
 117 612 l 1
 152 612 170 581 170 518 c 2
 170 0 l 1
 168 0 l 1
 168 -66 l 2
 168 -153 165 -205 160 -221 c 0
 145 -262 122 -283 90 -283 c 0
 79 -281 57 -265 25 -233 c 0
 -4 -203 -29 -188 -49 -188 c 0
 -55 -188 -68 -193 -88 -203 c 1
 -100 -215 -106 -229 -106 -246 c 0
 -106 -304 -60 -334 33 -334 c 0
 120 -334 187 -307 232 -254 c 0
 278 -201 301 -121 301 -14 c 2
 301 711 l 1
147 981 m 0
 147 958 155 939 170 924 c 0
 185 909 204 901 227 901 c 0
 251 901 270 909 285 924 c 0
 300 939 307 958 307 981 c 0
 307 1004 300 1023 285 1038 c 0
 270 1053 251 1061 227 1061 c 0
 204 1061 185 1053 170 1038 c 0
 155 1023 147 1004 147 981 c 0
EndSplineSet
EndChar
StartChar: k
Encoding: 76 107
OldEncoding: 107
Width: 790
VWidth: 1000
Flags: HW
Fore
803 0 m 1
 469 0 l 1
 469 25 l 1
 494 25 l 2
 504 25 513 26 520 30 c 0
 527 33 531 39 532 47 c 1
 281 383 l 1
 281 102 l 2
 281 52 309 27 365 27 c 2
 395 25 l 1
 395 0 l 1
 35 0 l 1
 35 25 l 1
 85 31 113 38 119 43 c 0
 127 53 134 63 139 76 c 0
 145 88 147 105 147 127 c 2
 147 872 l 2
 147 907 145 929 139 940 c 0
 135 947 129 953 121 957 c 0
 113 962 101 965 86 965 c 2
 78 965 l 1
 35 961 l 1
 35 983 l 1
 272 1053 l 1
 281 1051 l 1
 281 406 l 1
 489 592 l 2
 515 614 528 631 528 645 c 0
 528 663 502 672 449 672 c 1
 449 696 l 1
 762 696 l 1
 762 670 l 1
 737 670 716 667 697 663 c 0
 679 658 662 652 647 645 c 0
 636 638 620 628 598 613 c 0
 576 599 552 581 526 559 c 2
 383 434 l 1
 623 135 l 2
 650 101 679 74 709 55 c 0
 739 36 770 26 803 25 c 1
 803 0 l 1
EndSplineSet
EndChar
StartChar: l
Encoding: 77 108
OldEncoding: 108
Width: 405
VWidth: 1000
Flags: HW
Fore
397 0 m 1
 33 0 l 1
 33 20 l 1
 76 26 107 36 125 51 c 0
 143 66 152 94 152 135 c 2
 152 872 l 2
 152 908 149 931 143 942 c 0
 131 958 113 967 90 967 c 2
 29 963 l 1
 29 989 l 1
 46 993 67 998 89 1004 c 0
 112 1009 127 1013 135 1016 c 2
 281 1059 l 1
 281 131 l 2
 281 57 319 20 397 20 c 1
 397 0 l 1
EndSplineSet
EndChar
StartChar: m
Encoding: 78 109
OldEncoding: 109
Width: 1224
VWidth: 1000
Flags: HW
Fore
1219 0 m 1
 881 0 l 1
 881 20 l 1
 896 23 908 26 919 28 c 0
 929 30 937 31 944 33 c 0
 963 40 975 55 979 80 c 1
 983 135 l 1
 983 461 l 2
 983 518 978 557 967 578 c 0
 950 614 918 633 870 633 c 0
 797 633 740 601 700 537 c 1
 700 143 l 2
 700 61 737 20 809 20 c 1
 809 0 l 1
 463 0 l 1
 463 20 l 1
 485 23 502 27 516 31 c 0
 530 35 541 41 549 49 c 0
 557 57 563 68 565 81 c 0
 568 94 569 111 569 133 c 2
 569 469 l 2
 569 578 533 633 461 633 c 0
 414 633 372 618 334 588 c 0
 319 577 307 568 299 560 c 0
 291 553 286 545 285 539 c 1
 285 104 l 2
 285 48 319 20 389 20 c 1
 389 0 l 1
 45 0 l 1
 45 20 l 1
 117 20 154 57 154 131 c 2
 154 549 l 2
 154 573 147 594 135 610 c 0
 131 617 119 621 100 621 c 0
 89 621 80 620 72 620 c 0
 63 619 56 618 49 616 c 1
 49 641 l 1
 63 644 77 648 93 653 c 0
 109 659 122 663 133 666 c 2
 266 711 l 1
 276 711 l 1
 276 592 l 1
 332 630 373 656 399 671 c 0
 425 685 442 694 449 696 c 0
 473 706 496 711 516 711 c 0
 599 711 655 668 682 584 c 1
 758 668 842 711 932 711 c 0
 1052 711 1112 618 1112 434 c 2
 1112 117 l 2
 1112 61 1135 31 1180 27 c 2
 1219 20 l 1
 1219 0 l 1
EndSplineSet
EndChar
StartChar: n
Encoding: 79 110
OldEncoding: 110
Width: 776
VWidth: 1000
Flags: HW
Fore
766 0 m 1
 449 0 l 1
 449 20 l 1
 487 25 509 33 516 47 c 1
 535 62 545 97 545 152 c 2
 545 475 l 2
 545 573 506 623 428 623 c 0
 388 623 337 595 274 539 c 1
 274 104 l 2
 274 58 308 30 375 20 c 1
 375 0 l 1
 49 0 l 1
 49 20 l 1
 94 29 l 1
 112 35 125 48 133 68 c 0
 141 87 145 111 145 139 c 2
 145 522 l 2
 145 565 140 593 129 608 c 0
 126 611 121 613 113 614 c 0
 104 616 97 616 90 616 c 0
 68 616 53 615 45 612 c 1
 45 639 l 1
 61 642 78 646 94 651 c 0
 111 657 122 661 129 664 c 0
 148 670 169 678 190 685 c 0
 212 693 234 700 256 709 c 1
 270 709 l 1
 270 582 l 1
 292 605 312 624 329 640 c 0
 346 656 361 668 375 676 c 0
 416 698 456 709 496 709 c 0
 614 709 674 631 674 477 c 2
 674 125 l 2
 674 89 680 63 692 47 c 0
 699 40 708 35 720 32 c 0
 731 28 747 25 766 20 c 1
 766 0 l 1
EndSplineSet
EndChar
StartChar: o
Encoding: 80 111
OldEncoding: 111
Width: 784
VWidth: 1000
Flags: HW
Fore
63 350 m 0
 63 301 72 255 88 211 c 0
 104 167 128 129 158 96 c 0
 188 63 223 38 264 18 c 0
 305 -1 351 -10 401 -10 c 0
 452 -10 498 -1 540 18 c 0
 581 38 617 63 647 96 c 0
 677 129 701 167 718 211 c 0
 735 255 743 301 743 350 c 0
 743 399 735 446 718 489 c 0
 701 533 677 571 647 604 c 0
 617 637 581 663 540 682 c 0
 498 701 452 711 401 711 c 0
 351 711 305 701 264 682 c 0
 223 663 188 637 158 604 c 0
 128 571 104 533 88 489 c 0
 72 446 63 399 63 350 c 0
201 348 m 0
 201 392 205 433 213 472 c 0
 221 511 233 545 250 573 c 0
 266 602 287 625 312 642 c 0
 338 659 367 668 401 668 c 0
 437 668 467 659 493 642 c 0
 518 625 539 602 555 573 c 0
 571 545 583 511 591 472 c 0
 598 433 602 392 602 348 c 0
 602 304 598 263 591 224 c 0
 583 185 571 151 555 122 c 0
 539 93 518 69 493 52 c 0
 467 35 437 27 401 27 c 0
 367 27 338 35 312 52 c 0
 287 69 266 93 250 122 c 0
 233 151 221 185 213 224 c 0
 205 263 201 304 201 348 c 0
EndSplineSet
EndChar
StartChar: p
Encoding: 81 112
OldEncoding: 112
Width: 774
VWidth: 1000
Flags: HW
Fore
266 -176 m 2
 266 53 l 1
 314 11 367 -10 424 -10 c 0
 476 -10 522 1 562 23 c 0
 602 44 636 73 664 110 c 0
 691 146 712 187 726 234 c 0
 740 282 748 330 748 379 c 0
 748 418 742 458 732 498 c 0
 722 537 706 573 685 604 c 0
 664 636 638 661 606 681 c 0
 575 701 537 711 494 711 c 0
 403 711 328 672 266 594 c 1
 260 711 l 1
 37 633 l 1
 37 608 l 1
 86 610 l 2
 111 610 126 602 131 586 c 0
 135 576 137 554 137 520 c 2
 137 -188 l 2
 137 -224 130 -249 116 -263 c 0
 101 -278 74 -285 33 -285 c 1
 33 -309 l 1
 399 -309 l 1
 399 -281 l 1
 346 -281 311 -274 295 -262 c 0
 276 -248 266 -220 266 -176 c 2
616 330 m 0
 616 251 603 186 578 135 c 0
 545 68 494 35 426 35 c 0
 395 35 362 44 328 63 c 0
 287 84 266 109 266 137 c 2
 266 518 l 1
 269 532 276 545 287 557 c 0
 298 569 310 580 325 589 c 0
 339 598 354 605 371 610 c 0
 387 616 403 618 420 618 c 0
 455 618 486 610 511 592 c 0
 536 574 557 551 572 523 c 0
 588 495 599 464 606 430 c 0
 613 396 616 362 616 330 c 0
EndSplineSet
EndChar
StartChar: q
Encoding: 82 113
OldEncoding: 113
Width: 692
VWidth: 1000
Flags: HW
Fore
772 -328 m 1
 772 -303 l 1
 707 -291 674 -261 674 -215 c 2
 674 707 l 1
 670 711 l 1
 662 709 l 1
 575 655 l 1
 510 692 452 711 401 711 c 0
 348 711 300 700 258 680 c 0
 216 659 180 631 151 596 c 0
 121 560 98 520 82 474 c 0
 66 428 57 380 57 328 c 0
 57 285 62 244 71 203 c 0
 80 162 94 126 115 94 c 0
 135 63 161 38 194 18 c 0
 226 -1 265 -10 311 -10 c 0
 330 -10 353 -8 379 -2 c 0
 405 3 428 12 449 23 c 2
 506 59 l 1
 547 96 l 1
 547 -182 l 2
 547 -223 535 -253 512 -271 c 0
 489 -290 453 -299 406 -299 c 1
 406 -328 l 1
 772 -328 l 1
547 199 m 1
 537 139 l 1
 509 100 459 80 387 80 c 0
 352 80 321 89 296 106 c 0
 271 124 250 147 234 176 c 0
 219 205 208 236 201 270 c 0
 194 304 190 338 190 371 c 0
 190 406 194 441 201 476 c 0
 208 511 219 543 234 571 c 0
 250 600 271 623 298 641 c 0
 325 659 357 668 395 668 c 0
 496 668 547 617 547 516 c 2
 547 199 l 1
EndSplineSet
EndChar
StartChar: r
Encoding: 83 114
OldEncoding: 114
Width: 522
VWidth: 1000
Flags: HW
Fore
543 629 m 0
 543 606 537 588 525 577 c 0
 514 565 500 559 483 559 c 0
 472 559 462 562 453 568 c 0
 443 574 434 581 426 588 c 0
 418 595 410 601 402 607 c 0
 395 613 387 616 379 616 c 0
 356 616 332 601 307 569 c 0
 283 537 270 509 270 487 c 2
 270 141 l 2
 270 61 314 20 401 20 c 1
 401 0 l 1
 31 0 l 1
 31 20 l 1
 54 26 73 31 87 35 c 0
 101 39 112 43 119 47 c 0
 126 51 131 61 134 78 c 0
 138 94 139 112 139 131 c 2
 139 518 l 2
 139 550 135 573 126 590 c 0
 117 606 104 613 88 610 c 2
 35 604 l 1
 35 629 l 1
 84 646 127 662 165 675 c 0
 202 688 235 700 262 711 c 1
 270 711 l 1
 270 571 l 1
 332 664 395 711 459 711 c 0
 515 711 543 683 543 629 c 0
EndSplineSet
EndChar
StartChar: s
Encoding: 84 115
OldEncoding: 115
Width: 591
VWidth: 1000
Flags: HW
Fore
532 184 m 0
 532 123 511 75 467 41 c 0
 423 7 370 -10 307 -10 c 0
 287 -10 254 -6 209 2 c 2
 129 16 l 2
 117 16 105 11 94 0 c 1
 74 0 l 1
 74 238 l 1
 102 238 l 1
 106 203 113 177 123 158 c 1
 150 94 l 1
 180 44 229 18 297 18 c 0
 382 18 424 56 424 131 c 0
 424 175 397 213 344 246 c 2
 176 346 l 1
 127 389 l 2
 91 418 74 462 74 522 c 0
 74 551 80 577 92 600 c 0
 104 623 120 643 140 659 c 0
 160 676 183 688 209 697 c 0
 235 706 262 711 291 711 c 0
 318 711 337 709 348 706 c 0
 359 702 369 699 377 696 c 2
 432 678 l 1
 442 678 451 685 459 698 c 1
 477 698 l 1
 485 487 l 1
 459 487 l 1
 430 613 373 676 287 676 c 0
 216 676 176 642 168 573 c 1
 168 527 190 491 236 465 c 2
 403 367 l 2
 447 341 478 317 496 295 c 0
 520 266 532 229 532 184 c 0
EndSplineSet
EndChar
StartChar: t
Encoding: 85 116
OldEncoding: 116
Width: 425
VWidth: 1000
Flags: HW
Fore
440 102 m 1
 432 86 422 71 409 57 c 0
 396 44 381 32 365 22 c 0
 348 11 331 3 312 -2 c 0
 294 -8 276 -10 260 -10 c 0
 167 -10 121 54 121 182 c 2
 121 645 l 1
 37 645 l 1
 31 657 l 1
 58 678 82 698 102 719 c 0
 128 745 152 771 172 799 c 0
 193 826 215 858 240 895 c 1
 248 872 l 1
 248 696 l 1
 406 696 l 1
 406 645 l 1
 248 645 l 1
 248 205 l 2
 248 112 274 66 326 66 c 0
 358 66 390 83 422 119 c 1
 440 102 l 1
EndSplineSet
EndChar
StartChar: u
Encoding: 86 117
OldEncoding: 117
Width: 790
VWidth: 1000
Flags: HW
Fore
762 55 m 1
 754 54 742 52 727 48 c 0
 712 45 693 39 670 31 c 2
 547 -8 l 1
 545 119 l 1
 477 51 l 1
 432 10 379 -10 317 -10 c 0
 275 -10 236 1 199 23 c 1
 154 63 131 118 131 186 c 2
 131 575 l 2
 131 616 121 644 100 657 c 1
 88 670 67 676 37 676 c 1
 37 696 l 1
 260 696 l 1
 260 195 l 2
 260 160 271 132 293 111 c 1
 296 104 300 99 306 95 c 0
 312 92 319 88 328 84 c 1
 379 78 l 1
 425 78 470 96 512 131 c 0
 528 142 537 167 537 207 c 2
 537 573 l 2
 537 614 528 641 512 652 c 0
 496 664 466 670 422 670 c 1
 422 696 l 1
 668 696 l 1
 668 168 l 2
 668 130 673 105 685 95 c 0
 697 85 722 80 762 80 c 1
 762 55 l 1
EndSplineSet
EndChar
StartChar: v
Encoding: 87 118
OldEncoding: 118
Width: 741
VWidth: 1000
Flags: HW
Fore
721 672 m 1
 694 672 672 657 655 629 c 0
 649 615 643 602 638 591 c 0
 633 579 627 566 621 551 c 1
 424 57 l 1
 389 -4 l 1
 381 -14 l 1
 367 2 l 1
 340 51 l 1
 100 614 l 1
 76 647 l 1
 61 664 40 672 14 672 c 1
 14 696 l 1
 315 696 l 1
 315 672 l 1
 269 668 246 652 246 625 c 0
 246 618 247 610 250 602 c 0
 253 594 256 584 260 571 c 2
 416 178 l 1
 516 434 l 2
 535 483 549 522 558 550 c 0
 567 578 573 601 578 621 c 1
 578 629 l 2
 578 642 571 653 558 660 c 0
 545 668 528 672 506 672 c 1
 506 696 l 1
 721 696 l 1
 721 672 l 1
EndSplineSet
EndChar
StartChar: w
Encoding: 88 119
OldEncoding: 119
Width: 1073
VWidth: 1000
Flags: HW
Fore
1051 672 m 1
 1029 668 1008 640 987 590 c 2
 774 55 l 1
 745 2 l 1
 731 -14 l 1
 723 -14 711 6 694 47 c 2
 555 410 l 1
 381 41 l 1
 374 22 365 8 354 0 c 1
 344 -14 l 1
 324 6 310 27 303 49 c 1
 66 639 l 1
 59 659 42 670 14 672 c 1
 14 696 l 1
 291 696 l 1
 291 672 l 1
 242 668 217 651 217 621 c 0
 217 608 236 552 274 453 c 2
 381 174 l 1
 522 481 l 1
 485 582 l 1
 457 639 l 1
 442 654 417 665 383 672 c 1
 383 696 l 1
 696 696 l 1
 696 672 l 1
 635 657 l 1
 617 649 608 635 608 614 c 0
 608 606 619 572 641 512 c 2
 764 180 l 1
 905 522 l 2
 911 535 916 551 921 570 c 0
 925 590 928 607 928 621 c 0
 928 642 906 659 862 672 c 1
 862 696 l 1
 1051 696 l 1
 1051 672 l 1
EndSplineSet
EndChar
StartChar: x
Encoding: 89 120
OldEncoding: 120
Width: 770
VWidth: 1000
Flags: HW
Fore
743 0 m 1
 432 0 l 1
 432 20 l 1
 473 29 l 2
 485 33 492 44 492 63 c 0
 492 69 489 76 485 84 c 0
 481 92 476 102 469 113 c 2
 344 303 l 1
 221 115 l 2
 213 101 206 89 201 78 c 0
 195 67 192 57 190 49 c 0
 193 30 214 20 252 20 c 1
 252 0 l 1
 29 0 l 1
 29 20 l 1
 59 27 76 33 82 39 c 0
 93 44 103 53 113 63 c 0
 122 74 132 87 143 102 c 2
 319 358 l 1
 174 580 l 2
 152 612 128 640 102 664 c 1
 41 672 l 1
 41 696 l 1
 360 696 l 1
 360 672 l 1
 317 672 295 660 295 637 c 0
 295 621 326 565 387 471 c 1
 420 519 445 556 462 584 c 0
 479 611 488 629 489 637 c 0
 489 660 469 672 428 672 c 1
 428 696 l 1
 672 696 l 1
 672 672 l 1
 618 672 577 650 547 606 c 2
 418 420 l 1
 618 115 l 2
 638 87 657 66 677 49 c 0
 697 33 719 23 743 20 c 1
 743 0 l 1
EndSplineSet
EndChar
StartChar: y
Encoding: 90 121
OldEncoding: 121
Width: 757
VWidth: 1000
Flags: HW
Fore
422 -27 m 2
 662 604 l 1
 678 651 702 674 735 674 c 1
 735 696 l 1
 526 696 l 1
 526 674 l 1
 577 674 602 659 602 631 c 1
 446 180 l 1
 268 573 l 1
 256 594 250 612 250 629 c 0
 250 659 281 674 342 674 c 1
 342 696 l 1
 23 696 l 1
 23 676 l 1
 66 668 92 651 100 625 c 1
 375 31 l 2
 376 28 377 24 377 18 c 1
 328 -98 l 1
 294 -175 259 -213 223 -213 c 0
 210 -213 193 -208 174 -198 c 0
 155 -187 134 -182 111 -182 c 0
 60 -182 35 -206 35 -254 c 0
 35 -315 73 -346 150 -346 c 0
 251 -346 341 -240 422 -27 c 2
EndSplineSet
EndChar
StartChar: z
Encoding: 91 122
OldEncoding: 122
Width: 679
VWidth: 1000
Flags: HW
Fore
627 205 m 1
 608 0 l 1
 25 0 l 1
 25 20 l 1
 436 647 l 1
 219 647 l 2
 195 647 174 644 159 637 c 0
 143 630 130 621 121 608 c 0
 111 596 104 582 100 565 c 0
 96 549 94 531 92 512 c 1
 59 512 l 1
 66 696 l 1
 606 696 l 1
 606 672 l 1
 188 47 l 1
 401 47 l 2
 436 47 464 50 486 55 c 0
 509 61 528 70 543 83 c 0
 558 96 570 113 579 134 c 0
 587 155 595 182 600 213 c 1
 627 205 l 1
EndSplineSet
EndChar
StartChar: braceleft
Encoding: 92 123
OldEncoding: 123
Width: 491
VWidth: 1000
Flags: HW
Fore
444 -256 m 1
 364 -256 306 -244 270 -219 c 0
 228 -189 207 -134 207 -55 c 2
 207 195 l 2
 207 244 198 280 181 304 c 0
 164 328 132 346 86 358 c 1
 131 371 162 389 180 413 c 0
 198 437 207 472 207 520 c 2
 207 776 l 2
 207 854 228 908 270 938 c 0
 306 963 364 975 444 975 c 1
 444 958 l 1
 394 948 359 929 341 902 c 0
 323 876 313 836 313 782 c 2
 313 543 l 2
 313 487 305 444 289 416 c 1
 271 393 236 373 184 358 c 1
 212 350 233 341 250 332 c 0
 266 322 279 311 289 297 c 0
 298 283 305 267 308 247 c 0
 312 227 313 203 313 174 c 2
 313 -63 l 2
 313 -115 323 -154 342 -180 c 0
 361 -206 395 -226 444 -240 c 1
 444 -256 l 1
EndSplineSet
EndChar
StartChar: bar
Encoding: 93 124
OldEncoding: 124
Width: 317
VWidth: 1000
Flags: HW
Fore
199 -248 m 1
 127 -248 l 1
 127 969 l 1
 199 969 l 1
 199 -248 l 1
EndSplineSet
EndChar
StartChar: braceright
Encoding: 94 125
OldEncoding: 125
Width: 491
VWidth: 1000
Flags: HW
Fore
412 358 m 1
 365 346 333 328 315 303 c 0
 298 279 289 242 289 195 c 2
 289 -55 l 2
 289 -134 268 -189 227 -219 c 0
 193 -244 135 -256 53 -256 c 1
 53 -240 l 1
 141 -218 184 -159 184 -63 c 2
 184 174 l 2
 184 230 192 270 207 293 c 0
 223 322 259 343 313 356 c 1
 261 371 227 392 210 418 c 0
 193 444 184 485 184 543 c 2
 184 782 l 2
 184 834 175 873 156 900 c 0
 137 927 102 946 53 958 c 1
 53 975 l 1
 137 975 195 963 229 938 c 0
 269 909 289 855 289 774 c 2
 289 520 l 2
 289 436 330 382 412 358 c 1
EndSplineSet
EndChar
StartChar: asciitilde
Encoding: 95 126
OldEncoding: 126
Width: 856
VWidth: 1000
Flags: HW
Fore
764 391 m 1
 723 338 l 1
 692 307 l 2
 666 281 631 268 586 268 c 0
 554 268 503 284 432 315 c 0
 365 348 313 365 274 365 c 0
 229 365 189 330 154 262 c 1
 102 334 l 1
 146 416 205 457 281 457 c 0
 313 457 365 441 436 410 c 0
 506 380 556 363 588 360 c 0
 627 360 669 395 713 463 c 1
 764 391 l 1
EndSplineSet
EndChar
StartChar: uni0E01
Encoding: 97 3585
OldEncoding: 3585
Width: 827
VWidth: 1000
Flags: HW
Fore
119 0 m 1
 119 395 l 2
 119 483 158 537 236 559 c 1
 193 586 135 600 61 600 c 1
 70 627 85 652 109 675 c 0
 132 697 160 718 193 737 c 0
 251 771 311 788 373 788 c 0
 464 788 537 768 592 727 c 0
 656 682 688 616 688 530 c 2
 688 0 l 1
 582 0 l 1
 582 530 l 2
 582 589 561 636 520 670 c 0
 479 704 429 721 371 721 c 0
 274 721 199 692 145 635 c 1
 215 635 272 605 315 545 c 1
 289 537 268 522 251 502 c 0
 234 481 225 455 225 424 c 2
 225 0 l 1
 119 0 l 1
EndSplineSet
EndChar
StartChar: uni0E02
Encoding: 98 3586
OldEncoding: 3586
Width: 720
VWidth: 1000
Flags: HW
Fore
582 113 m 2
 582 38 552 -0 492 0 c 2
 98 0 l 1
 98 39 l 1
 178 39 l 1
 178 358 l 2
 178 409 203 468 254 535 c 0
 279 567 295 595 303 618 c 0
 311 642 315 658 315 668 c 0
 315 691 305 710 285 724 c 0
 264 738 240 745 213 745 c 0
 183 745 159 739 141 727 c 1
 165 727 184 715 201 690 c 0
 214 668 221 640 221 606 c 0
 221 578 213 550 198 524 c 0
 182 498 160 485 133 485 c 0
 121 485 109 489 97 497 c 0
 86 504 76 514 68 525 c 0
 59 537 53 550 48 564 c 0
 43 579 41 593 41 606 c 0
 41 658 57 701 88 736 c 0
 119 771 161 788 213 788 c 0
 268 788 312 774 346 745 c 0
 380 717 397 677 397 627 c 0
 397 612 394 594 386 574 c 0
 379 555 365 530 346 500 c 0
 327 468 312 442 300 420 c 0
 288 398 283 378 283 360 c 2
 283 39 l 1
 403 39 l 2
 425 39 443 45 456 57 c 0
 469 70 475 88 475 113 c 2
 475 770 l 1
 582 770 l 1
 582 113 l 2
186 606 m 0
 186 628 181 647 171 663 c 0
 161 678 148 686 133 686 c 2
 131 686 l 2
 116 686 104 679 94 665 c 0
 85 650 80 631 80 606 c 0
 80 587 85 568 95 550 c 0
 105 531 118 522 133 522 c 0
 147 522 159 531 170 550 c 0
 181 568 186 587 186 606 c 0
EndSplineSet
EndChar
StartChar: uni0E03
Encoding: 99 3587
OldEncoding: 3587
Width: 802
VWidth: 1000
Flags: HW
Fore
664 113 m 2
 664 84 656 59 641 37 c 0
 625 12 603 0 575 0 c 2
 180 0 l 1
 180 39 l 1
 254 39 l 1
 254 356 l 2
 254 384 260 413 272 443 c 0
 285 474 302 508 326 545 c 1
 352 578 371 603 384 622 c 0
 397 640 403 657 403 674 c 0
 403 696 399 713 389 726 c 0
 380 739 365 745 344 745 c 0
 302 745 281 715 281 653 c 1
 250 653 l 1
 250 685 240 708 221 723 c 0
 202 738 188 745 178 745 c 0
 167 745 157 744 146 741 c 0
 136 739 130 734 127 727 c 1
 158 727 183 714 201 688 c 0
 216 662 223 632 223 598 c 0
 223 571 215 544 199 517 c 0
 182 490 160 477 131 477 c 0
 108 477 86 489 67 512 c 0
 47 535 37 564 37 598 c 0
 37 621 40 644 46 667 c 0
 52 689 61 709 73 727 c 0
 84 745 99 759 117 771 c 0
 134 783 155 788 178 788 c 0
 195 788 211 784 226 775 c 0
 242 766 255 754 264 737 c 1
 283 771 310 788 344 788 c 0
 381 788 411 776 435 751 c 0
 459 725 471 691 471 647 c 0
 471 636 466 617 456 590 c 0
 445 563 431 535 412 506 c 1
 378 444 360 395 360 358 c 2
 360 39 l 1
 481 39 l 2
 498 39 514 47 531 62 c 0
 549 78 557 95 557 113 c 2
 557 772 l 1
 664 772 l 1
 664 113 l 2
186 598 m 0
 186 618 182 638 172 657 c 0
 162 677 147 686 127 686 c 0
 112 686 100 677 90 659 c 0
 81 642 76 621 76 598 c 0
 76 575 82 556 94 542 c 0
 106 527 120 520 135 520 c 0
 149 520 161 527 171 542 c 0
 181 556 186 575 186 598 c 0
EndSplineSet
EndChar
StartChar: uni0E04
Encoding: 100 3588
OldEncoding: 3588
Width: 794
VWidth: 1000
Flags: HW
Fore
338 315 m 0
 369 315 394 329 413 355 c 0
 431 382 440 410 440 438 c 0
 440 474 430 504 411 528 c 0
 391 553 364 565 330 565 c 0
 309 565 290 561 273 554 c 0
 256 546 241 534 228 517 c 0
 215 500 205 478 198 450 c 0
 190 422 186 386 186 344 c 1
 167 375 151 404 136 430 c 0
 122 456 115 485 115 518 c 0
 115 653 197 721 360 721 c 0
 414 721 458 707 495 679 c 0
 531 651 549 613 549 565 c 2
 549 0 l 1
 655 0 l 1
 655 565 l 2
 655 643 625 701 563 739 c 0
 513 772 446 788 362 788 c 0
 267 788 192 767 137 725 c 0
 73 677 41 607 41 514 c 0
 41 496 45 473 54 443 c 0
 63 414 79 375 102 328 c 0
 146 236 168 155 168 84 c 2
 168 61 l 1
 164 0 l 1
 270 0 l 1
 273 16 275 34 276 52 c 0
 278 71 279 89 279 109 c 0
 279 136 278 162 276 188 c 0
 275 214 274 238 274 260 c 0
 274 275 275 290 276 306 c 0
 278 322 280 334 283 342 c 1
 289 337 298 331 307 325 c 0
 317 318 327 315 338 315 c 0
291 438 m 0
 291 464 296 484 307 497 c 0
 318 510 331 516 346 516 c 0
 358 516 370 510 381 497 c 0
 392 484 397 464 397 438 c 0
 397 416 392 397 382 381 c 0
 372 365 358 356 342 356 c 0
 331 356 320 362 308 374 c 0
 297 385 291 407 291 438 c 0
EndSplineSet
EndChar
StartChar: uni0E05
Encoding: 101 3589
OldEncoding: 3589
Width: 811
VWidth: 1000
Flags: HW
Fore
104 328 m 1
 128 283 145 239 156 198 c 0
 167 156 172 118 172 84 c 2
 172 61 l 1
 168 0 l 1
 274 0 l 1
 277 16 279 34 281 52 c 0
 282 71 283 89 283 109 c 0
 283 136 282 162 281 188 c 0
 279 214 279 238 279 260 c 0
 279 275 279 290 281 306 c 0
 282 322 284 334 287 342 c 1
 294 337 302 331 311 325 c 0
 321 318 331 315 342 315 c 0
 373 315 398 329 417 355 c 0
 435 382 444 410 444 438 c 0
 444 474 435 504 415 528 c 0
 395 553 368 565 334 565 c 0
 313 565 295 561 278 554 c 0
 260 546 245 534 232 517 c 0
 219 500 209 478 202 450 c 0
 194 422 190 386 190 344 c 1
 167 384 148 420 133 453 c 0
 118 485 111 520 111 557 c 0
 111 666 155 721 244 721 c 0
 268 721 288 714 303 700 c 0
 318 687 329 664 336 633 c 1
 365 633 l 1
 371 664 383 687 399 700 c 0
 416 714 438 721 465 721 c 0
 496 721 521 709 539 686 c 0
 556 663 565 637 565 608 c 2
 565 0 l 1
 672 0 l 1
 672 604 l 2
 672 662 653 707 614 739 c 0
 576 772 528 788 471 788 c 0
 412 788 372 766 350 721 c 1
 332 766 292 788 229 788 c 0
 199 788 173 782 150 770 c 0
 126 758 106 741 90 720 c 0
 74 699 61 674 53 645 c 0
 45 616 41 586 41 555 c 0
 44 536 46 519 48 505 c 0
 50 490 53 475 57 460 c 0
 61 444 67 426 75 406 c 0
 82 385 92 359 104 328 c 1
295 438 m 0
 295 464 300 484 311 497 c 0
 322 510 335 516 350 516 c 0
 362 516 374 510 385 497 c 0
 396 484 401 464 401 438 c 0
 401 416 396 397 386 381 c 0
 376 365 362 356 346 356 c 0
 335 356 324 362 312 374 c 0
 301 385 295 407 295 438 c 0
EndSplineSet
EndChar
StartChar: uni0E06
Encoding: 102 3590
OldEncoding: 3590
Width: 901
VWidth: 1000
Flags: HW
Fore
762 0 m 1
 647 0 l 1
 624 76 590 137 545 182 c 0
 500 227 449 257 391 270 c 1
 391 113 l 2
 391 33 356 -6 287 -6 c 0
 242 -6 205 9 177 39 c 0
 149 69 135 107 135 154 c 0
 135 197 149 235 177 267 c 0
 205 299 241 319 285 326 c 1
 285 356 l 2
 285 384 289 413 299 443 c 0
 309 474 326 507 352 543 c 0
 377 578 394 606 404 627 c 0
 415 647 420 661 420 668 c 0
 420 694 416 713 408 726 c 0
 399 739 384 745 362 745 c 0
 343 745 328 736 316 716 c 0
 305 696 299 675 299 653 c 1
 270 653 l 1
 270 713 248 745 205 748 c 2
 197 748 l 2
 177 748 162 741 150 729 c 1
 177 729 198 719 213 697 c 0
 228 676 236 647 236 610 c 0
 236 582 227 553 210 525 c 0
 193 497 171 483 143 483 c 0
 119 483 97 495 79 518 c 0
 60 541 51 572 51 610 c 0
 51 634 55 656 62 677 c 0
 70 698 81 717 94 733 c 0
 108 750 124 763 143 773 c 0
 162 783 183 788 205 788 c 0
 246 788 273 770 287 733 c 1
 295 765 322 783 369 788 c 1
 416 788 450 776 469 751 c 0
 488 725 498 691 498 647 c 0
 498 631 493 612 483 591 c 0
 474 570 459 543 440 512 c 0
 421 483 408 455 401 428 c 0
 395 401 391 378 391 358 c 2
 391 328 l 1
 417 328 443 324 469 315 c 0
 495 307 520 296 544 281 c 0
 568 266 589 248 608 228 c 0
 627 209 643 186 655 162 c 1
 655 772 l 1
 762 772 l 1
 762 0 l 1
193 610 m 0
 193 634 188 653 179 668 c 0
 170 683 158 690 143 690 c 0
 128 690 116 683 108 669 c 0
 99 654 94 635 94 610 c 0
 94 586 98 565 106 549 c 0
 115 532 127 524 143 524 c 0
 158 524 170 532 179 549 c 0
 188 565 193 586 193 610 c 0
285 127 m 2
 285 266 l 1
 253 261 230 248 214 227 c 0
 198 207 190 182 190 152 c 0
 190 108 206 86 238 86 c 0
 269 86 285 100 285 127 c 2
EndSplineSet
EndChar
StartChar: uni0E07
Encoding: 103 3591
OldEncoding: 3591
Width: 624
VWidth: 1000
Flags: HW
Fore
485 0 m 1
 379 0 l 1
 0 516 l 1
 25 541 l 1
 379 137 l 1
 379 582 l 1
 375 567 366 555 353 548 c 0
 340 540 329 537 319 537 c 0
 295 537 273 549 254 574 c 0
 235 600 225 627 225 657 c 0
 225 697 236 729 258 753 c 0
 280 777 310 788 348 788 c 0
 392 788 426 776 450 750 c 0
 473 724 485 689 485 645 c 2
 485 0 l 1
375 657 m 2
 375 682 370 703 359 720 c 0
 349 737 336 745 319 745 c 0
 304 745 291 736 281 718 c 0
 270 699 264 679 264 657 c 0
 264 636 270 616 282 600 c 0
 293 584 306 575 319 575 c 0
 333 575 346 583 357 598 c 0
 369 613 375 637 375 670 c 2
 375 657 l 2
EndSplineSet
EndChar
StartChar: uni0E08
Encoding: 104 3592
OldEncoding: 3592
Width: 653
VWidth: 1000
Flags: HW
Fore
514 0 m 1
 412 0 l 1
 412 81 404 153 388 216 c 0
 372 280 356 335 338 383 c 0
 332 395 325 410 316 426 c 0
 308 442 296 456 283 467 c 1
 285 459 287 449 288 437 c 0
 288 426 289 416 289 410 c 0
 289 375 281 347 265 324 c 0
 250 300 228 289 201 289 c 0
 176 289 155 300 138 324 c 0
 121 347 113 375 113 410 c 0
 113 445 123 476 142 503 c 0
 162 529 190 543 225 543 c 0
 303 543 366 484 414 367 c 1
 414 551 l 2
 414 603 396 644 360 675 c 0
 325 706 281 721 229 721 c 0
 147 721 77 679 18 596 c 1
 -6 610 l 1
 58 729 149 788 266 788 c 0
 330 788 388 769 438 731 c 0
 466 711 485 687 497 660 c 0
 508 634 514 605 514 573 c 2
 514 0 l 1
252 410 m 0
 252 436 248 456 240 472 c 0
 231 488 218 496 201 496 c 0
 187 496 175 488 166 472 c 0
 156 456 152 436 152 410 c 0
 152 384 157 363 168 348 c 0
 179 333 190 326 201 326 c 0
 214 326 226 333 237 348 c 0
 247 363 252 384 252 410 c 0
EndSplineSet
EndChar
StartChar: uni0E09
Encoding: 105 3593
OldEncoding: 3593
Width: 937
VWidth: 1000
Flags: HW
Fore
799 156 m 0
 799 48 756 -6 670 -6 c 0
 600 -6 565 33 565 113 c 2
 565 272 l 1
 509 263 459 235 415 188 c 0
 370 142 337 79 313 0 c 1
 203 0 l 1
 203 319 l 1
 196 309 187 300 176 295 c 0
 165 289 154 287 143 287 c 0
 112 287 89 299 74 325 c 0
 59 350 51 376 51 403 c 0
 51 443 61 476 80 502 c 0
 99 528 128 541 168 541 c 0
 212 541 246 527 271 501 c 0
 297 474 309 439 309 395 c 2
 309 164 l 1
 332 210 366 247 411 274 c 0
 455 302 507 320 565 330 c 1
 565 526 l 2
 565 591 546 639 508 672 c 0
 470 705 418 721 354 721 c 0
 246 721 159 677 92 590 c 1
 68 602 l 1
 91 658 129 703 183 737 c 0
 237 771 296 788 360 788 c 0
 446 788 519 771 578 735 c 0
 613 715 638 689 651 657 c 0
 665 626 672 589 672 547 c 2
 672 326 l 1
 756 311 799 254 799 156 c 0
199 406 m 1
 200 431 196 452 187 468 c 0
 179 484 164 492 143 492 c 0
 131 492 119 484 109 470 c 0
 98 456 92 433 92 403 c 0
 92 379 97 358 105 342 c 0
 114 326 128 317 147 317 c 0
 165 317 179 327 188 346 c 0
 198 365 201 390 199 422 c 1
 199 406 l 1
745 154 m 0
 745 185 739 211 726 230 c 0
 713 250 695 264 672 270 c 1
 672 127 l 2
 672 100 682 86 702 86 c 0
 731 86 745 109 745 154 c 0
EndSplineSet
EndChar
StartChar: uni0E0A
Encoding: 106 3594
OldEncoding: 3594
Width: 727
VWidth: 1000
Flags: HW
Fore
588 111 m 2
 588 86 580 62 565 39 c 0
 547 13 525 -0 498 0 c 2
 104 0 l 1
 104 41 l 1
 182 41 l 1
 182 354 l 2
 182 423 212 492 270 563 c 0
 285 582 297 599 306 614 c 0
 315 629 319 644 319 659 c 0
 319 717 287 745 223 745 c 0
 195 745 170 739 150 727 c 1
 170 727 188 713 205 684 c 0
 212 672 216 658 219 642 c 0
 222 626 223 613 223 602 c 0
 223 572 215 544 199 517 c 0
 182 490 160 477 133 477 c 0
 109 477 87 488 69 509 c 0
 50 530 41 561 41 602 c 0
 41 655 58 700 92 735 c 0
 126 771 170 788 223 788 c 0
 326 788 386 742 406 649 c 1
 451 672 473 726 473 811 c 2
 473 836 l 1
 588 836 l 1
 588 811 l 2
 588 755 578 712 558 682 c 0
 538 652 502 631 451 621 c 1
 489 621 522 597 551 551 c 0
 575 517 588 477 588 430 c 2
 588 111 l 2
182 602 m 0
 182 623 178 641 170 658 c 0
 162 675 150 684 133 684 c 0
 121 684 109 676 97 660 c 0
 86 645 80 625 80 602 c 0
 80 573 85 551 94 535 c 0
 104 518 117 510 133 510 c 0
 151 510 163 518 171 536 c 0
 179 553 182 575 182 602 c 0
481 109 m 2
 481 430 l 2
 481 474 473 508 457 532 c 0
 440 557 420 575 395 586 c 1
 395 579 388 566 375 548 c 0
 361 529 343 504 319 471 c 0
 299 441 289 403 289 358 c 2
 289 41 l 1
 408 41 l 2
 425 41 442 48 458 61 c 0
 473 75 481 91 481 109 c 2
EndSplineSet
EndChar
StartChar: uni0E0B
Encoding: 107 3595
OldEncoding: 3595
Width: 802
VWidth: 1000
Flags: HW
Fore
344 788 m 0
 310 788 283 771 264 737 c 1
 255 754 242 766 226 775 c 0
 211 784 195 788 178 788 c 0
 155 788 134 783 117 771 c 0
 99 759 84 745 73 727 c 0
 61 709 52 689 46 667 c 0
 40 644 37 621 37 598 c 0
 37 564 47 535 67 512 c 0
 86 489 108 477 131 477 c 0
 160 477 182 490 199 517 c 0
 215 544 223 571 223 598 c 0
 223 632 216 662 201 688 c 0
 183 714 158 727 127 727 c 1
 130 734 136 739 146 741 c 0
 157 744 167 745 178 745 c 0
 188 745 202 738 221 723 c 0
 240 708 250 685 250 653 c 1
 281 653 l 1
 281 715 302 745 344 745 c 0
 365 745 380 739 389 726 c 0
 399 713 403 696 403 674 c 0
 403 657 397 640 384 623 c 0
 371 605 352 579 328 545 c 0
 302 509 283 476 271 444 c 0
 260 413 254 384 254 356 c 2
 254 39 l 1
 180 39 l 1
 180 0 l 1
 573 0 l 2
 601 0 624 13 643 39 c 0
 650 50 655 61 658 73 c 0
 662 84 664 98 664 113 c 2
 664 434 l 2
 664 497 652 545 629 579 c 0
 606 612 571 629 526 629 c 1
 618 641 664 703 664 815 c 2
 664 838 l 1
 547 838 l 1
 547 815 l 2
 547 770 540 731 527 698 c 0
 514 666 496 649 473 649 c 2
 471 649 l 1
 470 693 457 727 433 752 c 0
 409 776 380 788 344 788 c 0
557 113 m 2
 557 94 549 76 531 61 c 0
 514 46 498 39 483 39 c 2
 360 39 l 1
 360 358 l 2
 360 395 378 444 412 506 c 0
 423 522 432 538 440 554 c 0
 449 570 455 585 461 600 c 1
 494 596 517 579 532 548 c 0
 547 517 556 479 557 434 c 1
 557 113 l 2
186 598 m 0
 186 575 181 556 171 542 c 0
 161 527 149 520 135 520 c 0
 120 520 106 527 94 542 c 0
 82 556 76 575 76 598 c 0
 76 621 81 642 90 659 c 0
 100 677 112 686 127 686 c 0
 147 686 162 677 172 657 c 0
 182 638 186 618 186 598 c 0
EndSplineSet
EndChar
StartChar: uni0E0C
Encoding: 108 3596
OldEncoding: 3596
Width: 1110
VWidth: 1000
Flags: HW
Fore
971 0 m 1
 858 0 l 1
 858 34 854 65 845 92 c 0
 836 119 824 145 809 168 c 0
 794 193 776 214 754 231 c 0
 732 249 706 261 676 266 c 1
 676 109 l 2
 676 29 640 -10 569 -10 c 0
 522 -10 485 4 459 33 c 0
 433 61 420 100 420 147 c 0
 420 193 433 229 459 258 c 0
 485 287 522 308 569 322 c 1
 569 526 l 2
 569 586 549 634 509 669 c 0
 469 703 418 721 358 721 c 0
 263 721 188 692 133 633 c 1
 205 633 263 603 305 545 c 1
 278 537 256 523 240 503 c 0
 223 483 215 457 215 424 c 2
 215 205 l 1
 221 213 228 221 239 227 c 0
 249 234 262 238 279 238 c 0
 311 238 334 224 347 197 c 0
 360 169 367 140 367 109 c 0
 367 28 327 -12 248 -12 c 0
 204 -12 170 0 145 25 c 0
 121 49 109 83 109 127 c 2
 109 395 l 2
 109 480 149 535 229 559 c 1
 194 586 138 600 61 600 c 1
 75 652 115 698 182 737 c 0
 242 771 302 788 360 788 c 0
 455 788 528 768 582 727 c 0
 644 682 676 615 676 526 c 2
 676 326 l 1
 713 320 748 310 780 294 c 0
 813 278 841 256 864 227 c 1
 864 774 l 1
 971 774 l 1
 971 0 l 1
569 143 m 2
 569 266 l 1
 502 255 469 215 469 145 c 0
 469 98 486 72 520 70 c 0
 553 67 569 91 569 143 c 2
332 109 m 0
 332 125 328 144 321 165 c 0
 313 186 298 197 276 197 c 0
 261 197 249 189 240 174 c 0
 230 159 225 136 225 104 c 0
 225 83 230 65 240 51 c 0
 249 38 262 31 279 31 c 0
 298 31 311 39 319 55 c 0
 328 72 332 89 332 109 c 0
EndSplineSet
EndChar
StartChar: uni0E0D
Encoding: 109 3597
OldEncoding: 3597
Width: 1112
VWidth: 1000
Flags: HW
Fore
973 113 m 2
 973 38 943 -0 885 0 c 2
 567 0 l 1
 567 526 l 2
 567 555 562 581 551 605 c 0
 540 629 525 650 506 667 c 0
 487 684 465 697 439 707 c 0
 414 716 387 721 358 721 c 0
 261 721 186 692 133 635 c 1
 203 635 260 605 305 545 c 1
 278 537 256 523 240 503 c 0
 223 483 215 457 215 424 c 2
 215 193 l 1
 233 214 257 225 287 225 c 0
 310 225 330 215 347 195 c 0
 364 174 373 144 373 104 c 0
 373 27 330 -12 246 -12 c 0
 203 -12 170 0 145 25 c 0
 121 49 109 83 109 127 c 2
 109 397 l 2
 109 481 149 535 229 559 c 1
 194 586 138 600 61 600 c 1
 76 655 117 700 182 737 c 0
 238 771 298 788 360 788 c 0
 569 788 674 701 674 526 c 2
 674 39 l 1
 793 39 l 2
 813 39 830 45 845 57 c 0
 859 70 866 88 866 113 c 2
 866 774 l 1
 973 774 l 1
 973 113 l 2
973 -92 m 1
 973 -297 896 -399 743 -399 c 0
 692 -399 648 -382 611 -348 c 0
 575 -314 557 -271 557 -219 c 0
 557 -182 568 -152 591 -128 c 0
 613 -104 642 -92 678 -92 c 0
 705 -92 727 -104 742 -127 c 0
 758 -150 766 -176 766 -205 c 0
 766 -233 758 -259 742 -283 c 0
 727 -306 705 -317 678 -317 c 2
 662 -315 l 1
 687 -345 721 -360 762 -360 c 0
 781 -360 799 -352 815 -336 c 0
 831 -319 845 -302 856 -283 c 0
 866 -266 871 -245 873 -218 c 0
 876 -191 876 -167 874 -143 c 1
 872 -92 l 1
 973 -92 l 1
340 104 m 0
 340 128 335 147 324 162 c 0
 313 177 300 184 287 184 c 0
 273 184 260 177 247 162 c 0
 234 147 227 127 227 102 c 0
 227 83 232 66 242 50 c 0
 251 34 266 27 287 27 c 0
 300 27 313 33 324 47 c 0
 335 61 340 80 340 104 c 0
733 -205 m 0
 733 -186 728 -168 718 -151 c 0
 708 -133 694 -125 678 -125 c 0
 663 -125 649 -134 637 -154 c 0
 631 -162 628 -171 627 -180 c 0
 625 -190 625 -198 625 -205 c 0
 625 -216 626 -226 629 -234 c 0
 631 -243 634 -251 637 -256 c 0
 644 -267 651 -274 657 -279 c 0
 664 -283 671 -285 678 -287 c 0
 697 -287 711 -279 720 -263 c 0
 729 -247 733 -228 733 -205 c 0
EndSplineSet
EndChar
StartChar: uni0E0E
Encoding: 110 3598
OldEncoding: 3598
Width: 876
VWidth: 1000
Flags: HW
Fore
737 -330 m 1
 737 526 l 2
 737 570 729 610 714 645 c 0
 698 681 674 710 643 733 c 0
 616 754 589 768 562 776 c 0
 536 784 499 788 453 788 c 0
 391 788 331 771 272 737 c 0
 240 718 212 697 188 675 c 0
 165 652 150 627 141 600 c 1
 215 600 273 586 315 559 c 1
 238 537 199 483 199 395 c 2
 199 213 l 1
 175 229 156 238 141 238 c 0
 110 238 85 225 68 199 c 0
 50 173 41 143 41 111 c 0
 41 72 52 42 75 20 c 0
 97 -1 128 -12 166 -12 c 0
 218 -12 254 0 274 25 c 0
 295 49 305 87 305 139 c 2
 305 424 l 2
 305 455 314 481 331 502 c 0
 348 522 369 537 395 545 c 1
 352 605 295 635 225 635 c 1
 279 692 354 721 451 721 c 0
 509 721 554 703 585 668 c 0
 615 632 631 585 631 526 c 2
 631 -184 l 1
 567 -139 l 2
 558 -132 549 -127 542 -122 c 0
 534 -117 528 -113 522 -109 c 1
 524 -102 525 -89 527 -70 c 0
 529 -51 532 -27 535 0 c 1
 473 0 l 1
 472 -25 471 -43 470 -55 c 0
 469 -68 468 -77 465 -84 c 1
 443 -76 421 -69 397 -63 c 0
 374 -58 351 -55 328 -55 c 0
 283 -55 242 -68 206 -92 c 0
 170 -117 152 -151 152 -195 c 0
 152 -215 156 -233 166 -248 c 0
 175 -263 188 -275 203 -285 c 0
 218 -294 235 -301 254 -305 c 0
 273 -309 292 -311 311 -311 c 0
 322 -311 333 -311 343 -309 c 0
 353 -308 363 -306 373 -303 c 0
 416 -292 447 -274 466 -248 c 0
 484 -222 496 -201 500 -186 c 1
 524 -207 547 -228 567 -251 c 0
 588 -273 607 -300 625 -330 c 1
 737 -330 l 1
451 -152 m 1
 448 -173 439 -195 423 -215 c 0
 407 -236 389 -249 369 -256 c 0
 348 -263 328 -266 307 -266 c 0
 280 -266 255 -261 232 -250 c 0
 210 -239 199 -220 199 -193 c 0
 199 -168 211 -148 236 -134 c 0
 260 -120 288 -113 319 -113 c 0
 341 -113 364 -115 388 -121 c 0
 412 -126 433 -137 451 -152 c 1
199 111 m 0
 199 83 193 63 180 49 c 0
 168 35 154 29 139 29 c 0
 126 29 113 35 100 49 c 0
 88 63 82 83 82 111 c 0
 82 128 87 146 96 164 c 0
 106 182 120 190 139 190 c 0
 157 190 171 183 182 169 c 0
 193 155 199 135 199 111 c 0
EndSplineSet
EndChar
StartChar: uni0E0F
Encoding: 111 3599
OldEncoding: 3599
Width: 876
VWidth: 1000
Flags: HW
Fore
737 526 m 2
 737 570 729 610 714 645 c 0
 698 681 674 710 643 733 c 0
 616 754 589 768 562 776 c 0
 536 784 499 788 453 788 c 0
 391 788 331 771 272 737 c 0
 240 718 212 697 188 675 c 0
 165 652 150 627 141 600 c 1
 215 600 273 586 315 559 c 1
 238 537 199 483 199 395 c 2
 199 211 l 1
 193 219 185 226 173 230 c 0
 161 235 151 238 141 238 c 0
 110 238 85 225 68 199 c 0
 50 173 41 143 41 111 c 0
 41 72 52 42 75 20 c 0
 97 -1 128 -12 166 -12 c 0
 221 -12 257 1 276 29 c 0
 296 56 305 92 305 137 c 2
 305 422 l 2
 305 453 314 480 331 501 c 0
 348 522 369 537 395 545 c 1
 352 605 295 635 225 635 c 1
 279 692 354 721 451 721 c 0
 509 721 554 703 585 668 c 0
 615 632 631 585 631 526 c 2
 631 -190 l 1
 559 -59 l 1
 498 -197 l 1
 469 -162 444 -137 424 -119 c 1
 427 -100 429 -83 430 -69 c 0
 431 -54 432 -40 432 -25 c 2
 432 0 l 1
 391 0 l 1
 391 -15 391 -30 390 -46 c 0
 389 -62 387 -77 383 -92 c 1
 362 -77 344 -68 328 -65 c 0
 311 -61 291 -59 268 -59 c 0
 230 -59 197 -70 168 -92 c 0
 139 -114 125 -143 125 -180 c 0
 125 -214 139 -242 168 -263 c 0
 197 -284 229 -295 266 -295 c 0
 339 -295 383 -259 399 -188 c 1
 417 -212 430 -235 437 -259 c 0
 445 -283 450 -307 453 -332 c 1
 500 -332 l 1
 561 -188 l 1
 639 -332 l 1
 737 -332 l 1
 737 526 l 2
367 -156 m 1
 350 -221 317 -254 266 -254 c 0
 243 -254 222 -247 203 -232 c 0
 184 -218 174 -201 174 -182 c 0
 174 -136 203 -113 260 -113 c 0
 279 -113 299 -116 318 -123 c 0
 338 -130 354 -141 367 -156 c 1
199 111 m 0
 199 83 193 63 180 49 c 0
 168 35 154 29 139 29 c 0
 126 29 113 35 100 49 c 0
 88 63 82 83 82 111 c 0
 82 128 87 146 96 164 c 0
 106 182 120 190 139 190 c 0
 157 190 171 183 182 169 c 0
 193 155 199 135 199 111 c 0
EndSplineSet
EndChar
StartChar: uni0E10
Encoding: 112 3600
OldEncoding: 3600
Width: 729
VWidth: 1000
Flags: HW
Fore
504 -406 m 1
 504 -168 l 2
 504 -76 461 -31 377 -31 c 0
 345 -31 321 -42 304 -63 c 0
 287 -85 279 -112 279 -143 c 0
 279 -171 286 -196 300 -219 c 0
 314 -242 336 -254 365 -254 c 0
 385 -254 403 -246 420 -229 c 1
 420 -344 l 1
 346 -274 l 1
 283 -354 l 1
 269 -327 258 -309 250 -301 c 1
 283 -240 l 1
 252 -221 l 1
 225 -272 l 1
 199 -252 168 -242 131 -242 c 0
 108 -242 87 -250 69 -265 c 0
 50 -281 41 -300 41 -324 c 0
 41 -347 49 -366 65 -382 c 0
 80 -398 100 -406 123 -406 c 0
 161 -406 197 -383 229 -338 c 1
 248 -369 l 2
 253 -378 256 -390 256 -406 c 1
 299 -406 l 1
 348 -348 l 1
 412 -406 l 1
 504 -406 l 1
414 -143 m 0
 414 -168 409 -187 399 -200 c 0
 390 -213 378 -219 365 -219 c 0
 350 -219 338 -212 330 -197 c 0
 322 -182 317 -164 317 -143 c 0
 317 -119 322 -100 332 -88 c 0
 341 -76 352 -70 365 -70 c 0
 397 -70 414 -94 414 -143 c 0
203 -307 m 1
 188 -330 174 -346 161 -355 c 0
 148 -364 136 -369 125 -369 c 0
 110 -369 99 -364 92 -354 c 0
 85 -345 82 -335 82 -324 c 0
 82 -311 86 -300 95 -291 c 0
 104 -281 116 -276 131 -276 c 0
 154 -276 178 -287 203 -307 c 1
504 403 m 1
 502 474 467 530 397 569 c 0
 341 599 272 614 190 614 c 0
 166 614 148 614 137 613 c 0
 126 613 117 612 111 610 c 1
 128 669 177 698 258 698 c 0
 270 698 286 695 305 689 c 0
 324 683 345 677 369 670 c 0
 393 662 414 656 432 652 c 0
 450 649 464 647 475 647 c 0
 552 647 602 691 627 778 c 1
 584 778 l 1
 574 758 564 741 552 727 c 0
 540 713 523 707 500 707 c 0
 493 707 484 709 474 714 c 0
 464 719 453 724 441 730 c 0
 430 736 418 742 407 749 c 0
 395 755 385 760 377 764 c 0
 358 773 339 780 319 783 c 0
 300 787 281 788 262 788 c 0
 233 788 207 783 182 771 c 0
 158 759 136 744 116 724 c 0
 96 704 80 681 68 655 c 0
 55 629 47 601 43 571 c 1
 137 571 211 564 264 549 c 0
 350 526 395 477 397 401 c 1
 397 330 l 1
 382 369 360 399 331 420 c 0
 301 440 269 451 233 451 c 0
 195 451 167 439 148 417 c 0
 130 394 121 366 121 332 c 0
 121 304 129 279 146 254 c 0
 163 229 184 217 209 217 c 0
 236 217 258 228 274 251 c 0
 291 273 299 299 299 328 c 0
 299 350 296 367 289 381 c 1
 322 352 348 306 368 243 c 0
 387 179 397 98 397 0 c 1
 504 0 l 1
 504 403 l 1
260 332 m 0
 260 307 255 288 245 275 c 0
 234 262 223 256 209 256 c 0
 194 256 182 262 173 275 c 0
 164 288 160 307 160 332 c 0
 160 352 164 369 173 383 c 0
 182 397 194 403 209 403 c 0
 225 403 238 396 247 380 c 0
 256 364 260 348 260 332 c 0
EndSplineSet
EndChar
StartChar: uni0E11
Encoding: 113 3601
OldEncoding: 3601
Width: 937
VWidth: 1000
Flags: HW
Fore
799 0 m 1
 692 0 l 1
 692 641 l 2
 692 660 687 674 678 683 c 0
 668 692 657 696 645 696 c 0
 631 696 619 694 607 689 c 0
 596 684 586 672 580 653 c 2
 352 0 l 1
 242 0 l 1
 242 356 l 2
 242 384 247 412 257 441 c 0
 267 471 284 503 307 539 c 0
 355 606 379 649 379 668 c 0
 379 720 360 745 322 745 c 0
 302 745 287 735 275 715 c 0
 264 694 258 674 258 655 c 1
 229 655 l 1
 229 717 208 748 166 748 c 0
 144 748 127 741 115 729 c 1
 141 729 161 719 175 697 c 0
 189 676 197 647 197 610 c 0
 197 571 188 540 170 517 c 0
 152 495 130 483 102 483 c 0
 78 483 56 495 38 517 c 0
 19 540 10 571 10 610 c 0
 10 634 14 656 23 677 c 0
 31 698 42 717 55 733 c 0
 69 750 85 763 103 773 c 0
 122 783 142 788 164 788 c 0
 199 788 227 770 246 733 c 1
 255 763 283 782 328 788 c 1
 410 788 451 748 451 666 c 0
 451 646 447 628 439 609 c 0
 432 591 424 571 416 551 c 0
 394 507 377 469 366 436 c 0
 354 403 348 378 348 358 c 2
 348 131 l 1
 541 668 l 2
 569 748 616 788 680 788 c 0
 713 788 741 776 764 752 c 0
 787 727 799 698 799 666 c 2
 799 0 l 1
154 610 m 0
 154 639 149 659 139 672 c 0
 130 684 117 690 102 690 c 0
 91 690 80 683 69 668 c 0
 57 653 51 634 51 610 c 0
 51 579 56 557 66 544 c 0
 75 531 87 524 102 524 c 0
 116 524 128 532 138 549 c 0
 148 565 154 586 154 610 c 0
EndSplineSet
EndChar
StartChar: uni0E12
Encoding: 114 3602
OldEncoding: 3602
Width: 1091
VWidth: 1000
Flags: HW
Fore
952 0 m 1
 840 0 l 1
 840 79 824 142 792 188 c 0
 759 235 715 266 657 281 c 1
 657 109 l 2
 657 29 623 -10 555 -10 c 0
 458 -10 410 48 410 164 c 0
 410 253 457 310 553 336 c 1
 553 608 l 2
 553 648 544 677 526 696 c 0
 509 715 486 725 459 725 c 0
 403 725 371 694 362 631 c 1
 332 631 l 1
 324 694 291 725 236 725 c 0
 196 725 166 700 145 649 c 0
 130 608 123 566 123 522 c 0
 123 495 128 467 137 437 c 0
 147 408 159 377 174 344 c 2
 246 195 l 1
 328 307 l 1
 296 307 271 321 251 347 c 0
 231 374 221 402 221 432 c 0
 221 466 231 496 250 520 c 0
 269 545 294 557 326 557 c 0
 365 557 394 544 411 517 c 0
 428 490 436 460 436 426 c 0
 436 404 428 376 412 341 c 0
 395 306 367 255 328 186 c 0
 291 121 272 59 272 0 c 1
 145 0 l 1
 145 31 139 74 127 127 c 0
 115 180 97 246 74 324 c 0
 52 397 41 460 41 512 c 0
 41 579 54 639 80 692 c 0
 113 756 160 788 221 788 c 0
 272 788 314 763 348 713 c 1
 374 763 419 788 483 788 c 0
 539 788 583 772 613 739 c 0
 644 707 659 662 659 606 c 2
 659 340 l 1
 698 333 733 322 765 307 c 0
 797 292 824 274 846 254 c 1
 846 774 l 1
 952 774 l 1
 952 0 l 1
373 432 m 0
 373 451 368 469 358 486 c 0
 349 503 335 512 317 512 c 0
 302 512 290 506 280 493 c 0
 269 480 264 459 264 432 c 0
 264 406 269 386 280 372 c 0
 290 357 302 350 317 350 c 0
 332 350 345 357 356 372 c 0
 367 386 373 406 373 432 c 0
553 113 m 2
 553 281 l 1
 523 272 499 258 482 238 c 0
 465 217 457 190 457 156 c 0
 457 128 461 106 470 89 c 0
 479 72 493 63 512 63 c 0
 539 63 553 80 553 113 c 2
EndSplineSet
EndChar
StartChar: uni0E13
Encoding: 115 3603
OldEncoding: 3603
Width: 1191
VWidth: 1000
Flags: HW
Fore
1100 164 m 0
 1100 105 1086 61 1059 33 c 0
 1032 4 997 -10 954 -10 c 0
 918 -10 891 -0 874 19 c 0
 858 39 850 69 850 109 c 2
 850 281 l 1
 788 266 742 229 711 172 c 0
 686 123 674 66 674 0 c 1
 563 0 l 1
 563 526 l 2
 563 584 544 630 505 667 c 0
 466 703 418 721 360 721 c 0
 264 721 188 692 135 633 c 1
 206 633 263 603 305 545 c 1
 278 535 256 521 240 501 c 0
 223 481 215 455 215 424 c 2
 215 211 l 1
 221 221 229 227 241 231 c 0
 252 236 266 238 281 238 c 0
 311 238 335 224 352 198 c 0
 370 171 379 143 379 113 c 0
 379 29 336 -12 250 -12 c 0
 202 -12 167 0 143 25 c 0
 120 49 109 83 109 127 c 2
 109 395 l 2
 109 480 150 535 231 559 c 1
 196 586 139 600 61 600 c 1
 78 653 118 699 182 737 c 0
 242 771 302 788 362 788 c 0
 567 788 670 701 670 526 c 2
 670 233 l 1
 690 261 716 283 749 301 c 0
 781 319 814 332 850 340 c 1
 850 774 l 1
 956 774 l 1
 956 336 l 1
 996 324 1030 303 1058 274 c 0
 1086 246 1100 209 1100 164 c 0
1053 156 m 0
 1053 191 1042 219 1022 240 c 0
 1001 260 980 274 956 281 c 1
 956 106 l 2
 956 91 960 81 967 74 c 0
 973 67 982 63 991 63 c 0
 1005 63 1019 71 1032 86 c 0
 1046 101 1053 124 1053 156 c 0
342 113 m 0
 342 130 337 148 326 166 c 0
 315 184 300 193 281 193 c 0
 266 193 252 186 239 173 c 0
 226 160 219 140 219 113 c 0
 219 89 225 70 238 54 c 0
 250 39 264 31 281 31 c 0
 296 31 310 38 323 51 c 0
 336 65 342 85 342 113 c 0
EndSplineSet
EndChar
StartChar: uni0E14
Encoding: 116 3604
OldEncoding: 3604
Width: 792
VWidth: 1000
Flags: HW
Fore
653 0 m 1
 547 0 l 1
 547 541 l 2
 547 601 528 650 489 689 c 0
 451 728 402 748 342 748 c 0
 272 748 219 727 181 687 c 0
 144 647 125 592 125 522 c 0
 125 499 128 472 135 442 c 0
 142 412 154 379 172 342 c 2
 242 193 l 1
 319 336 l 1
 288 336 263 349 245 376 c 0
 226 402 217 430 217 459 c 0
 217 494 227 524 247 549 c 0
 267 573 294 586 328 586 c 0
 350 586 368 581 382 570 c 0
 396 560 408 547 417 532 c 0
 426 517 431 501 433 483 c 0
 435 466 435 449 432 434 c 0
 429 422 421 397 407 359 c 0
 392 322 365 266 326 190 c 0
 307 154 293 119 284 88 c 0
 275 57 270 27 270 0 c 1
 164 0 l 1
 164 30 158 66 147 109 c 0
 137 151 122 200 102 256 c 0
 83 313 68 361 57 400 c 0
 46 439 41 470 41 494 c 0
 41 585 69 657 124 710 c 0
 179 762 253 788 346 788 c 0
 427 788 496 769 555 729 c 0
 621 684 653 621 653 541 c 2
 653 0 l 1
367 459 m 0
 367 485 361 504 350 517 c 0
 339 530 326 537 311 537 c 0
 299 537 287 530 276 517 c 0
 266 504 260 485 260 459 c 0
 260 437 265 418 275 401 c 0
 286 385 299 377 315 377 c 0
 326 377 338 383 349 394 c 0
 361 406 367 427 367 459 c 0
EndSplineSet
EndChar
StartChar: uni0E15
Encoding: 117 3605
OldEncoding: 3605
Width: 808
VWidth: 1000
Flags: HW
Fore
670 0 m 1
 670 586 l 2
 670 646 655 695 627 732 c 0
 598 770 555 788 498 788 c 0
 433 788 389 763 365 713 c 1
 330 763 285 788 229 788 c 0
 198 788 170 781 145 766 c 0
 121 751 100 728 84 696 c 0
 70 669 60 641 52 612 c 0
 45 584 41 552 41 518 c 0
 41 491 46 461 56 428 c 0
 67 395 77 360 88 322 c 0
 111 244 131 179 146 126 c 0
 162 73 170 31 170 0 c 1
 276 0 l 1
 276 59 294 122 330 190 c 0
 369 266 397 323 413 364 c 0
 428 404 436 430 436 442 c 0
 436 459 435 475 431 493 c 0
 428 510 422 525 415 539 c 0
 407 552 397 564 384 572 c 0
 371 581 354 586 332 586 c 0
 298 586 271 573 251 549 c 0
 231 524 221 494 221 459 c 0
 221 430 230 402 249 376 c 0
 267 349 292 336 324 336 c 1
 246 193 l 1
 240 212 231 234 217 260 c 0
 203 286 188 319 172 358 c 0
 158 390 147 419 138 446 c 0
 129 474 125 499 125 522 c 0
 125 574 132 617 147 651 c 0
 168 700 199 725 242 725 c 0
 304 725 340 694 348 633 c 1
 377 633 l 1
 389 694 421 725 471 725 c 0
 498 725 521 714 538 691 c 0
 555 669 563 634 563 588 c 2
 563 0 l 1
 670 0 l 1
371 459 m 0
 371 427 365 406 353 394 c 0
 342 383 330 377 319 377 c 0
 303 377 290 385 280 401 c 0
 269 418 264 437 264 459 c 0
 264 485 270 504 281 517 c 0
 291 530 303 537 315 537 c 0
 330 537 343 530 354 517 c 0
 365 504 371 485 371 459 c 0
EndSplineSet
EndChar
StartChar: uni0E16
Encoding: 118 3606
OldEncoding: 3606
Width: 817
VWidth: 1000
Flags: HW
Fore
678 0 m 1
 678 526 l 2
 678 615 646 682 582 727 c 0
 527 768 454 788 362 788 c 0
 301 788 241 771 182 737 c 0
 150 718 122 697 98 675 c 0
 75 652 59 627 51 600 c 1
 125 600 183 586 225 559 c 1
 149 537 111 483 111 395 c 2
 111 127 l 2
 111 83 122 49 145 25 c 0
 169 0 204 -12 252 -12 c 0
 338 -12 381 29 381 113 c 0
 381 145 372 174 354 200 c 0
 337 225 313 238 285 238 c 0
 270 238 256 235 244 230 c 0
 231 226 223 219 217 211 c 1
 217 424 l 2
 217 455 225 481 242 502 c 0
 258 522 279 537 305 545 c 1
 261 605 205 635 135 635 c 1
 188 692 264 721 360 721 c 0
 419 721 469 703 509 668 c 0
 549 632 569 585 569 526 c 2
 569 0 l 1
 678 0 l 1
344 113 m 0
 344 85 337 65 324 51 c 0
 310 38 296 31 281 31 c 0
 264 31 250 39 239 54 c 0
 227 70 221 89 221 113 c 0
 221 140 228 160 242 173 c 0
 255 186 270 193 285 193 c 0
 302 193 317 184 328 166 c 0
 339 148 344 130 344 113 c 0
EndSplineSet
EndChar
StartChar: uni0E17
Encoding: 119 3607
OldEncoding: 3607
Width: 876
VWidth: 1000
Flags: HW
Fore
737 0 m 1
 631 0 l 1
 631 639 l 2
 631 659 625 675 614 686 c 0
 603 697 590 702 573 702 c 0
 554 702 539 695 526 680 c 0
 514 665 500 634 485 586 c 2
 305 0 l 1
 190 0 l 1
 190 559 l 1
 175 543 155 535 129 535 c 0
 102 535 79 546 59 568 c 0
 40 591 31 619 31 653 c 0
 31 692 42 724 63 750 c 0
 85 776 119 788 164 788 c 0
 212 788 246 776 266 750 c 0
 287 724 297 689 297 645 c 2
 297 172 l 1
 297 172 300 181 306 199 c 0
 312 216 320 240 330 268 c 0
 339 297 350 329 360 365 c 0
 371 400 383 435 394 470 c 0
 406 505 417 538 428 569 c 0
 439 601 448 627 455 647 c 0
 471 695 494 730 522 754 c 0
 551 777 581 788 612 788 c 0
 652 788 683 777 705 753 c 0
 726 729 737 697 737 657 c 2
 737 0 l 1
188 659 m 0
 188 683 183 702 172 717 c 0
 161 732 147 739 131 739 c 0
 120 739 108 733 93 719 c 0
 79 705 72 685 72 657 c 0
 72 641 76 623 84 603 c 0
 92 583 107 573 129 573 c 0
 145 573 159 581 171 595 c 0
 183 609 188 631 188 659 c 0
EndSplineSet
EndChar
StartChar: uni0E18
Encoding: 120 3608
OldEncoding: 3608
Width: 737
VWidth: 1000
Flags: HW
Fore
541 401 m 2
 541 438 530 471 510 499 c 0
 489 527 461 550 426 569 c 0
 397 584 364 596 326 603 c 0
 287 611 248 614 209 614 c 2
 174 614 l 1
 129 610 l 1
 147 669 196 698 276 698 c 0
 300 698 336 691 385 676 c 0
 434 659 470 651 492 651 c 0
 569 651 621 694 645 778 c 1
 602 778 l 1
 584 737 554 717 510 717 c 1
 395 764 l 2
 358 780 320 788 281 788 c 0
 252 788 225 783 201 771 c 0
 176 759 154 744 134 724 c 0
 114 704 98 681 86 655 c 0
 74 629 66 601 61 571 c 1
 74 571 85 571 96 571 c 0
 109 571 120 571 131 569 c 1
 131 39 l 1
 78 39 l 1
 78 0 l 1
 451 0 l 2
 511 0 541 38 541 113 c 2
 541 401 l 2
434 113 m 2
 434 88 427 70 413 57 c 0
 398 45 380 39 358 39 c 2
 238 39 l 1
 238 557 l 1
 274 549 l 2
 317 535 354 516 386 492 c 0
 418 467 434 436 434 399 c 2
 434 113 l 2
EndSplineSet
EndChar
StartChar: uni0E19
Encoding: 121 3609
OldEncoding: 3609
Width: 935
VWidth: 1000
Flags: HW
Fore
844 164 m 0
 844 208 828 245 798 275 c 0
 767 306 731 326 690 334 c 1
 690 772 l 1
 584 772 l 1
 584 338 l 1
 528 330 474 312 422 285 c 0
 370 257 332 218 307 168 c 1
 307 645 l 2
 307 689 297 724 276 750 c 0
 256 776 222 788 174 788 c 0
 129 788 96 776 74 750 c 0
 52 724 41 692 41 653 c 0
 41 619 51 591 70 568 c 0
 89 546 112 535 139 535 c 0
 165 535 186 543 201 559 c 1
 201 0 l 1
 307 0 l 1
 333 82 372 146 424 193 c 0
 476 239 529 268 584 279 c 1
 584 109 l 2
 584 96 586 83 590 70 c 0
 594 56 600 43 609 32 c 0
 618 20 629 10 642 2 c 0
 655 -6 670 -10 688 -10 c 0
 737 -10 776 4 803 33 c 0
 830 61 844 105 844 164 c 0
797 154 m 0
 797 122 791 99 778 85 c 0
 766 71 751 63 733 63 c 0
 721 63 711 68 702 76 c 0
 694 84 690 96 690 113 c 2
 690 279 l 1
 720 270 745 256 766 234 c 0
 786 213 797 186 797 154 c 0
199 659 m 0
 199 631 193 609 181 595 c 0
 170 581 156 573 139 573 c 0
 117 573 102 583 94 603 c 0
 86 623 82 641 82 657 c 0
 82 685 89 705 103 719 c 0
 118 733 130 739 141 739 c 0
 158 739 171 732 182 717 c 0
 193 702 199 683 199 659 c 0
EndSplineSet
EndChar
StartChar: uni0E1A
Encoding: 122 3610
OldEncoding: 3610
Width: 845
VWidth: 1000
Flags: HW
Fore
707 113 m 2
 707 772 l 1
 600 772 l 1
 600 113 l 2
 600 88 593 70 579 57 c 0
 564 45 547 39 526 39 c 2
 297 39 l 1
 297 645 l 2
 297 689 287 724 266 750 c 0
 246 776 212 788 164 788 c 0
 119 788 85 776 63 750 c 0
 42 724 31 692 31 653 c 0
 31 619 40 591 59 568 c 0
 79 546 102 535 129 535 c 0
 155 535 175 543 190 559 c 1
 190 39 l 1
 117 39 l 1
 117 0 l 1
 616 0 l 2
 677 0 707 38 707 113 c 2
188 659 m 0
 188 631 183 609 171 595 c 0
 159 581 145 573 129 573 c 0
 107 573 92 583 84 603 c 0
 76 623 72 641 72 657 c 0
 72 685 79 705 93 719 c 0
 108 733 120 739 131 739 c 0
 147 739 161 732 172 717 c 0
 183 702 188 683 188 659 c 0
EndSplineSet
EndChar
StartChar: uni0E1B
Encoding: 123 3611
OldEncoding: 3611
Width: 845
VWidth: 1000
Flags: HW
Fore
707 113 m 2
 707 1110 l 1
 600 1110 l 1
 600 113 l 2
 600 88 593 70 579 57 c 0
 564 45 547 39 526 39 c 2
 297 39 l 1
 297 645 l 2
 297 689 287 724 266 750 c 0
 246 776 212 788 164 788 c 0
 119 788 85 776 63 750 c 0
 42 724 31 692 31 653 c 0
 31 619 40 591 59 568 c 0
 79 546 102 535 129 535 c 0
 155 535 175 543 190 559 c 1
 190 39 l 1
 117 39 l 1
 117 0 l 1
 616 0 l 2
 677 0 707 38 707 113 c 2
188 659 m 0
 188 631 183 609 171 595 c 0
 159 581 145 573 129 573 c 0
 107 573 92 583 84 603 c 0
 76 623 72 641 72 657 c 0
 72 685 79 705 93 719 c 0
 108 733 120 739 131 739 c 0
 147 739 161 732 172 717 c 0
 183 702 188 683 188 659 c 0
EndSplineSet
EndChar
StartChar: uni0E1C
Encoding: 124 3612
OldEncoding: 3612
Width: 831
VWidth: 1000
Flags: HW
Fore
692 0 m 1
 692 772 l 1
 586 772 l 1
 586 109 l 1
 373 457 l 1
 168 98 l 1
 168 559 l 1
 176 550 186 543 198 540 c 0
 209 536 221 535 233 535 c 0
 261 535 284 546 304 568 c 0
 324 591 334 619 334 653 c 0
 334 692 323 724 301 750 c 0
 279 776 246 788 201 788 c 0
 153 788 118 776 95 750 c 0
 73 724 61 689 61 645 c 2
 61 0 l 1
 178 0 l 1
 373 350 l 1
 590 0 l 1
 692 0 l 1
170 659 m 0
 170 683 176 702 188 717 c 0
 201 732 215 739 231 739 c 0
 242 739 255 733 270 719 c 0
 285 705 293 685 293 657 c 0
 293 641 288 623 280 603 c 0
 271 583 255 573 233 573 c 0
 217 573 202 581 189 595 c 0
 176 609 170 631 170 659 c 0
EndSplineSet
EndChar
StartChar: uni0E1D
Encoding: 125 3613
OldEncoding: 3613
Width: 831
VWidth: 1000
Flags: HW
Fore
692 0 m 1
 692 1110 l 1
 586 1110 l 1
 586 109 l 1
 373 457 l 1
 168 98 l 1
 168 559 l 1
 176 550 186 543 198 540 c 0
 209 536 221 535 233 535 c 0
 261 535 284 546 304 568 c 0
 324 591 334 619 334 653 c 0
 334 692 323 724 301 750 c 0
 279 776 246 788 201 788 c 0
 153 788 118 776 95 750 c 0
 73 724 61 689 61 645 c 2
 61 0 l 1
 178 0 l 1
 373 350 l 1
 590 0 l 1
 692 0 l 1
170 659 m 0
 170 683 176 702 188 717 c 0
 201 732 215 739 231 739 c 0
 242 739 255 733 270 719 c 0
 285 705 293 685 293 657 c 0
 293 641 288 623 280 603 c 0
 271 583 255 573 233 573 c 0
 217 573 202 581 189 595 c 0
 176 609 170 631 170 659 c 0
EndSplineSet
EndChar
StartChar: uni0E1E
Encoding: 126 3614
OldEncoding: 3614
Width: 913
VWidth: 1000
Flags: HW
Fore
297 645 m 2
 297 689 287 724 266 750 c 0
 246 776 212 788 164 788 c 0
 119 788 85 776 63 750 c 0
 42 724 31 692 31 653 c 0
 31 619 40 591 59 568 c 0
 79 546 102 535 129 535 c 0
 155 535 175 543 190 559 c 1
 190 0 l 1
 311 0 l 1
 483 584 l 1
 651 0 l 1
 774 0 l 1
 774 772 l 1
 668 772 l 1
 668 137 l 1
 483 772 l 1
 297 137 l 1
 297 645 l 2
188 659 m 0
 188 631 183 609 171 595 c 0
 159 581 145 573 129 573 c 0
 107 573 92 583 84 603 c 0
 76 623 72 641 72 657 c 0
 72 685 79 705 93 719 c 0
 108 733 120 739 131 739 c 0
 147 739 161 732 172 717 c 0
 183 702 188 683 188 659 c 0
EndSplineSet
EndChar
StartChar: uni0E1F
Encoding: 127 3615
OldEncoding: 3615
Width: 913
VWidth: 1000
Flags: HW
Fore
297 645 m 2
 297 689 287 724 266 750 c 0
 246 776 212 788 164 788 c 0
 119 788 85 776 63 750 c 0
 42 724 31 692 31 653 c 0
 31 619 40 591 59 568 c 0
 79 546 102 535 129 535 c 0
 155 535 175 543 190 559 c 1
 190 0 l 1
 311 0 l 1
 483 584 l 1
 651 0 l 1
 774 0 l 1
 774 1110 l 1
 668 1110 l 1
 668 137 l 1
 483 772 l 1
 297 137 l 1
 297 645 l 2
188 659 m 0
 188 631 183 609 171 595 c 0
 159 581 145 573 129 573 c 0
 107 573 92 583 84 603 c 0
 76 623 72 641 72 657 c 0
 72 685 79 705 93 719 c 0
 108 733 120 739 131 739 c 0
 147 739 161 732 172 717 c 0
 183 702 188 683 188 659 c 0
EndSplineSet
EndChar
StartChar: uni0E20
Encoding: 128 3616
OldEncoding: 3616
Width: 872
VWidth: 1000
Flags: HW
Fore
733 0 m 1
 733 526 l 2
 733 618 702 686 639 731 c 0
 612 752 585 766 558 775 c 0
 531 784 495 788 449 788 c 0
 387 788 327 771 268 737 c 0
 236 718 210 698 193 678 c 0
 175 657 156 631 137 600 c 1
 211 600 269 586 311 559 c 1
 233 537 195 483 195 395 c 2
 195 211 l 1
 189 221 181 227 169 231 c 0
 157 236 144 238 129 238 c 0
 100 238 78 225 61 200 c 0
 45 174 37 145 37 113 c 0
 37 29 80 -12 166 -12 c 0
 214 -12 248 0 269 25 c 0
 290 49 301 83 301 127 c 2
 301 424 l 2
 301 455 310 481 327 502 c 0
 344 522 365 537 391 545 c 1
 347 605 291 635 221 635 c 1
 274 692 350 721 446 721 c 0
 505 721 550 703 581 668 c 0
 611 632 627 585 627 526 c 2
 627 0 l 1
 733 0 l 1
74 113 m 0
 74 130 79 148 88 166 c 0
 98 184 111 193 129 193 c 0
 144 193 158 186 171 173 c 0
 184 160 190 140 190 113 c 0
 190 89 185 70 174 54 c 0
 163 39 150 31 133 31 c 0
 118 31 104 38 92 51 c 0
 80 65 74 85 74 113 c 0
EndSplineSet
EndChar
StartChar: uni0E21
Encoding: 129 3617
OldEncoding: 3617
Width: 839
VWidth: 1000
Flags: HW
Fore
700 0 m 1
 700 772 l 1
 594 772 l 1
 594 164 l 1
 564 216 525 256 477 285 c 0
 429 313 380 330 328 336 c 1
 328 645 l 2
 328 689 316 724 294 750 c 0
 271 776 238 788 195 788 c 0
 150 788 116 776 94 750 c 0
 72 724 61 692 61 653 c 0
 61 619 71 591 90 568 c 0
 109 546 132 535 160 535 c 0
 186 535 206 543 221 559 c 1
 221 334 l 1
 124 309 76 248 76 150 c 0
 76 103 89 65 117 35 c 0
 144 5 180 -10 225 -10 c 0
 294 -10 328 29 328 109 c 2
 328 279 l 1
 384 268 435 239 481 193 c 0
 528 146 563 82 588 0 c 1
 700 0 l 1
221 133 m 2
 221 92 205 72 174 72 c 0
 143 72 127 96 127 145 c 0
 127 219 158 264 221 279 c 1
 221 133 l 2
219 659 m 0
 219 631 213 609 202 595 c 0
 190 581 176 573 160 573 c 0
 138 573 123 583 115 603 c 0
 106 623 102 641 102 657 c 0
 102 685 110 705 124 719 c 0
 138 733 151 739 162 739 c 0
 178 739 192 732 203 717 c 0
 214 702 219 683 219 659 c 0
EndSplineSet
EndChar
StartChar: uni0E22
Encoding: 130 3618
OldEncoding: 3618
Width: 759
VWidth: 1000
Flags: HW
Fore
621 158 m 2
 621 772 l 1
 514 772 l 1
 514 158 l 2
 514 118 497 87 462 65 c 0
 427 42 389 31 348 31 c 0
 309 31 273 42 241 65 c 0
 209 87 193 118 193 158 c 2
 193 254 l 2
 193 341 232 391 311 403 c 0
 325 408 332 413 332 420 c 0
 330 429 323 434 309 434 c 0
 278 434 250 446 225 470 c 0
 201 494 188 522 188 553 c 2
 188 559 l 1
 203 543 224 535 250 535 c 0
 277 535 300 546 319 568 c 0
 339 591 348 619 348 653 c 0
 348 692 338 724 318 750 c 0
 299 776 266 788 221 788 c 0
 173 788 138 776 116 750 c 0
 93 724 82 689 82 645 c 2
 82 567 l 2
 82 529 92 497 113 472 c 0
 133 447 168 427 217 414 c 1
 171 399 137 378 117 351 c 0
 96 325 86 291 86 250 c 2
 86 158 l 2
 86 129 93 104 106 82 c 0
 120 60 143 41 176 25 c 0
 201 14 228 5 257 -2 c 0
 286 -9 317 -12 350 -12 c 0
 382 -12 411 -9 439 -2 c 0
 467 5 495 14 522 25 c 0
 588 57 621 102 621 158 c 2
190 659 m 0
 190 683 196 702 207 717 c 0
 218 732 231 739 248 739 c 0
 259 739 271 733 286 719 c 0
 300 705 307 685 307 657 c 0
 307 641 303 623 295 603 c 0
 287 583 272 573 250 573 c 0
 233 573 219 581 208 595 c 0
 196 609 190 631 190 659 c 0
EndSplineSet
EndChar
StartChar: uni0E23
Encoding: 131 3619
OldEncoding: 3619
Width: 645
VWidth: 1000
Flags: HW
Fore
356 203 m 1
 351 212 342 219 331 223 c 0
 319 227 306 229 291 229 c 0
 262 229 240 217 223 191 c 0
 207 166 199 137 199 104 c 0
 199 21 242 -20 328 -20 c 0
 375 -20 410 -8 431 16 c 0
 452 41 463 75 463 119 c 2
 463 401 l 2
 463 438 456 471 442 499 c 0
 429 527 404 550 369 569 c 0
 340 584 310 596 280 603 c 0
 249 611 214 614 174 614 c 2
 139 614 l 1
 94 610 l 1
 104 634 119 654 140 672 c 0
 161 689 192 698 231 698 c 0
 244 698 258 696 274 692 c 0
 291 688 311 683 334 676 c 0
 358 668 379 662 394 657 c 0
 410 653 423 651 434 651 c 0
 509 651 559 694 584 778 c 1
 541 778 l 1
 523 737 494 717 453 717 c 1
 344 764 l 2
 307 780 270 788 233 788 c 0
 205 788 179 782 155 770 c 0
 131 758 110 741 91 719 c 0
 73 697 57 672 45 644 c 0
 33 616 25 586 20 553 c 1
 68 553 108 552 140 551 c 0
 172 550 201 545 227 539 c 0
 270 525 302 508 324 486 c 0
 345 465 356 436 356 399 c 2
 356 203 l 1
236 104 m 0
 236 122 240 140 250 158 c 0
 259 175 273 184 291 184 c 0
 306 184 320 178 333 165 c 0
 346 152 352 132 352 104 c 0
 352 81 347 62 336 46 c 0
 325 30 311 23 295 23 c 0
 280 23 266 29 254 43 c 0
 242 57 236 77 236 104 c 0
EndSplineSet
EndChar
StartChar: uni0E24
Encoding: 132 3620
OldEncoding: 3620
Width: 827
VWidth: 1000
Flags: HW
Fore
688 -328 m 1
 688 526 l 2
 688 615 656 682 592 727 c 0
 537 768 464 788 373 788 c 0
 311 788 251 771 193 737 c 0
 160 718 132 697 109 675 c 0
 85 652 70 627 61 600 c 1
 135 600 193 586 236 559 c 1
 158 537 119 483 119 395 c 2
 119 127 l 2
 119 83 129 49 151 25 c 0
 172 0 206 -12 254 -12 c 0
 340 -12 383 29 383 113 c 0
 383 145 375 174 358 200 c 0
 342 225 319 238 291 238 c 0
 276 238 262 236 251 231 c 0
 239 227 231 221 225 211 c 1
 225 424 l 2
 225 455 234 481 251 502 c 0
 268 522 289 537 315 545 c 1
 272 605 215 635 145 635 c 1
 199 692 274 721 371 721 c 0
 429 721 479 703 520 668 c 0
 561 632 582 585 582 526 c 2
 582 -328 l 1
 688 -328 l 1
346 113 m 0
 346 85 340 65 328 51 c 0
 315 38 302 31 287 31 c 0
 270 31 257 39 246 54 c 0
 235 70 229 89 229 113 c 0
 229 140 236 160 249 173 c 0
 262 186 276 193 291 193 c 0
 309 193 322 184 332 166 c 0
 341 148 346 130 346 113 c 0
EndSplineSet
EndChar
StartChar: uni0E25
Encoding: 133 3621
OldEncoding: 3621
Width: 778
VWidth: 1000
Flags: HW
Fore
639 0 m 1
 639 547 l 2
 639 633 609 696 549 735 c 0
 500 771 431 788 342 788 c 0
 212 788 119 726 61 602 c 1
 88 592 l 1
 150 678 232 721 336 721 c 0
 399 721 447 706 481 677 c 0
 515 648 532 603 532 543 c 2
 532 438 l 1
 507 474 475 500 438 518 c 0
 401 536 361 545 317 545 c 0
 253 545 203 527 167 492 c 0
 131 456 113 406 113 342 c 2
 113 131 l 2
 113 87 123 53 144 29 c 0
 166 4 200 -8 248 -8 c 0
 334 -8 377 33 377 117 c 0
 377 147 368 175 351 202 c 0
 334 228 311 242 281 242 c 0
 249 242 229 233 219 215 c 1
 219 352 l 2
 219 396 230 429 251 451 c 0
 272 472 302 483 342 483 c 0
 388 483 428 469 462 441 c 0
 495 413 519 371 532 313 c 1
 532 0 l 1
 639 0 l 1
340 117 m 0
 340 89 334 69 322 55 c 0
 309 42 296 35 281 35 c 0
 264 35 251 43 240 58 c 0
 229 74 223 94 223 117 c 0
 223 144 229 164 241 177 c 0
 252 190 266 197 281 197 c 0
 300 197 314 188 325 170 c 0
 335 152 340 134 340 117 c 0
EndSplineSet
EndChar
StartChar: uni0E26
Encoding: 134 3622
OldEncoding: 3622
Width: 876
VWidth: 1000
Flags: HW
Fore
737 -328 m 1
 737 526 l 2
 737 618 706 686 643 731 c 0
 616 752 589 766 562 775 c 0
 536 784 499 788 453 788 c 0
 391 788 331 771 272 737 c 0
 240 718 212 697 188 675 c 0
 165 652 150 627 141 600 c 1
 215 600 273 586 315 559 c 1
 238 537 199 483 199 395 c 2
 199 211 l 1
 193 221 185 227 173 231 c 0
 161 236 148 238 133 238 c 0
 104 238 82 225 66 200 c 0
 49 174 41 145 41 113 c 0
 41 29 84 -12 170 -12 c 0
 218 -12 252 0 273 25 c 0
 295 49 305 83 305 127 c 2
 305 424 l 2
 305 455 314 481 331 502 c 0
 348 522 369 537 395 545 c 1
 352 605 295 635 225 635 c 1
 279 692 354 721 451 721 c 0
 509 721 554 703 585 668 c 0
 615 632 631 585 631 526 c 2
 631 -328 l 1
 737 -328 l 1
78 113 m 0
 78 130 83 148 92 166 c 0
 102 184 115 193 133 193 c 0
 148 193 162 186 175 173 c 0
 188 160 195 140 195 113 c 0
 195 89 189 70 178 54 c 0
 167 39 154 31 137 31 c 0
 122 31 109 38 96 51 c 0
 84 65 78 85 78 113 c 0
EndSplineSet
EndChar
StartChar: uni0E27
Encoding: 135 3623
OldEncoding: 3623
Width: 671
VWidth: 1000
Flags: HW
Fore
426 211 m 1
 421 221 412 227 400 231 c 0
 389 236 375 238 360 238 c 0
 335 238 313 226 295 202 c 0
 277 178 268 148 268 113 c 0
 268 29 311 -12 397 -12 c 0
 445 -12 480 0 501 25 c 0
 522 49 532 83 532 127 c 2
 532 573 l 2
 532 639 504 692 446 731 c 0
 392 769 333 788 270 788 c 0
 143 788 50 729 -10 610 c 1
 10 596 l 1
 68 679 141 721 229 721 c 0
 255 721 280 717 304 709 c 0
 328 700 349 689 367 674 c 0
 384 659 399 641 410 621 c 0
 421 600 426 577 426 551 c 2
 426 211 l 1
305 113 m 0
 305 130 310 148 319 166 c 0
 329 184 343 193 360 193 c 0
 375 193 389 186 402 173 c 0
 415 160 422 140 422 113 c 0
 422 89 416 70 406 54 c 0
 395 39 381 31 365 31 c 0
 350 31 336 38 324 51 c 0
 311 65 305 85 305 113 c 0
EndSplineSet
EndChar
StartChar: uni0E28
Encoding: 136 3624
OldEncoding: 3624
Width: 841
VWidth: 1000
Flags: HW
Fore
633 666 m 1
 646 687 659 712 671 738 c 0
 682 765 693 796 702 831 c 1
 575 831 l 1
 575 825 575 817 575 809 c 0
 575 802 575 795 573 788 c 0
 572 779 571 770 570 762 c 0
 570 754 568 745 565 737 c 0
 564 737 563 737 563 737 c 2
 563 739 563 739 563 739 c 1
 513 772 446 788 362 788 c 0
 267 788 192 767 137 725 c 0
 73 677 41 607 41 514 c 0
 41 496 46 473 55 443 c 0
 65 414 81 375 104 328 c 0
 126 283 143 239 155 198 c 0
 166 156 172 118 172 84 c 2
 172 61 l 1
 168 0 l 1
 274 0 l 1
 277 16 279 34 281 52 c 0
 282 71 283 89 283 109 c 0
 283 136 282 162 281 188 c 0
 279 214 279 238 279 260 c 0
 279 290 282 314 289 332 c 1
 302 321 319 315 338 315 c 0
 369 315 394 329 413 355 c 0
 431 382 440 410 440 438 c 0
 440 474 431 504 414 528 c 0
 396 553 370 565 336 565 c 0
 315 565 296 561 279 554 c 0
 261 546 245 534 231 517 c 0
 218 500 207 478 199 450 c 0
 190 422 186 386 186 344 c 1
 169 377 152 406 137 432 c 0
 122 458 115 487 115 518 c 0
 115 593 135 646 176 676 c 0
 217 706 279 721 360 721 c 0
 382 721 404 716 427 708 c 0
 450 699 470 687 487 673 c 0
 505 658 520 642 531 624 c 0
 543 605 549 586 549 565 c 2
 549 0 l 1
 655 0 l 1
 655 565 l 2
 655 602 648 636 633 666 c 1
291 438 m 0
 291 464 296 484 307 497 c 0
 318 510 331 516 346 516 c 0
 358 516 370 510 381 497 c 0
 392 484 397 464 397 438 c 0
 397 416 392 397 382 381 c 0
 372 365 358 356 342 356 c 0
 331 356 320 362 308 374 c 0
 297 385 291 407 291 438 c 0
EndSplineSet
EndChar
StartChar: uni0E29
Encoding: 137 3625
OldEncoding: 3625
Width: 1003
VWidth: 1000
Flags: HW
Fore
297 645 m 2
 297 689 286 724 263 750 c 0
 241 776 208 788 164 788 c 0
 119 788 85 776 63 750 c 0
 42 724 31 692 31 653 c 0
 31 619 40 591 59 568 c 0
 79 546 102 535 129 535 c 0
 155 535 175 543 190 559 c 1
 190 39 l 1
 115 39 l 1
 115 0 l 1
 668 0 l 2
 691 0 711 12 729 37 c 0
 736 48 740 60 742 73 c 0
 744 86 745 99 745 113 c 2
 745 348 l 1
 825 414 864 498 864 602 c 1
 788 602 l 1
 788 538 774 481 745 432 c 1
 745 774 l 1
 639 774 l 1
 639 350 l 1
 631 347 620 345 607 343 c 0
 594 341 582 340 571 340 c 0
 552 340 534 343 516 349 c 0
 498 355 483 367 469 383 c 1
 487 381 l 2
 515 381 536 392 552 415 c 0
 568 437 575 463 575 492 c 0
 575 520 568 546 552 568 c 0
 536 591 515 602 487 602 c 0
 407 602 367 562 367 481 c 0
 367 457 372 433 382 411 c 0
 392 388 406 369 422 352 c 0
 438 336 457 323 479 312 c 0
 501 302 524 297 547 297 c 0
 563 297 579 297 593 298 c 0
 607 299 623 301 639 305 c 1
 639 113 l 2
 639 88 632 70 620 57 c 0
 607 45 590 39 569 39 c 2
 297 39 l 1
 297 645 l 2
188 659 m 0
 188 631 183 609 171 595 c 0
 159 581 145 573 129 573 c 0
 107 573 92 583 84 603 c 0
 76 623 72 641 72 657 c 0
 72 685 79 705 93 719 c 0
 108 733 120 739 131 739 c 0
 147 739 161 732 172 717 c 0
 183 702 188 683 188 659 c 0
537 492 m 0
 532 441 516 416 487 416 c 0
 456 420 440 445 440 492 c 0
 440 516 445 534 455 546 c 0
 464 557 475 563 487 563 c 0
 505 563 518 556 525 541 c 0
 533 526 537 509 537 492 c 0
EndSplineSet
EndChar
StartChar: uni0E2A
Encoding: 138 3626
OldEncoding: 3626
Width: 831
VWidth: 1000
Flags: HW
Fore
639 0 m 1
 639 547 l 2
 639 589 632 624 618 651 c 1
 634 674 647 701 658 730 c 0
 670 759 681 793 692 829 c 1
 565 829 l 1
 563 810 560 793 558 777 c 0
 556 762 554 746 551 731 c 1
 547 735 l 2
 498 771 429 788 342 788 c 0
 212 788 119 726 61 602 c 1
 88 592 l 1
 150 678 232 721 336 721 c 0
 399 721 447 706 481 677 c 0
 515 648 532 603 532 543 c 2
 532 438 l 1
 507 474 475 500 438 518 c 0
 401 536 361 545 317 545 c 0
 253 545 203 527 167 492 c 0
 131 456 113 406 113 342 c 2
 113 131 l 2
 113 87 123 53 144 29 c 0
 166 4 200 -8 248 -8 c 0
 334 -8 377 33 377 117 c 0
 377 147 368 175 351 202 c 0
 334 228 311 242 281 242 c 0
 249 242 229 233 219 215 c 1
 219 352 l 2
 219 396 230 429 251 451 c 0
 272 472 302 483 342 483 c 0
 388 483 428 469 462 441 c 0
 495 413 519 371 532 313 c 1
 532 0 l 1
 639 0 l 1
340 117 m 0
 340 89 334 69 322 55 c 0
 309 42 296 35 281 35 c 0
 264 35 251 43 240 58 c 0
 229 74 223 94 223 117 c 0
 223 144 229 164 241 177 c 0
 252 190 266 197 281 197 c 0
 300 197 314 188 325 170 c 0
 335 152 340 134 340 117 c 0
EndSplineSet
EndChar
StartChar: uni0E2B
Encoding: 139 3627
OldEncoding: 3627
Width: 888
VWidth: 1000
Flags: HW
Fore
297 645 m 2
 297 689 287 724 266 750 c 0
 246 776 212 788 164 788 c 0
 119 788 85 776 63 750 c 0
 42 724 31 692 31 653 c 0
 31 619 40 591 59 568 c 0
 79 546 102 535 129 535 c 0
 155 535 175 543 190 559 c 1
 190 0 l 1
 307 0 l 1
 436 367 l 2
 446 394 457 416 471 434 c 0
 485 452 499 466 515 476 c 0
 531 486 547 494 563 500 c 0
 580 505 594 509 606 512 c 1
 613 505 620 496 626 485 c 0
 632 474 635 462 635 449 c 2
 635 0 l 1
 741 0 l 1
 741 440 l 2
 741 474 735 499 721 515 c 0
 707 531 696 541 688 547 c 1
 709 554 724 568 734 590 c 0
 744 612 750 636 750 662 c 0
 750 705 739 737 719 758 c 0
 698 778 670 788 635 788 c 0
 601 788 574 777 555 755 c 0
 536 732 526 701 526 662 c 0
 526 638 530 619 537 604 c 0
 543 589 555 573 571 555 c 1
 532 543 496 524 465 500 c 0
 433 475 408 434 387 377 c 2
 297 121 l 1
 297 645 l 2
188 659 m 0
 188 631 183 609 171 595 c 0
 159 581 145 573 129 573 c 0
 107 573 92 583 84 603 c 0
 76 623 72 641 72 657 c 0
 72 685 79 705 93 719 c 0
 108 733 120 739 131 739 c 0
 147 739 161 732 172 717 c 0
 183 702 188 683 188 659 c 0
686 662 m 0
 683 641 679 624 674 610 c 0
 668 597 656 586 637 580 c 1
 619 586 605 596 594 608 c 0
 583 621 578 638 578 662 c 0
 578 713 597 739 635 739 c 0
 653 739 666 732 674 718 c 0
 682 703 686 685 686 662 c 0
EndSplineSet
EndChar
StartChar: uni0E2C
Encoding: 140 3628
OldEncoding: 3628
Width: 958
VWidth: 1000
Flags: HW
Fore
918 973 m 1
 827 973 l 1
 827 958 l 2
 827 926 822 896 811 869 c 0
 800 843 788 827 774 823 c 1
 774 850 l 2
 774 888 763 918 739 940 c 0
 716 962 685 973 647 973 c 0
 569 973 530 933 530 854 c 0
 530 814 543 784 569 763 c 0
 595 742 628 731 668 731 c 1
 668 137 l 1
 483 709 l 1
 297 137 l 1
 297 645 l 2
 297 689 287 724 266 750 c 0
 246 776 212 788 164 788 c 0
 119 788 85 776 63 750 c 0
 42 724 31 692 31 653 c 0
 31 619 40 591 59 568 c 0
 79 546 102 535 129 535 c 0
 155 535 175 543 190 559 c 1
 190 0 l 1
 311 0 l 1
 483 520 l 1
 651 0 l 1
 774 0 l 1
 774 758 l 1
 870 811 918 883 918 973 c 1
188 659 m 0
 188 631 183 609 171 595 c 0
 159 581 145 573 129 573 c 0
 107 573 92 583 84 603 c 0
 76 623 72 641 72 657 c 0
 72 685 79 705 93 719 c 0
 108 733 120 739 131 739 c 0
 147 739 161 732 172 717 c 0
 183 702 188 683 188 659 c 0
668 776 m 1
 605 776 573 802 573 854 c 0
 576 876 581 892 588 903 c 0
 597 917 610 924 625 924 c 0
 653 924 668 908 668 877 c 2
 668 776 l 1
EndSplineSet
EndChar
StartChar: uni0E2D
Encoding: 141 3629
OldEncoding: 3629
Width: 788
VWidth: 1000
Flags: HW
Fore
106 391 m 2
 106 158 l 2
 106 100 139 56 205 25 c 0
 254 1 312 -10 379 -10 c 0
 408 -10 436 -7 465 -1 c 0
 494 5 522 15 549 29 c 0
 616 63 649 106 649 158 c 2
 649 567 l 2
 649 644 615 702 547 741 c 0
 495 773 426 788 340 788 c 0
 205 788 112 726 61 602 c 1
 88 590 l 1
 151 677 233 721 334 721 c 0
 395 721 445 706 484 677 c 0
 523 648 543 604 543 547 c 2
 543 160 l 2
 543 141 538 123 528 108 c 0
 519 92 506 79 489 68 c 0
 473 57 455 48 435 42 c 0
 415 36 395 33 375 33 c 0
 354 33 335 36 315 42 c 0
 296 48 279 57 264 68 c 0
 249 79 237 92 227 108 c 0
 218 123 213 141 213 160 c 2
 213 311 l 1
 228 295 248 287 274 287 c 0
 302 287 325 298 344 321 c 0
 363 343 373 371 373 406 c 0
 373 444 362 476 340 502 c 0
 318 528 285 541 240 541 c 0
 201 541 170 527 144 499 c 0
 119 471 106 435 106 391 c 2
215 412 m 0
 215 435 221 454 231 469 c 0
 242 484 256 492 272 492 c 0
 283 492 296 485 310 471 c 0
 325 457 332 437 332 410 c 0
 332 393 328 375 319 355 c 0
 311 336 296 326 274 326 c 0
 258 326 244 333 232 347 c 0
 221 361 215 383 215 412 c 0
EndSplineSet
EndChar
StartChar: uni0E2E
Encoding: 142 3630
OldEncoding: 3630
Width: 798
VWidth: 1000
Flags: HW
Fore
104 360 m 2
 104 158 l 2
 104 100 137 56 203 25 c 0
 252 1 310 -10 377 -10 c 0
 406 -10 434 -7 463 -1 c 0
 492 5 520 15 547 29 c 0
 614 63 647 106 647 158 c 2
 647 567 l 2
 647 625 629 670 592 705 c 1
 607 720 621 740 634 766 c 0
 647 792 655 820 659 850 c 1
 565 850 l 1
 561 813 549 780 528 750 c 1
 477 776 414 788 342 788 c 0
 302 788 263 783 224 772 c 0
 185 761 154 748 131 733 c 0
 112 721 96 707 82 690 c 0
 68 674 61 656 61 637 c 0
 61 631 63 625 66 616 c 0
 76 592 95 576 121 568 c 0
 147 561 174 557 203 557 c 0
 219 557 235 558 250 559 c 0
 265 560 279 562 291 563 c 0
 356 571 429 597 508 639 c 1
 519 628 527 614 532 598 c 0
 538 582 541 565 541 547 c 2
 541 160 l 2
 541 141 536 123 526 108 c 0
 517 92 504 79 487 68 c 0
 471 57 453 48 433 42 c 0
 413 36 393 33 373 33 c 0
 352 33 332 36 313 42 c 0
 294 48 277 57 262 68 c 0
 247 79 235 92 225 108 c 0
 216 123 211 141 211 160 c 2
 211 281 l 1
 226 264 246 256 272 256 c 0
 300 256 323 267 342 290 c 0
 361 312 371 341 371 375 c 0
 371 413 360 445 338 471 c 0
 316 497 283 510 238 510 c 0
 198 510 166 496 141 468 c 0
 117 440 104 404 104 360 c 2
467 682 m 1
 442 662 416 645 387 633 c 0
 358 621 328 610 297 602 c 0
 287 599 275 597 259 596 c 0
 243 595 227 594 211 594 c 0
 189 594 169 596 152 599 c 0
 134 602 123 610 119 621 c 0
 117 623 117 628 117 635 c 0
 117 654 130 671 158 686 c 0
 185 701 215 711 248 715 c 0
 281 719 311 721 338 721 c 0
 390 721 433 708 467 682 c 1
213 381 m 0
 213 404 218 423 229 438 c 0
 240 453 254 461 270 461 c 0
 281 461 294 454 308 440 c 0
 323 427 330 406 330 379 c 0
 330 362 326 344 317 325 c 0
 309 305 294 295 272 295 c 0
 256 295 242 302 230 316 c 0
 219 331 213 352 213 381 c 0
EndSplineSet
EndChar
StartChar: uni0E2F
Encoding: 143 3631
OldEncoding: 3631
Width: 751
VWidth: 1000
Flags: HW
Fore
610 666 m 2
 610 707 600 737 580 758 c 0
 559 778 539 788 520 788 c 0
 497 788 479 785 465 777 c 0
 451 770 439 759 428 745 c 0
 424 740 418 731 411 718 c 0
 403 705 396 691 388 675 c 0
 381 659 373 644 366 629 c 0
 358 614 352 602 346 594 c 0
 341 584 332 572 321 558 c 0
 309 544 294 537 276 537 c 0
 264 537 252 538 241 542 c 0
 229 545 219 550 211 557 c 1
 227 555 l 2
 255 555 277 568 295 594 c 0
 310 617 317 642 317 668 c 0
 317 696 310 724 295 750 c 0
 280 776 257 788 225 788 c 0
 190 788 161 776 138 752 c 0
 116 727 104 693 104 649 c 0
 104 606 119 567 150 532 c 0
 180 498 220 481 270 481 c 0
 292 481 310 484 324 490 c 0
 337 497 350 505 362 516 c 0
 369 522 378 531 388 545 c 0
 398 558 409 577 420 600 c 0
 431 623 442 642 453 655 c 0
 464 669 472 676 479 676 c 0
 496 676 504 668 504 651 c 2
 504 0 l 1
 610 0 l 1
 610 666 l 2
276 668 m 0
 276 620 260 596 227 596 c 0
 212 596 200 602 190 614 c 0
 181 627 176 644 176 668 c 0
 176 688 180 705 188 718 c 0
 197 731 210 737 227 737 c 0
 241 737 253 731 262 720 c 0
 272 708 276 691 276 668 c 0
EndSplineSet
EndChar
StartChar: uni0E30
Encoding: 144 3632
OldEncoding: 3632
Width: 641
VWidth: 1000
Flags: HW
Fore
502 778 m 1
 502 694 474 621 420 559 c 0
 367 498 297 467 211 467 c 0
 185 467 160 472 137 481 c 0
 114 491 94 504 77 520 c 0
 60 537 46 556 36 578 c 0
 26 599 20 623 20 649 c 0
 20 735 63 778 147 778 c 0
 175 778 197 767 213 743 c 0
 229 720 238 694 238 666 c 0
 238 636 229 609 213 586 c 0
 197 563 175 551 147 551 c 1
 129 555 l 1
 136 550 143 544 150 539 c 0
 156 533 165 528 174 522 c 0
 181 520 188 517 197 516 c 0
 205 515 214 513 225 512 c 0
 280 512 324 543 358 606 c 0
 371 634 380 661 387 689 c 0
 394 717 397 747 397 778 c 1
 502 778 l 1
195 666 m 0
 195 711 179 733 147 733 c 0
 132 733 120 728 112 717 c 0
 103 706 98 689 98 666 c 0
 98 623 115 599 147 592 c 0
 160 592 171 599 182 614 c 0
 185 621 187 629 189 638 c 0
 191 647 193 656 195 666 c 0
502 324 m 1
 502 239 474 165 420 102 c 0
 365 41 296 10 211 10 c 0
 185 10 160 15 137 25 c 0
 114 34 94 47 77 63 c 0
 60 80 46 99 36 122 c 0
 26 144 20 169 20 195 c 0
 20 281 63 324 147 324 c 0
 175 324 197 312 213 288 c 0
 229 264 238 238 238 211 c 0
 238 181 229 154 213 130 c 0
 197 106 175 94 147 94 c 1
 129 98 l 1
 136 93 143 87 150 82 c 0
 156 76 165 71 174 66 c 0
 181 63 188 61 197 59 c 0
 205 58 214 57 225 55 c 0
 281 55 326 87 358 152 c 0
 371 179 380 207 387 234 c 0
 394 262 397 292 397 324 c 1
 502 324 l 1
195 211 m 0
 195 255 179 276 147 276 c 0
 132 276 120 271 112 261 c 0
 103 251 98 234 98 211 c 0
 98 170 115 146 147 139 c 0
 161 139 173 146 182 160 c 0
 185 167 187 174 189 183 c 0
 191 192 193 201 195 211 c 0
EndSplineSet
EndChar
StartChar: uni0E31
Encoding: 145 3633
OldEncoding: 3633
Width: 0
VWidth: 1000
Flags: HW
Fore
43 1188 m 1
 43 1095 16 1019 -37 958 c 0
 -64 927 -101 904 -147 889 c 0
 -194 874 -240 866 -285 866 c 0
 -315 866 -347 870 -381 879 c 0
 -415 887 -443 898 -465 913 c 0
 -513 949 -537 996 -537 1055 c 0
 -537 1143 -494 1188 -410 1188 c 0
 -347 1188 -315 1149 -315 1071 c 0
 -315 1041 -324 1014 -340 989 c 0
 -356 965 -379 952 -408 952 c 1
 -426 956 l 1
 -412 941 -391 930 -362 924 c 0
 -334 917 -306 913 -279 913 c 0
 -247 913 -215 922 -181 938 c 0
 -148 954 -122 978 -104 1010 c 0
 -74 1060 -59 1120 -59 1188 c 1
 43 1188 l 1
-358 1071 m 0
 -358 1092 -362 1108 -371 1121 c 0
 -379 1134 -391 1141 -408 1141 c 0
 -440 1141 -457 1118 -457 1071 c 0
 -457 1022 -440 997 -408 997 c 0
 -395 997 -384 1005 -373 1020 c 0
 -369 1027 -366 1035 -364 1043 c 0
 -361 1052 -360 1062 -358 1071 c 0
EndSplineSet
EndChar
StartChar: uni0E32
Encoding: 146 3634
OldEncoding: 3634
Width: 557
VWidth: 1000
Flags: HW
Fore
418 0 m 1
 311 0 l 1
 311 608 l 2
 311 641 298 668 270 689 c 0
 243 710 213 721 180 721 c 0
 115 721 61 685 18 612 c 1
 -10 629 l 1
 31 735 110 788 227 788 c 0
 283 788 329 773 365 741 c 0
 400 710 418 666 418 610 c 2
 418 0 l 1
EndSplineSet
EndChar
StartChar: uni0E33
Encoding: 147 3635
OldEncoding: 3635
Width: 571
VWidth: 1000
Flags: HW
Fore
-106 1069 m 0
 -106 1038 -117 1010 -138 987 c 0
 -159 964 -186 952 -217 952 c 0
 -248 952 -275 964 -296 987 c 0
 -317 1010 -328 1038 -328 1069 c 0
 -328 1102 -317 1129 -297 1152 c 0
 -276 1175 -250 1186 -217 1186 c 0
 -186 1186 -159 1174 -138 1151 c 0
 -117 1128 -106 1100 -106 1069 c 0
430 0 m 1
 324 0 l 1
 324 608 l 2
 324 641 310 668 283 689 c 0
 255 710 225 721 193 721 c 0
 127 721 73 685 31 612 c 1
 2 629 l 1
 43 735 122 788 240 788 c 0
 296 788 341 773 377 741 c 0
 412 710 430 666 430 610 c 2
 430 0 l 1
-164 1069 m 0
 -164 1107 -182 1126 -217 1126 c 0
 -253 1126 -270 1107 -270 1069 c 0
 -270 1031 -253 1012 -217 1012 c 0
 -182 1012 -164 1031 -164 1069 c 0
EndSplineSet
EndChar
StartChar: uni0E34
Encoding: 148 3636
OldEncoding: 3636
Width: 0
VWidth: 1000
Flags: HW
Fore
-205 934 m 1
 -210 950 -222 969 -240 990 c 0
 -257 1011 -279 1031 -305 1050 c 0
 -331 1068 -359 1084 -389 1097 c 0
 -419 1110 -449 1116 -479 1116 c 0
 -492 1116 -506 1115 -521 1113 c 0
 -537 1111 -552 1108 -565 1104 c 0
 -579 1100 -590 1094 -599 1085 c 0
 -608 1077 -612 1067 -612 1055 c 0
 -612 1040 -603 1031 -586 1028 c 0
 -568 1025 -550 1024 -532 1024 c 0
 -505 1024 -479 1022 -454 1019 c 0
 -428 1015 -404 1011 -381 1006 c 0
 -350 999 -319 990 -290 979 c 0
 -260 968 -232 953 -205 934 c 1
-154 864 m 1
 -180 882 -209 898 -243 911 c 0
 -276 925 -311 937 -346 946 c 0
 -368 953 -395 958 -428 963 c 0
 -461 967 -491 969 -518 969 c 0
 -529 969 -543 969 -561 969 c 0
 -579 969 -593 968 -604 967 c 0
 -651 967 -683 973 -702 987 c 0
 -709 993 -715 1000 -720 1010 c 0
 -725 1019 -727 1027 -727 1034 c 0
 -727 1057 -717 1080 -697 1103 c 0
 -678 1125 -659 1142 -641 1153 c 0
 -622 1164 -599 1172 -572 1179 c 0
 -546 1185 -519 1188 -492 1188 c 0
 -456 1188 -418 1180 -379 1163 c 0
 -339 1147 -303 1124 -269 1096 c 0
 -236 1067 -208 1033 -186 993 c 0
 -165 954 -154 911 -154 864 c 1
EndSplineSet
EndChar
StartChar: uni0E35
Encoding: 149 3637
OldEncoding: 3637
Width: 0
VWidth: 1000
Flags: HW
Fore
-184 1260 m 1
 -264 1260 l 1
 -264 1098 l 1
 -297 1125 -332 1147 -371 1162 c 0
 -409 1178 -446 1186 -481 1186 c 0
 -509 1186 -536 1183 -562 1177 c 0
 -589 1170 -612 1162 -631 1151 c 0
 -649 1140 -667 1123 -687 1101 c 0
 -707 1078 -717 1055 -717 1032 c 0
 -717 1025 -714 1017 -710 1008 c 0
 -705 998 -699 991 -692 985 c 0
 -673 971 -640 965 -594 965 c 0
 -583 966 -569 967 -551 967 c 0
 -533 967 -519 967 -508 967 c 0
 -481 967 -451 965 -418 961 c 0
 -385 956 -358 951 -336 944 c 0
 -300 935 -266 923 -232 909 c 0
 -199 896 -169 880 -143 862 c 1
 -143 914 -157 962 -184 1006 c 1
 -184 1260 l 1
-195 932 m 1
 -222 951 -250 966 -280 977 c 0
 -309 988 -339 997 -371 1004 c 0
 -394 1009 -418 1013 -443 1017 c 0
 -469 1020 -495 1022 -522 1022 c 0
 -540 1022 -558 1023 -575 1026 c 0
 -593 1029 -602 1038 -602 1053 c 0
 -602 1065 -598 1075 -589 1083 c 0
 -580 1092 -569 1098 -555 1102 c 0
 -541 1106 -527 1109 -511 1111 c 0
 -495 1113 -481 1114 -469 1114 c 0
 -439 1114 -409 1108 -379 1095 c 0
 -349 1082 -321 1066 -295 1048 c 0
 -269 1029 -247 1009 -229 988 c 0
 -212 967 -200 948 -195 932 c 1
EndSplineSet
EndChar
StartChar: uni0E36
Encoding: 150 3638
OldEncoding: 3638
Width: 0
VWidth: 1000
Flags: HW
Fore
-154 864 m 1
 -154 900 -160 933 -173 965 c 0
 -186 996 -203 1025 -225 1051 c 1
 -205 1059 -188 1073 -174 1093 c 0
 -160 1112 -154 1134 -154 1157 c 0
 -154 1189 -165 1215 -186 1237 c 0
 -208 1259 -235 1270 -266 1270 c 0
 -296 1270 -322 1259 -343 1238 c 0
 -364 1217 -376 1192 -379 1163 c 1
 -398 1170 -417 1176 -436 1181 c 0
 -455 1185 -474 1188 -492 1188 c 0
 -519 1188 -546 1185 -572 1179 c 0
 -599 1172 -622 1164 -641 1153 c 0
 -659 1142 -678 1125 -697 1103 c 0
 -717 1080 -727 1057 -727 1034 c 0
 -727 1027 -725 1019 -720 1010 c 0
 -715 1000 -709 993 -702 987 c 0
 -683 973 -651 967 -604 967 c 0
 -593 968 -579 969 -561 969 c 0
 -543 969 -529 969 -518 969 c 0
 -491 969 -461 967 -428 963 c 0
 -395 958 -368 953 -346 946 c 0
 -311 937 -276 925 -243 911 c 0
 -209 898 -180 882 -154 864 c 1
-205 934 m 1
 -232 953 -260 968 -290 979 c 0
 -319 990 -350 999 -381 1006 c 0
 -404 1011 -428 1015 -454 1019 c 0
 -479 1022 -505 1024 -532 1024 c 0
 -550 1024 -568 1025 -586 1028 c 0
 -603 1031 -612 1040 -612 1055 c 0
 -612 1067 -608 1077 -599 1085 c 0
 -590 1094 -579 1100 -565 1104 c 0
 -552 1108 -537 1111 -521 1113 c 0
 -506 1115 -492 1116 -479 1116 c 0
 -449 1116 -419 1110 -389 1097 c 0
 -359 1084 -331 1068 -305 1050 c 0
 -279 1031 -257 1011 -240 990 c 0
 -222 969 -210 950 -205 934 c 1
-328 1157 m 0
 -328 1175 -322 1190 -310 1201 c 0
 -299 1213 -284 1219 -266 1219 c 0
 -248 1219 -234 1213 -222 1201 c 0
 -211 1190 -205 1175 -205 1157 c 0
 -205 1139 -211 1125 -222 1113 c 0
 -234 1101 -248 1096 -266 1096 c 0
 -284 1096 -299 1101 -310 1113 c 0
 -322 1125 -328 1139 -328 1157 c 0
EndSplineSet
EndChar
StartChar: uni0E37
Encoding: 151 3639
OldEncoding: 3639
Width: 0
VWidth: 1000
Flags: HW
Fore
-195 1260 m 1
 -274 1260 l 1
 -274 1100 l 1
 -281 1107 -288 1112 -296 1117 c 0
 -303 1122 -311 1126 -317 1130 c 1
 -317 1260 l 1
 -397 1260 l 1
 -397 1169 l 1
 -430 1182 -461 1188 -492 1188 c 0
 -519 1188 -546 1185 -572 1179 c 0
 -599 1172 -622 1164 -641 1153 c 0
 -659 1142 -678 1125 -697 1103 c 0
 -717 1080 -727 1057 -727 1034 c 0
 -727 1027 -725 1019 -720 1010 c 0
 -715 1000 -709 993 -702 987 c 0
 -683 973 -651 967 -604 967 c 0
 -593 968 -579 969 -561 969 c 0
 -543 969 -529 969 -518 969 c 0
 -491 969 -461 967 -428 963 c 0
 -395 958 -368 953 -346 946 c 0
 -311 937 -276 925 -243 911 c 0
 -209 898 -180 882 -154 864 c 1
 -154 916 -167 964 -195 1008 c 1
 -195 1260 l 1
-205 934 m 1
 -232 953 -260 968 -290 979 c 0
 -319 990 -350 999 -381 1006 c 0
 -404 1011 -428 1015 -454 1019 c 0
 -479 1022 -505 1024 -532 1024 c 0
 -550 1024 -568 1025 -586 1028 c 0
 -603 1031 -612 1040 -612 1055 c 0
 -612 1067 -608 1077 -599 1085 c 0
 -590 1094 -579 1100 -565 1104 c 0
 -552 1108 -537 1111 -521 1113 c 0
 -506 1115 -492 1116 -479 1116 c 0
 -449 1116 -419 1110 -389 1097 c 0
 -359 1084 -331 1068 -305 1050 c 0
 -279 1031 -257 1011 -240 990 c 0
 -222 969 -210 950 -205 934 c 1
EndSplineSet
EndChar
StartChar: uni0E38
Encoding: 152 3640
OldEncoding: 3640
Width: 0
VWidth: 1000
Flags: HW
Fore
-141 -410 m 1
 -246 -410 l 1
 -246 -299 l 1
 -259 -309 -274 -313 -291 -313 c 0
 -318 -313 -341 -300 -360 -272 c 0
 -374 -251 -381 -225 -381 -195 c 0
 -381 -113 -341 -72 -262 -72 c 0
 -229 -72 -201 -83 -177 -106 c 0
 -153 -130 -141 -158 -141 -190 c 2
 -141 -410 l 1
-242 -195 m 0
 -242 -173 -246 -155 -254 -141 c 0
 -262 -128 -274 -121 -291 -121 c 0
 -309 -121 -321 -129 -329 -146 c 0
 -336 -163 -340 -180 -340 -195 c 0
 -340 -242 -324 -266 -291 -266 c 0
 -258 -266 -242 -242 -242 -195 c 0
EndSplineSet
EndChar
StartChar: uni0E39
Encoding: 153 3641
OldEncoding: 3641
Width: 0
VWidth: 1000
Flags: HW
Fore
-336 -190 m 2
 -336 -158 -348 -130 -372 -106 c 0
 -396 -83 -424 -72 -457 -72 c 0
 -536 -72 -575 -113 -575 -195 c 0
 -575 -225 -569 -251 -555 -272 c 0
 -536 -300 -513 -313 -485 -313 c 0
 -477 -313 -468 -311 -459 -307 c 0
 -449 -303 -442 -298 -436 -293 c 1
 -436 -295 l 2
 -436 -371 -397 -410 -317 -410 c 2
 -264 -410 l 2
 -182 -410 -141 -370 -141 -291 c 2
 -141 -82 l 1
 -246 -82 l 1
 -246 -311 l 2
 -246 -343 -261 -358 -291 -358 c 0
 -321 -358 -336 -343 -336 -311 c 2
 -336 -190 l 2
-436 -195 m 0
 -436 -242 -453 -266 -485 -266 c 0
 -518 -266 -535 -242 -535 -195 c 0
 -535 -180 -531 -163 -523 -146 c 0
 -516 -129 -503 -121 -485 -121 c 0
 -469 -121 -457 -128 -449 -141 c 0
 -440 -155 -436 -173 -436 -195 c 0
EndSplineSet
EndChar
StartChar: uni0E3A
Encoding: 154 3642
OldEncoding: 3642
Width: 0
VWidth: 1000
Flags: HW
Fore
-127 -156 m 0
 -127 -179 -135 -198 -151 -214 c 0
 -166 -230 -186 -238 -209 -238 c 0
 -232 -238 -252 -230 -267 -214 c 0
 -283 -198 -291 -179 -291 -156 c 0
 -291 -134 -283 -115 -266 -98 c 0
 -250 -82 -231 -74 -209 -74 c 0
 -186 -74 -166 -82 -151 -97 c 0
 -135 -113 -127 -132 -127 -156 c 0
EndSplineSet
EndChar
StartChar: uni0E3F
Encoding: 155 3647
OldEncoding: 3647
Width: 1019
VWidth: 1000
Flags: HW
Fore
600 0 m 2
 565 0 l 1
 565 -72 l 1
 471 -72 l 1
 471 0 l 1
 111 0 l 1
 111 27 l 1
 162 27 198 34 217 50 c 0
 236 66 246 100 246 152 c 2
 246 776 l 2
 246 823 238 856 221 877 c 1
 202 894 165 903 111 903 c 1
 111 928 l 1
 471 928 l 1
 471 1014 l 1
 565 1014 l 1
 565 928 l 1
 605 928 642 923 677 914 c 0
 712 906 744 892 774 872 c 0
 840 830 872 770 872 692 c 0
 872 580 810 512 686 487 c 1
 753 487 807 464 848 418 c 0
 893 369 915 311 915 244 c 0
 915 160 881 96 813 51 c 0
 757 17 686 0 600 0 c 2
565 870 m 1
 565 514 l 1
 616 514 656 530 687 563 c 0
 718 596 733 638 733 690 c 0
 733 742 717 785 685 819 c 0
 653 853 613 870 565 870 c 1
471 512 m 1
 471 877 l 1
 418 877 l 2
 399 877 389 863 389 836 c 2
 389 512 l 1
 471 512 l 1
471 49 m 1
 471 455 l 1
 389 455 l 1
 389 109 l 2
 389 85 393 70 401 61 c 1
 432 51 l 1
 471 49 l 1
565 449 m 1
 565 51 l 1
 621 51 668 70 705 106 c 0
 741 143 760 190 760 248 c 0
 760 309 742 358 708 394 c 0
 673 430 625 449 565 449 c 1
EndSplineSet
EndChar
StartChar: uni0E40
Encoding: 156 3648
OldEncoding: 3648
Width: 397
VWidth: 1000
Flags: HW
Fore
82 139 m 2
 82 123 85 106 90 89 c 0
 96 72 104 56 115 42 c 0
 126 28 140 16 157 7 c 0
 174 -2 194 -6 217 -6 c 0
 303 -6 346 35 346 119 c 0
 346 149 338 177 321 204 c 0
 303 230 280 244 250 244 c 0
 218 244 198 235 188 217 c 1
 188 788 l 1
 82 788 l 1
 82 139 l 2
309 119 m 0
 309 91 303 71 291 57 c 0
 279 44 265 37 250 37 c 0
 233 37 220 45 209 60 c 0
 198 76 193 96 193 119 c 0
 193 146 198 166 210 179 c 0
 222 192 235 199 250 199 c 0
 269 199 284 190 294 172 c 0
 304 154 309 137 309 119 c 0
EndSplineSet
EndChar
StartChar: uni0E41
Encoding: 157 3649
OldEncoding: 3649
Width: 772
VWidth: 1000
Flags: HW
Fore
82 141 m 2
 82 125 85 108 90 91 c 0
 96 74 104 58 115 44 c 0
 126 30 140 18 157 9 c 0
 174 0 194 -4 217 -4 c 0
 303 -4 346 38 346 121 c 0
 346 151 338 179 321 206 c 0
 303 232 280 246 250 246 c 0
 218 246 198 237 188 219 c 1
 188 791 l 1
 82 791 l 1
 82 141 l 2
309 121 m 0
 309 94 303 73 291 59 c 0
 279 46 265 39 250 39 c 0
 233 39 220 47 209 62 c 0
 198 78 193 98 193 121 c 0
 193 148 198 168 210 181 c 0
 222 194 235 201 250 201 c 0
 269 201 284 192 294 174 c 0
 304 156 309 139 309 121 c 0
457 139 m 2
 457 123 459 106 465 89 c 0
 470 72 479 56 489 42 c 0
 500 28 514 16 531 7 c 0
 549 -2 569 -6 592 -6 c 0
 678 -6 721 35 721 119 c 0
 721 149 712 177 695 204 c 0
 678 230 655 244 625 244 c 0
 593 244 573 235 563 217 c 1
 563 788 l 1
 457 788 l 1
 457 139 l 2
684 119 m 0
 684 91 678 71 666 57 c 0
 653 44 640 37 625 37 c 0
 608 37 595 45 584 60 c 0
 573 76 567 96 567 119 c 0
 567 146 573 166 585 179 c 0
 596 192 610 199 625 199 c 0
 644 199 658 190 669 172 c 0
 679 154 684 137 684 119 c 0
EndSplineSet
EndChar
StartChar: uni0E42
Encoding: 158 3650
OldEncoding: 3650
Width: 446
VWidth: 1000
Flags: HW
Fore
518 1331 m 1
 503 1278 462 1251 395 1249 c 0
 384 1249 371 1250 355 1251 c 0
 340 1253 324 1257 309 1264 c 0
 293 1270 275 1279 255 1290 c 0
 235 1301 215 1312 194 1322 c 0
 172 1332 152 1341 131 1349 c 0
 111 1356 92 1360 76 1360 c 0
 57 1360 38 1354 20 1341 c 0
 3 1329 -13 1313 -27 1292 c 1
 -3 1290 18 1287 37 1284 c 0
 56 1281 79 1276 106 1268 c 0
 162 1253 201 1228 221 1195 c 0
 242 1162 252 1125 252 1085 c 2
 252 205 l 1
 267 221 287 229 311 229 c 0
 340 229 362 217 379 194 c 0
 395 170 403 143 403 113 c 0
 403 33 362 -6 281 -6 c 0
 236 -6 202 7 179 33 c 0
 157 59 145 94 145 139 c 2
 145 1055 l 2
 145 1097 137 1135 121 1168 c 0
 104 1202 73 1224 27 1235 c 0
 6 1240 -16 1245 -41 1249 c 0
 -66 1253 -89 1257 -113 1262 c 1
 -59 1386 3 1448 74 1448 c 0
 94 1448 117 1445 141 1439 c 0
 166 1433 193 1421 221 1403 c 1
 410 1307 l 1
 434 1300 l 1
 456 1300 471 1310 479 1329 c 1
 518 1331 l 1
360 113 m 1
 360 160 344 184 311 184 c 0
 279 184 262 160 262 113 c 0
 262 70 279 46 311 39 c 1
 339 39 355 63 360 113 c 1
EndSplineSet
EndChar
StartChar: uni0E43
Encoding: 159 3651
OldEncoding: 3651
Width: 516
VWidth: 1000
Flags: HW
Fore
147 1178 m 0
 147 1154 141 1135 128 1120 c 0
 115 1105 99 1098 80 1098 c 0
 55 1098 35 1110 18 1135 c 0
 2 1159 -6 1187 -6 1219 c 0
 -6 1258 5 1293 28 1324 c 0
 50 1355 79 1370 113 1370 c 0
 150 1370 177 1357 197 1332 c 0
 216 1307 225 1275 225 1235 c 2
 225 137 l 2
 225 92 237 57 260 32 c 0
 283 6 315 -6 354 -6 c 0
 395 -6 427 4 451 25 c 0
 474 45 485 75 485 115 c 0
 485 145 477 171 460 195 c 0
 443 218 420 229 391 229 c 0
 367 229 347 221 332 205 c 1
 332 1237 l 2
 332 1300 314 1352 280 1394 c 0
 245 1435 196 1456 133 1456 c 0
 80 1456 36 1436 1 1395 c 0
 -34 1354 -51 1305 -51 1247 c 0
 -51 1189 -38 1143 -12 1110 c 0
 14 1077 45 1061 82 1061 c 0
 113 1061 138 1073 157 1099 c 0
 175 1124 184 1150 184 1178 c 0
 184 1213 177 1241 162 1263 c 0
 147 1284 126 1294 98 1294 c 0
 83 1294 69 1288 55 1274 c 0
 42 1260 35 1241 35 1217 c 0
 35 1199 40 1183 51 1169 c 0
 55 1164 60 1160 65 1158 c 0
 69 1156 73 1155 76 1155 c 2
 82 1155 l 1
 82 1155 79 1157 74 1161 c 0
 70 1165 66 1170 63 1176 c 0
 61 1181 59 1187 58 1195 c 0
 58 1203 57 1208 57 1210 c 0
 57 1245 71 1262 98 1262 c 0
 115 1262 127 1254 135 1239 c 0
 143 1224 147 1204 147 1178 c 0
440 115 m 0
 440 90 435 72 425 61 c 0
 415 51 403 45 391 45 c 0
 379 45 368 51 357 62 c 0
 347 74 342 91 342 113 c 0
 342 160 358 184 391 184 c 0
 405 184 416 179 426 168 c 0
 436 157 440 139 440 115 c 0
EndSplineSet
EndChar
StartChar: uni0E44
Encoding: 160 3652
OldEncoding: 3652
Width: 522
VWidth: 1000
Flags: HW
Fore
332 205 m 1
 347 221 367 229 391 229 c 0
 420 229 442 217 459 194 c 0
 475 170 483 143 483 113 c 0
 483 33 442 -6 360 -6 c 0
 315 -6 282 6 259 32 c 0
 237 57 225 92 225 137 c 2
 225 1343 l 2
 225 1352 223 1358 217 1362 c 0
 212 1366 206 1368 201 1368 c 0
 194 1368 189 1365 185 1359 c 0
 182 1353 180 1348 178 1346 c 2
 74 1065 l 2
 70 1053 63 1047 55 1047 c 0
 46 1047 39 1055 35 1071 c 2
 -51 1440 l 1
 -39 1458 l 1
 -29 1458 -23 1454 -18 1446 c 1
 70 1204 l 1
 131 1372 l 1
 154 1432 190 1462 240 1462 c 0
 268 1462 291 1451 307 1427 c 0
 324 1404 332 1378 332 1348 c 2
 332 205 l 1
440 113 m 0
 440 160 424 184 391 184 c 0
 358 184 342 160 342 113 c 0
 342 91 346 73 354 59 c 0
 362 46 375 39 391 39 c 0
 405 39 416 45 426 57 c 0
 436 70 440 88 440 113 c 0
EndSplineSet
EndChar
StartChar: uni0E45
Encoding: 161 3653
OldEncoding: 3653
Width: 415
VWidth: 1000
Flags: HW
Fore
274 -344 m 1
 168 -344 l 1
 168 608 l 2
 168 641 154 668 125 689 c 0
 96 710 66 721 33 721 c 0
 -30 721 -83 685 -125 612 c 1
 -154 629 l 1
 -133 682 -102 722 -61 749 c 0
 -20 775 23 788 70 788 c 0
 126 788 174 773 214 741 c 0
 254 710 274 666 274 610 c 2
 274 -344 l 1
EndSplineSet
EndChar
StartChar: uni0E46
Encoding: 162 3654
OldEncoding: 3654
Width: 788
VWidth: 1000
Flags: HW
Fore
563 -111 m 2
 563 -122 561 -136 556 -155 c 0
 551 -173 541 -195 526 -219 c 2
 455 -344 l 1
 336 -344 l 1
 410 -219 l 1
 431 -186 446 -152 455 -115 c 0
 456 -111 457 -98 457 -76 c 2
 457 662 l 2
 457 708 433 731 387 731 c 0
 365 731 347 724 332 711 c 0
 317 697 309 677 309 649 c 1
 268 649 l 1
 268 704 243 731 193 731 c 0
 122 731 86 677 86 567 c 1
 93 577 100 585 109 593 c 0
 117 600 130 604 150 604 c 0
 177 604 199 592 216 567 c 0
 233 543 242 516 242 487 c 0
 242 457 234 431 219 408 c 0
 203 382 180 369 150 369 c 0
 70 369 31 443 31 592 c 0
 31 645 43 690 68 727 c 0
 96 769 136 791 186 791 c 0
 225 791 258 769 287 727 c 1
 313 769 356 791 418 791 c 0
 463 791 498 773 524 739 c 0
 550 705 563 665 563 618 c 2
 563 -111 l 2
199 487 m 0
 199 534 182 557 150 557 c 0
 137 557 126 550 116 537 c 0
 105 523 100 507 100 487 c 0
 100 438 117 414 150 414 c 0
 182 414 199 438 199 487 c 0
EndSplineSet
EndChar
StartChar: uni0E47
Encoding: 163 3655
OldEncoding: 3655
Width: 0
VWidth: 1000
Flags: HW
Fore
-184 1249 m 1
 -184 1189 -212 1149 -268 1128 c 0
 -275 1127 -284 1126 -294 1124 c 0
 -304 1123 -315 1122 -326 1122 c 0
 -337 1122 -351 1123 -369 1123 c 0
 -386 1124 -405 1124 -424 1124 c 0
 -446 1124 -460 1124 -467 1122 c 0
 -492 1117 -511 1107 -525 1094 c 0
 -540 1080 -547 1056 -547 1022 c 0
 -547 1004 -544 989 -540 976 c 0
 -535 963 -529 951 -522 940 c 1
 -522 955 -516 967 -504 975 c 0
 -498 980 -489 984 -477 987 c 2
 -473 987 l 2
 -462 987 -451 983 -438 976 c 0
 -426 968 -416 959 -408 948 c 0
 -402 939 -395 930 -385 923 c 0
 -375 915 -366 911 -356 911 c 0
 -352 911 -349 912 -345 912 c 0
 -342 913 -339 916 -336 922 c 1
 -351 922 -365 929 -377 943 c 0
 -389 957 -395 979 -395 1008 c 0
 -395 1038 -388 1061 -373 1076 c 0
 -358 1092 -339 1100 -315 1100 c 0
 -292 1100 -272 1092 -255 1076 c 0
 -238 1061 -229 1041 -229 1018 c 0
 -229 977 -240 942 -260 913 c 0
 -271 898 -283 887 -296 880 c 0
 -309 872 -326 868 -346 868 c 0
 -362 868 -376 871 -386 876 c 0
 -396 880 -406 886 -416 893 c 0
 -423 900 -430 911 -439 927 c 0
 -448 942 -458 950 -469 950 c 2
 -477 950 l 2
 -492 949 -500 935 -500 907 c 0
 -500 900 -499 894 -498 888 c 0
 -496 882 -495 876 -494 870 c 1
 -528 876 -556 893 -580 923 c 0
 -603 952 -614 986 -614 1024 c 0
 -614 1075 -599 1113 -568 1140 c 0
 -538 1166 -500 1180 -457 1180 c 2
 -442 1180 l 2
 -423 1178 -400 1176 -372 1174 c 0
 -344 1171 -325 1169 -315 1169 c 0
 -272 1169 -250 1194 -250 1243 c 1
 -184 1249 l 1
-287 1008 m 0
 -287 1044 -300 1063 -326 1063 c 0
 -338 1063 -347 1057 -353 1047 c 0
 -359 1036 -362 1023 -362 1008 c 0
 -362 997 -360 985 -355 972 c 0
 -351 959 -341 952 -326 952 c 0
 -300 952 -287 971 -287 1008 c 0
EndSplineSet
EndChar
StartChar: uni0E48
Encoding: 164 3656
OldEncoding: 3656
Width: 0
VWidth: 1000
Flags: HW
Fore
-174 1610 m 1
 -182 1497 l 1
 -203 1343 l 1
 -205 1333 -212 1327 -223 1327 c 0
 -234 1327 -241 1333 -244 1343 c 1
 -262 1497 l 1
 -268 1610 l 1
 -174 1610 l 1
EndSplineSet
EndChar
StartChar: uni0E49
Encoding: 165 3657
OldEncoding: 3657
Width: 0
VWidth: 1000
Flags: HW
Fore
-84 1624 m 1
 -84 1595 -89 1566 -98 1537 c 0
 -108 1508 -121 1481 -137 1456 c 0
 -154 1432 -173 1410 -196 1393 c 0
 -218 1375 -242 1362 -266 1354 c 0
 -311 1339 -352 1331 -389 1331 c 2
 -453 1331 l 1
 -453 1366 l 1
 -433 1369 -414 1375 -394 1383 c 0
 -374 1392 -359 1404 -348 1419 c 1
 -354 1419 l 2
 -376 1419 -394 1427 -409 1444 c 0
 -423 1460 -430 1484 -430 1516 c 0
 -430 1539 -423 1560 -410 1580 c 0
 -396 1600 -378 1610 -354 1610 c 0
 -332 1610 -314 1600 -300 1581 c 0
 -286 1562 -279 1541 -279 1518 c 0
 -279 1485 -286 1455 -301 1430 c 0
 -316 1404 -335 1384 -358 1372 c 1
 -294 1376 -246 1401 -215 1446 c 0
 -184 1491 -168 1550 -168 1624 c 1
 -84 1624 l 1
-313 1516 m 0
 -313 1532 -317 1546 -326 1559 c 0
 -334 1571 -343 1577 -354 1577 c 0
 -369 1577 -381 1571 -388 1561 c 0
 -396 1550 -399 1535 -399 1516 c 0
 -399 1473 -384 1452 -354 1452 c 0
 -343 1452 -334 1457 -326 1468 c 0
 -317 1479 -313 1495 -313 1516 c 0
EndSplineSet
EndChar
StartChar: uni0E4A
Encoding: 166 3658
OldEncoding: 3658
Width: 0
VWidth: 1000
Flags: HW
Fore
-90 1587 m 1
 -90 1415 -171 1329 -334 1329 c 1
 -334 1366 l 1
 -312 1370 -293 1383 -278 1404 c 0
 -262 1425 -254 1447 -254 1470 c 0
 -254 1517 -271 1540 -305 1540 c 0
 -338 1540 -354 1513 -354 1460 c 1
 -389 1460 l 1
 -389 1513 -408 1540 -444 1540 c 0
 -458 1540 -470 1535 -481 1524 c 1
 -461 1524 -445 1515 -434 1497 c 0
 -423 1479 -418 1457 -418 1430 c 0
 -418 1364 -444 1331 -496 1331 c 0
 -517 1331 -536 1342 -551 1363 c 0
 -566 1384 -573 1406 -573 1430 c 0
 -573 1460 -568 1485 -557 1507 c 0
 -546 1529 -532 1547 -516 1562 c 0
 -500 1576 -476 1583 -444 1583 c 0
 -413 1583 -389 1565 -373 1530 c 1
 -369 1545 -361 1557 -351 1567 c 0
 -341 1576 -327 1581 -309 1581 c 0
 -241 1581 -207 1545 -207 1473 c 0
 -207 1426 -223 1391 -254 1368 c 1
 -197 1391 -168 1441 -168 1518 c 2
 -168 1550 l 1
 -172 1587 l 1
 -90 1587 l 1
-451 1430 m 0
 -451 1449 -454 1464 -462 1477 c 0
 -469 1489 -481 1495 -496 1495 c 0
 -511 1495 -522 1488 -528 1474 c 0
 -535 1459 -539 1445 -539 1430 c 0
 -539 1410 -535 1395 -527 1382 c 0
 -520 1370 -509 1364 -496 1364 c 0
 -466 1364 -451 1386 -451 1430 c 0
EndSplineSet
EndChar
StartChar: uni0E4B
Encoding: 167 3659
OldEncoding: 3659
Width: 0
VWidth: 1000
Flags: HW
Fore
-281 1626 m 1
 -276 1509 l 1
 -387 1509 l 1
 -387 1450 l 1
 -274 1450 l 1
 -270 1331 l 1
 -190 1331 l 1
 -186 1450 l 1
 -72 1450 l 1
 -72 1509 l 1
 -184 1509 l 1
 -178 1626 l 1
 -281 1626 l 1
EndSplineSet
EndChar
StartChar: uni0E4C
Encoding: 168 3660
OldEncoding: 3660
Width: 0
VWidth: 1000
Flags: HW
Fore
-309 1419 m 1
 -309 1419 -310 1424 -311 1434 c 0
 -313 1443 -315 1452 -317 1460 c 0
 -327 1478 -340 1487 -356 1487 c 0
 -369 1487 -379 1481 -387 1470 c 0
 -395 1460 -399 1442 -399 1419 c 0
 -399 1373 -385 1350 -356 1350 c 0
 -343 1350 -330 1356 -319 1368 c 0
 -315 1375 -313 1383 -311 1394 c 0
 -310 1404 -309 1412 -309 1419 c 1
-332 1526 m 1
 -288 1513 -266 1477 -266 1417 c 0
 -266 1387 -275 1361 -293 1339 c 0
 -311 1318 -333 1307 -360 1307 c 0
 -392 1307 -418 1318 -440 1339 c 0
 -462 1361 -473 1388 -473 1419 c 0
 -473 1505 -413 1563 -293 1593 c 0
 -260 1603 -237 1614 -224 1626 c 0
 -211 1638 -208 1658 -213 1683 c 1
 -135 1700 l 1
 -134 1694 -133 1686 -133 1673 c 0
 -133 1654 -139 1637 -152 1622 c 0
 -164 1607 -187 1593 -221 1581 c 0
 -242 1574 -262 1566 -284 1555 c 0
 -305 1545 -321 1535 -332 1526 c 1
EndSplineSet
EndChar
StartChar: uni0E4D
Encoding: 169 3661
OldEncoding: 3661
Width: 0
VWidth: 1000
Flags: HW
Fore
-346 1024 m 0
 -346 991 -334 964 -310 941 c 0
 -286 919 -259 907 -227 907 c 0
 -196 907 -169 919 -145 941 c 0
 -122 964 -111 991 -111 1024 c 0
 -111 1057 -122 1085 -145 1108 c 0
 -169 1131 -196 1143 -227 1143 c 0
 -259 1143 -286 1131 -310 1108 c 0
 -334 1085 -346 1057 -346 1024 c 0
-295 1024 m 0
 -295 1043 -288 1059 -275 1072 c 0
 -262 1085 -246 1092 -227 1092 c 0
 -208 1092 -193 1085 -180 1072 c 0
 -168 1059 -162 1043 -162 1024 c 0
 -162 1005 -168 989 -180 977 c 0
 -193 965 -208 958 -227 958 c 0
 -246 958 -262 965 -275 977 c 0
 -288 989 -295 1005 -295 1024 c 0
EndSplineSet
EndChar
StartChar: uni0E4E
Encoding: 170 3662
OldEncoding: 3662
Width: 0
VWidth: 1000
Flags: HW
Fore
-41 1204 m 2
 -43 1206 l 2
 -50 1214 -60 1224 -74 1236 c 0
 -87 1248 -106 1253 -129 1253 c 2
 -139 1253 l 2
 -156 1252 -171 1245 -184 1233 c 0
 -198 1221 -208 1205 -215 1186 c 0
 -218 1175 -219 1167 -219 1163 c 0
 -219 1152 -217 1142 -214 1134 c 0
 -211 1125 -207 1116 -203 1108 c 0
 -201 1105 -200 1102 -199 1098 c 0
 -197 1094 -197 1090 -197 1087 c 0
 -197 1083 -199 1080 -203 1077 c 0
 -207 1075 -211 1073 -215 1073 c 0
 -223 1073 -229 1077 -231 1083 c 0
 -245 1105 -258 1119 -271 1123 c 0
 -284 1128 -301 1130 -322 1130 c 0
 -338 1130 -354 1124 -371 1112 c 0
 -387 1100 -397 1085 -401 1067 c 0
 -403 1062 -403 1054 -403 1044 c 0
 -403 1025 -399 1009 -390 995 c 0
 -381 982 -368 973 -350 971 c 2
 -342 971 l 2
 -328 971 -315 974 -301 981 c 0
 -287 988 -278 995 -272 1004 c 1
 -281 965 l 1
 -301 940 -330 928 -369 928 c 0
 -377 928 -388 929 -401 932 c 0
 -429 940 -450 955 -464 978 c 0
 -478 1000 -485 1025 -485 1051 c 0
 -485 1075 -481 1097 -471 1116 c 0
 -457 1143 -439 1164 -415 1179 c 0
 -391 1193 -366 1200 -340 1200 c 0
 -314 1200 -289 1193 -266 1178 c 1
 -268 1183 -268 1191 -268 1202 c 0
 -268 1213 -267 1224 -265 1235 c 0
 -263 1246 -259 1257 -252 1268 c 0
 -244 1283 -230 1294 -212 1303 c 0
 -194 1311 -177 1315 -162 1315 c 0
 -136 1315 -112 1310 -89 1299 c 0
 -67 1289 -48 1274 -35 1253 c 0
 -31 1247 -27 1239 -23 1230 c 0
 -18 1221 -16 1213 -16 1206 c 0
 -16 1199 -19 1196 -25 1196 c 0
 -31 1196 -37 1199 -41 1204 c 2
EndSplineSet
EndChar
StartChar: uni0E4F
Encoding: 171 3663
OldEncoding: 3663
Width: 1118
VWidth: 1000
Flags: HW
Fore
160 393 m 0
 160 339 170 287 190 240 c 0
 211 192 239 150 274 115 c 0
 310 79 352 51 399 31 c 0
 447 10 498 0 553 0 c 0
 608 0 659 10 707 31 c 0
 754 51 796 79 833 115 c 0
 869 150 897 192 918 240 c 0
 938 287 948 339 948 393 c 0
 948 448 938 499 918 547 c 0
 897 595 869 637 833 673 c 0
 796 709 754 737 707 758 c 0
 659 778 608 788 553 788 c 0
 498 788 447 778 399 758 c 0
 352 737 310 709 274 673 c 0
 239 637 211 595 190 547 c 0
 170 499 160 448 160 393 c 0
201 397 m 0
 201 445 210 490 228 534 c 0
 247 577 272 614 303 645 c 0
 335 677 371 701 414 720 c 0
 456 738 501 748 549 748 c 0
 597 748 642 738 685 720 c 0
 728 701 765 677 797 645 c 0
 828 614 853 577 871 534 c 0
 890 490 899 445 899 397 c 0
 899 350 890 304 871 262 c 0
 853 220 828 183 797 152 c 0
 765 120 728 95 685 77 c 0
 642 58 597 49 549 49 c 0
 501 49 456 58 414 77 c 0
 371 95 335 120 303 152 c 0
 272 183 247 220 228 262 c 0
 210 304 201 350 201 397 c 0
356 393 m 0
 356 337 375 290 413 253 c 0
 450 215 497 197 553 197 c 0
 609 197 656 215 694 253 c 0
 733 290 752 337 752 393 c 0
 752 449 733 496 694 535 c 0
 656 573 609 592 553 592 c 0
 497 592 450 573 413 535 c 0
 375 496 356 449 356 393 c 0
401 393 m 0
 401 436 416 472 445 502 c 0
 475 532 511 547 553 547 c 0
 595 547 631 532 662 502 c 0
 692 472 707 436 707 393 c 0
 707 351 692 315 662 286 c 0
 631 256 595 242 553 242 c 0
 511 242 475 256 445 286 c 0
 416 315 401 351 401 393 c 0
EndSplineSet
EndChar
StartChar: uni0E50
Encoding: 172 3664
OldEncoding: 3664
Width: 962
VWidth: 1000
Flags: HW
Fore
156 291 m 0
 156 248 164 209 181 173 c 0
 198 137 221 105 250 78 c 0
 279 51 312 29 351 13 c 0
 390 -2 432 -10 477 -10 c 0
 522 -10 564 -2 603 13 c 0
 642 29 676 51 705 78 c 0
 733 105 756 137 773 173 c 0
 790 209 799 248 799 291 c 0
 799 333 790 373 773 410 c 0
 756 446 733 479 705 506 c 0
 676 533 642 555 603 570 c 0
 564 586 522 594 477 594 c 0
 432 594 390 586 351 570 c 0
 312 555 279 533 250 506 c 0
 221 479 198 446 181 410 c 0
 164 373 156 333 156 291 c 0
270 285 m 0
 270 322 276 356 287 388 c 0
 298 420 312 449 331 473 c 0
 349 498 371 517 396 530 c 0
 422 544 449 551 477 551 c 0
 506 551 533 544 558 530 c 0
 583 517 605 498 624 473 c 0
 642 449 657 420 668 388 c 0
 679 356 684 322 684 285 c 0
 684 248 679 213 668 181 c 0
 657 149 642 121 624 97 c 0
 605 73 583 55 558 41 c 0
 533 27 506 20 477 20 c 0
 449 20 422 27 396 41 c 0
 371 55 349 73 331 97 c 0
 312 121 298 149 287 181 c 0
 276 213 270 248 270 285 c 0
EndSplineSet
EndChar
StartChar: uni0E51
Encoding: 173 3665
OldEncoding: 3665
Width: 962
VWidth: 1000
Flags: HW
Fore
807 274 m 0
 807 321 798 364 780 402 c 0
 763 441 738 475 708 504 c 0
 677 532 641 555 601 570 c 0
 561 586 518 594 473 594 c 0
 431 594 390 586 352 571 c 0
 314 556 280 535 250 508 c 0
 220 481 196 449 178 412 c 0
 160 375 152 334 152 289 c 0
 152 253 157 218 169 182 c 0
 181 147 197 115 219 86 c 0
 241 57 267 34 298 15 c 0
 329 -3 363 -12 401 -12 c 0
 509 -12 563 51 563 176 c 0
 563 209 554 239 537 267 c 0
 519 295 494 309 463 309 c 0
 431 309 407 298 389 274 c 0
 371 251 362 223 362 190 c 0
 362 162 371 135 389 110 c 0
 407 84 429 72 457 72 c 0
 481 72 500 80 514 96 c 1
 498 55 470 35 430 35 c 0
 378 35 335 65 301 125 c 0
 287 148 278 173 273 201 c 0
 269 228 266 257 266 287 c 0
 266 318 271 349 280 380 c 0
 288 411 302 439 319 465 c 0
 337 491 359 512 385 527 c 0
 411 543 440 551 473 551 c 0
 510 551 542 543 570 526 c 0
 598 510 622 489 640 463 c 0
 658 437 672 407 681 374 c 0
 690 340 694 307 694 272 c 0
 694 139 647 46 553 -6 c 1
 565 -27 l 1
 601 -27 633 -17 663 3 c 0
 692 23 717 48 739 78 c 0
 761 108 778 141 790 176 c 0
 801 212 807 244 807 274 c 0
508 190 m 0
 507 140 489 115 457 115 c 0
 442 115 429 122 420 135 c 0
 410 149 406 167 406 190 c 0
 406 214 410 232 420 246 c 0
 429 259 442 266 457 266 c 0
 472 266 484 258 494 241 c 0
 503 224 508 207 508 190 c 0
EndSplineSet
EndChar
StartChar: uni0E52
Encoding: 174 3666
OldEncoding: 3666
Width: 962
VWidth: 1000
Flags: HW
Fore
842 319 m 0
 842 193 817 105 768 57 c 0
 745 35 716 19 683 9 c 0
 650 -1 615 -6 580 -6 c 2
 365 -6 l 2
 318 -6 279 2 248 18 c 0
 216 35 192 57 174 84 c 0
 159 107 148 137 142 172 c 0
 136 208 133 249 133 297 c 2
 133 645 l 2
 133 784 105 870 49 901 c 1
 74 924 l 1
 183 874 238 752 238 557 c 2
 238 201 l 2
 238 135 257 87 295 57 c 0
 300 52 309 46 319 41 c 0
 330 35 344 33 360 33 c 2
 598 33 l 2
 617 33 633 35 645 39 c 0
 657 43 667 48 674 55 c 0
 689 70 701 89 712 112 c 0
 722 134 727 163 727 199 c 2
 727 434 l 2
 727 516 703 557 655 557 c 0
 620 557 596 517 584 436 c 1
 551 436 l 1
 545 474 537 504 524 525 c 0
 512 546 496 557 475 557 c 0
 445 557 421 537 401 496 c 0
 393 477 388 459 386 442 c 0
 384 426 383 410 383 395 c 1
 391 408 408 414 432 414 c 0
 462 414 485 401 501 377 c 0
 516 352 524 324 524 293 c 0
 524 263 517 236 502 213 c 0
 484 187 460 174 430 174 c 0
 415 174 397 180 377 191 c 0
 356 203 340 222 328 248 c 0
 309 286 299 330 299 381 c 0
 299 408 303 435 312 460 c 0
 321 485 333 508 348 527 c 0
 363 547 382 563 404 575 c 0
 427 588 451 594 477 594 c 0
 513 594 543 573 567 530 c 1
 589 573 618 594 655 594 c 0
 780 594 842 502 842 319 c 0
483 295 m 0
 483 311 479 328 469 345 c 0
 459 362 447 371 432 371 c 0
 417 371 405 364 395 350 c 0
 386 337 381 318 381 295 c 0
 381 272 386 253 395 240 c 0
 405 226 417 219 432 219 c 0
 465 219 482 244 483 295 c 0
EndSplineSet
EndChar
StartChar: uni0E53
Encoding: 175 3667
OldEncoding: 3667
Width: 962
VWidth: 1000
Flags: HW
Fore
856 311 m 0
 856 281 852 249 843 214 c 0
 834 179 821 146 803 115 c 0
 785 83 764 56 738 32 c 0
 713 8 685 -7 653 -12 c 1
 631 14 l 1
 705 50 741 148 741 309 c 0
 741 327 740 349 736 374 c 0
 733 399 727 424 718 447 c 0
 709 471 697 492 683 508 c 0
 669 524 651 532 629 532 c 0
 577 532 537 490 510 406 c 1
 477 406 l 1
 444 490 406 532 360 532 c 0
 336 532 315 524 298 506 c 0
 281 488 267 466 257 440 c 0
 247 414 239 387 234 359 c 0
 230 331 227 307 227 287 c 0
 227 164 260 84 326 47 c 0
 319 53 314 61 310 74 c 0
 307 86 305 99 305 113 c 0
 305 143 314 170 331 194 c 0
 348 217 371 229 399 229 c 0
 428 229 451 217 469 193 c 0
 487 168 496 141 496 111 c 0
 496 34 464 -4 399 -4 c 0
 315 -4 245 23 190 78 c 0
 136 132 109 203 109 289 c 0
 109 324 114 360 126 396 c 0
 138 432 154 465 175 495 c 0
 196 524 222 548 252 566 c 0
 282 585 316 594 354 594 c 0
 413 594 459 553 492 471 c 1
 523 552 573 592 641 592 c 0
 675 592 706 583 732 566 c 0
 759 549 781 527 800 501 c 0
 818 474 832 444 842 411 c 0
 851 377 856 344 856 311 c 0
451 109 m 0
 451 125 446 142 436 159 c 0
 427 176 414 184 399 184 c 0
 384 184 372 179 364 167 c 0
 355 155 350 136 350 109 c 0
 350 85 355 67 364 53 c 0
 372 40 384 33 399 33 c 0
 433 33 451 58 451 109 c 0
EndSplineSet
EndChar
StartChar: uni0E54
Encoding: 176 3668
OldEncoding: 3668
Width: 962
VWidth: 1000
Flags: HW
Fore
874 928 m 1
 890 895 898 860 899 823 c 0
 899 703 801 611 606 547 c 0
 489 509 407 477 360 451 c 0
 269 397 223 329 223 246 c 0
 223 187 249 142 301 111 c 0
 345 83 398 70 461 70 c 0
 498 70 541 76 590 88 c 1
 576 91 561 98 545 110 c 0
 528 121 511 137 494 158 c 0
 481 173 472 189 467 208 c 0
 461 226 459 245 459 264 c 0
 459 305 470 340 493 370 c 0
 515 399 547 414 588 414 c 0
 615 414 637 401 654 377 c 0
 671 352 680 326 680 297 c 0
 680 267 672 240 655 215 c 0
 639 190 616 178 588 178 c 0
 578 178 569 180 561 184 c 1
 578 157 626 129 707 100 c 0
 787 73 837 45 856 16 c 1
 821 0 l 1
 769 26 712 39 649 39 c 0
 614 39 554 31 469 14 c 0
 429 5 397 0 371 0 c 0
 296 0 234 20 186 59 c 0
 134 103 109 161 109 233 c 0
 109 333 157 415 254 479 c 0
 314 519 408 558 535 596 c 0
 743 660 848 743 848 846 c 1
 842 901 l 1
 874 928 l 1
637 295 m 0
 637 311 632 328 623 345 c 0
 613 362 601 371 586 371 c 0
 571 371 558 365 549 353 c 0
 539 342 535 322 535 295 c 0
 535 272 539 253 548 240 c 0
 557 226 569 219 586 219 c 0
 620 219 637 244 637 295 c 0
EndSplineSet
EndChar
StartChar: uni0E55
Encoding: 177 3669
OldEncoding: 3669
Width: 962
VWidth: 1000
Flags: HW
Fore
874 928 m 1
 891 894 899 858 899 821 c 0
 899 704 803 613 610 549 c 0
 602 546 593 544 583 544 c 0
 572 543 563 541 553 539 c 0
 546 533 535 527 519 519 c 0
 503 512 487 504 471 498 c 0
 419 474 377 454 345 435 c 0
 313 417 290 401 276 387 c 0
 241 347 223 300 223 246 c 0
 223 187 249 142 301 111 c 0
 345 83 398 70 461 70 c 0
 498 70 541 76 590 88 c 1
 573 89 557 96 542 109 c 0
 526 121 512 136 500 154 c 0
 487 171 478 190 470 210 c 0
 463 230 459 248 459 264 c 0
 459 364 502 414 588 414 c 0
 615 414 637 401 654 377 c 0
 671 352 680 326 680 297 c 0
 680 267 672 240 655 215 c 0
 639 190 616 178 588 178 c 0
 578 178 569 180 561 184 c 1
 578 157 626 129 707 100 c 0
 787 73 837 45 856 16 c 1
 821 0 l 1
 769 26 712 39 649 39 c 0
 614 39 554 31 469 14 c 0
 429 5 397 0 371 0 c 0
 296 0 234 20 186 59 c 0
 134 103 109 161 109 233 c 0
 109 325 145 399 217 457 c 0
 243 476 275 495 314 514 c 0
 353 533 399 552 453 569 c 1
 414 591 395 623 395 664 c 0
 395 696 407 723 429 744 c 0
 452 766 479 776 512 776 c 0
 543 776 570 766 593 744 c 0
 615 723 627 697 627 666 c 0
 627 657 623 642 616 618 c 1
 772 674 850 748 850 840 c 2
 850 862 l 1
 842 901 l 1
 874 928 l 1
567 655 m 0
 567 696 549 717 512 717 c 0
 477 717 459 696 459 653 c 0
 459 621 483 600 532 592 c 1
 556 612 567 634 567 655 c 0
637 295 m 0
 637 313 632 330 623 346 c 0
 613 362 601 371 586 371 c 0
 571 371 558 364 549 350 c 0
 539 337 535 318 535 295 c 0
 535 272 539 253 549 240 c 0
 558 226 571 219 586 219 c 0
 620 219 637 244 637 295 c 0
EndSplineSet
EndChar
StartChar: uni0E56
Encoding: 178 3670
OldEncoding: 3670
Width: 962
VWidth: 1000
Flags: HW
Fore
819 289 m 0
 819 201 788 129 727 72 c 0
 668 17 594 -10 504 -10 c 0
 427 -10 361 8 305 45 c 0
 244 89 213 148 213 223 c 0
 213 259 224 290 245 316 c 0
 266 343 294 356 328 356 c 0
 358 356 382 345 400 322 c 0
 419 298 428 271 428 240 c 0
 428 210 420 183 403 160 c 0
 384 132 361 119 334 119 c 0
 324 119 315 121 307 125 c 1
 351 61 416 29 504 29 c 0
 595 29 657 79 690 180 c 0
 700 208 705 243 705 287 c 0
 705 352 687 411 651 463 c 0
 612 519 560 547 498 547 c 0
 420 547 354 520 299 465 c 1
 231 500 l 1
 244 537 250 573 250 610 c 0
 250 670 234 728 203 784 c 0
 167 846 122 883 68 897 c 1
 72 924 l 1
 144 924 205 888 256 817 c 0
 305 752 330 683 330 610 c 0
 330 582 327 560 322 545 c 1
 371 578 429 594 498 594 c 0
 543 594 585 586 625 571 c 0
 664 556 698 536 727 509 c 0
 756 482 778 450 795 413 c 0
 811 375 819 334 819 289 c 0
385 238 m 0
 385 254 380 271 371 288 c 0
 361 305 349 313 334 313 c 0
 319 313 307 307 297 294 c 0
 287 281 283 262 283 238 c 0
 283 214 287 196 297 182 c 0
 307 169 319 162 334 162 c 0
 368 162 385 187 385 238 c 0
EndSplineSet
EndChar
StartChar: uni0E57
Encoding: 179 3671
OldEncoding: 3671
Width: 962
VWidth: 1000
Flags: HW
Fore
817 895 m 1
 862 743 885 603 885 475 c 0
 885 235 818 80 684 10 c 0
 672 3 658 -0 644 -1 c 0
 630 -2 617 -2 606 -2 c 0
 598 -2 590 -2 582 -1 c 0
 573 -0 565 1 557 2 c 1
 569 29 580 54 588 76 c 0
 596 98 603 120 608 142 c 0
 614 165 617 189 620 216 c 0
 622 243 623 274 623 309 c 0
 623 327 621 349 618 374 c 0
 616 399 610 424 602 447 c 0
 594 471 583 492 570 508 c 0
 557 524 541 532 520 532 c 0
 479 532 447 490 424 406 c 1
 391 406 l 1
 372 490 343 532 303 532 c 0
 281 532 263 523 249 505 c 0
 234 486 223 464 214 438 c 0
 205 412 199 386 196 358 c 0
 192 331 190 309 190 291 c 0
 190 160 210 79 250 47 c 1
 238 66 231 88 231 113 c 0
 231 141 240 168 258 193 c 0
 276 217 298 229 326 229 c 0
 354 229 378 217 395 193 c 0
 413 168 422 141 422 111 c 0
 422 78 413 51 394 29 c 0
 376 7 351 -4 319 -4 c 0
 281 -4 247 4 217 22 c 0
 187 39 161 61 140 88 c 0
 119 115 103 146 92 181 c 0
 81 216 76 252 76 289 c 0
 76 324 80 360 89 395 c 0
 98 431 112 464 130 494 c 0
 148 524 172 548 201 566 c 0
 229 585 263 594 301 594 c 0
 330 594 354 582 373 559 c 0
 392 536 403 509 408 479 c 1
 412 509 425 536 447 558 c 0
 470 581 496 592 526 592 c 0
 563 592 595 583 621 566 c 0
 646 549 667 527 683 501 c 0
 699 474 710 444 718 410 c 0
 725 375 729 342 729 309 c 0
 729 229 707 148 664 68 c 1
 710 110 747 193 774 315 c 0
 785 363 793 410 797 456 c 0
 801 501 803 547 803 594 c 0
 803 692 793 795 772 903 c 1
 817 895 l 1
377 109 m 0
 377 125 372 142 362 159 c 0
 353 176 341 184 326 184 c 0
 311 184 298 178 289 166 c 0
 279 154 274 134 274 109 c 0
 274 85 279 67 289 53 c 0
 298 40 311 33 326 33 c 0
 360 33 377 58 377 109 c 0
EndSplineSet
EndChar
StartChar: uni0E58
Encoding: 180 3672
OldEncoding: 3672
Width: 962
VWidth: 1000
Flags: HW
Fore
872 922 m 1
 886 866 893 810 893 754 c 0
 893 554 821 455 676 455 c 0
 643 455 616 455 594 456 c 0
 572 456 552 458 532 461 c 0
 509 464 485 466 459 467 c 0
 433 468 404 470 373 473 c 2
 362 473 l 2
 311 473 269 455 239 419 c 0
 208 383 193 337 193 281 c 0
 193 193 223 134 285 102 c 1
 283 109 283 115 283 121 c 0
 283 128 283 134 283 139 c 0
 283 177 289 205 303 221 c 0
 317 238 335 246 358 246 c 0
 379 246 427 214 504 150 c 0
 579 87 636 55 676 55 c 0
 703 55 721 69 729 96 c 1
 711 92 l 1
 679 92 656 105 641 132 c 0
 626 159 618 185 618 211 c 0
 618 240 627 266 644 291 c 0
 661 315 683 328 711 328 c 0
 779 328 813 279 813 182 c 0
 813 61 764 0 666 0 c 0
 631 0 582 20 518 59 c 0
 446 106 401 129 385 129 c 0
 366 129 353 123 346 112 c 0
 339 100 336 86 336 70 c 0
 336 57 338 45 341 32 c 0
 344 19 348 7 352 -4 c 1
 274 5 214 39 172 95 c 0
 130 152 109 221 109 303 c 0
 109 343 115 380 129 414 c 0
 143 448 161 478 185 503 c 0
 209 528 238 548 271 562 c 0
 305 577 341 584 381 584 c 0
 408 584 438 582 470 578 c 0
 502 573 538 568 578 561 c 0
 621 553 655 549 680 549 c 0
 741 549 787 582 817 647 c 0
 839 691 850 750 850 825 c 2
 850 860 l 1
 846 899 l 1
 872 922 l 1
762 211 m 0
 762 227 757 244 748 261 c 0
 738 278 726 287 711 287 c 0
 696 287 683 280 674 266 c 0
 664 253 659 234 659 211 c 0
 659 188 665 169 675 156 c 0
 685 142 697 135 711 135 c 0
 745 135 762 160 762 211 c 0
EndSplineSet
EndChar
StartChar: uni0E59
Encoding: 181 3673
OldEncoding: 3673
Width: 962
VWidth: 1000
Flags: HW
Fore
866 922 m 1
 891 863 903 801 903 737 c 0
 903 673 890 615 862 563 c 0
 829 503 782 473 721 473 c 0
 699 473 677 480 655 494 c 0
 642 503 630 511 620 516 c 0
 609 522 601 524 594 524 c 0
 571 524 559 503 559 461 c 0
 559 447 560 434 563 421 c 0
 566 408 569 396 573 385 c 0
 617 276 657 189 692 124 c 0
 728 59 765 18 805 0 c 1
 715 0 l 2
 681 0 605 133 487 399 c 0
 448 488 403 532 354 532 c 0
 311 532 277 515 254 480 c 0
 231 445 219 406 219 360 c 2
 219 344 l 1
 225 268 236 208 252 164 c 0
 268 120 293 85 326 57 c 0
 334 51 342 45 350 42 c 0
 358 39 364 37 367 37 c 1
 346 61 336 91 336 127 c 0
 336 157 344 184 360 208 c 0
 377 232 399 244 428 244 c 0
 457 244 479 232 496 208 c 0
 512 184 520 157 520 127 c 0
 520 41 468 -2 362 -2 c 0
 215 -2 126 95 96 289 c 0
 95 298 94 307 93 315 c 0
 93 324 92 332 92 340 c 0
 92 380 99 414 114 444 c 0
 128 474 145 500 166 520 c 0
 215 569 278 594 354 594 c 0
 418 594 468 563 502 500 c 1
 502 526 511 547 529 565 c 0
 548 583 570 592 596 592 c 0
 618 592 646 584 680 569 c 0
 696 561 712 557 727 557 c 0
 768 557 799 590 821 655 c 0
 838 703 846 752 846 803 c 0
 844 838 843 862 842 874 c 0
 840 887 839 894 838 897 c 1
 866 922 l 1
479 127 m 0
 479 143 474 160 465 177 c 0
 455 194 443 203 428 203 c 0
 413 203 401 197 391 184 c 0
 382 172 377 153 377 127 c 0
 377 104 381 85 390 72 c 0
 399 58 412 51 428 51 c 0
 462 51 479 76 479 127 c 0
EndSplineSet
EndChar
StartChar: uni0E5A
Encoding: 182 3674
OldEncoding: 3674
Width: 997
VWidth: 1000
Flags: HW
Fore
547 223 m 2
 547 181 538 138 519 95 c 0
 501 52 473 20 436 0 c 1
 328 0 l 1
 344 15 360 30 375 46 c 0
 390 62 403 78 414 94 c 0
 423 109 430 130 434 156 c 0
 438 182 440 204 440 223 c 2
 440 651 l 2
 440 668 433 676 420 676 c 0
 413 676 406 669 399 656 c 0
 393 643 382 625 367 600 c 0
 341 554 322 526 309 516 c 0
 297 505 284 497 270 490 c 0
 257 484 239 481 217 481 c 0
 167 481 126 498 96 532 c 0
 66 567 51 606 51 649 c 0
 51 693 62 727 85 752 c 0
 108 776 137 788 172 788 c 0
 203 788 227 776 242 750 c 0
 257 724 264 696 264 668 c 0
 264 642 257 617 242 594 c 0
 224 568 201 555 174 555 c 2
 158 557 l 1
 166 550 176 545 187 542 c 0
 199 538 211 537 223 537 c 0
 241 537 256 544 267 558 c 0
 279 572 287 584 293 594 c 0
 298 602 305 614 312 629 c 0
 320 644 327 659 335 675 c 0
 342 691 350 705 357 718 c 0
 365 731 371 740 375 745 c 0
 386 759 398 770 412 777 c 0
 425 785 444 788 467 788 c 0
 486 788 504 782 521 769 c 0
 538 756 547 733 547 698 c 1
 562 726 582 748 608 764 c 0
 634 780 661 788 688 788 c 0
 722 788 752 777 776 755 c 0
 801 732 813 699 813 655 c 2
 813 223 l 2
 813 204 811 182 807 158 c 0
 803 133 797 112 791 94 c 0
 774 55 748 23 713 0 c 1
 594 0 l 1
 612 15 628 31 644 47 c 0
 660 63 672 79 680 94 c 0
 688 109 695 130 699 156 c 0
 704 182 707 204 707 223 c 2
 707 614 l 1
 705 634 701 650 693 664 c 0
 686 677 671 684 649 684 c 0
 619 684 595 674 575 654 c 0
 556 635 547 612 547 588 c 2
 547 223 l 2
223 668 m 0
 223 691 218 708 209 720 c 0
 199 731 188 737 174 737 c 0
 156 737 143 731 135 718 c 0
 127 705 123 688 123 668 c 0
 123 644 128 627 137 614 c 0
 147 602 159 596 174 596 c 0
 207 596 223 620 223 668 c 0
EndSplineSet
EndChar
StartChar: uni0E5B
Encoding: 183 3675
OldEncoding: 3675
Width: 2250
VWidth: 1000
Flags: HW
Fore
1413 324 m 1
 1888 324 l 2
 1936 324 1978 326 2015 330 c 0
 2052 334 2081 343 2103 358 c 0
 2118 369 2130 382 2138 395 c 0
 2146 409 2150 426 2150 446 c 0
 2150 479 2140 505 2120 524 c 0
 2099 543 2073 553 2042 553 c 0
 2019 553 1991 543 1960 522 c 0
 1950 515 1941 510 1932 505 c 0
 1923 500 1909 496 1890 494 c 1
 1912 494 1931 497 1948 504 c 0
 1967 512 1983 517 1998 519 c 0
 2012 521 2023 522 2030 522 c 0
 2045 522 2059 516 2074 505 c 0
 2088 493 2095 474 2095 449 c 0
 2095 421 2081 400 2052 385 c 0
 2018 366 1967 356 1901 356 c 2
 1423 356 l 2
 1403 356 1385 358 1369 360 c 0
 1353 363 1337 371 1321 385 c 0
 1306 396 1295 415 1287 441 c 0
 1280 468 1274 494 1270 518 c 1
 1219 340 l 1
 1151 569 l 1
 1081 315 l 1
 999 614 l 1
 991 600 l 1
 928 291 l 1
 840 670 l 1
 831 662 l 1
 808 562 787 480 768 415 c 0
 749 350 732 302 717 270 c 0
 695 223 667 185 634 158 c 0
 600 130 561 117 516 117 c 0
 479 117 448 125 422 142 c 0
 396 159 375 182 358 210 c 0
 342 238 330 270 323 305 c 0
 315 341 311 376 311 412 c 0
 311 443 315 474 322 506 c 0
 328 537 339 565 353 590 c 0
 368 614 386 635 408 650 c 0
 429 666 455 674 485 674 c 0
 507 674 527 668 545 656 c 0
 563 645 578 630 590 612 c 0
 605 591 616 567 623 542 c 0
 629 516 633 494 633 475 c 0
 633 459 631 440 628 419 c 0
 624 398 618 378 610 360 c 0
 602 343 591 328 577 315 c 0
 562 303 545 297 524 297 c 0
 508 297 496 299 489 302 c 0
 483 305 478 309 475 311 c 1
 497 311 514 320 527 337 c 0
 540 354 547 375 547 401 c 0
 547 427 540 450 525 468 c 0
 511 486 493 496 471 496 c 0
 451 496 432 486 417 466 c 0
 401 446 393 425 393 401 c 0
 393 365 404 331 426 301 c 0
 448 271 481 256 524 256 c 0
 550 256 574 262 595 273 c 0
 616 285 634 301 649 322 c 0
 664 342 676 366 684 393 c 0
 692 421 696 449 696 479 c 0
 696 516 690 551 677 584 c 0
 664 616 647 645 627 670 c 0
 610 689 589 703 564 712 c 0
 539 721 513 725 485 725 c 0
 449 725 415 716 386 697 c 0
 357 679 332 654 311 622 c 0
 291 589 275 553 263 511 c 0
 252 469 246 425 246 377 c 0
 246 326 253 282 268 243 c 0
 283 204 303 172 328 146 c 0
 352 121 381 102 414 89 c 0
 446 76 481 70 516 70 c 0
 556 70 590 78 618 95 c 0
 647 112 674 137 700 168 c 0
 720 193 741 234 764 294 c 0
 787 353 810 429 834 520 c 1
 922 141 l 1
 930 147 l 1
 997 459 l 1
 1073 172 l 1
 1147 440 l 1
 1212 219 l 1
 1270 410 l 1
 1281 378 1299 356 1324 343 c 0
 1349 330 1380 324 1415 324 c 2
 1413 324 l 1
508 401 m 0
 508 363 496 344 471 344 c 0
 448 344 436 363 436 401 c 0
 436 421 440 435 446 443 c 0
 453 452 461 457 471 457 c 0
 496 457 508 438 508 401 c 0
EndSplineSet
EndChar
StartChar: zerospace
Encoding: 184 8203
OldEncoding: 8203
Width: 1064
VWidth: 1000
Flags: HW
Fore
977 -244 m 1
 889 -244 l 1
 889 -70 l 2
 889 -23 862 -0 807 0 c 2
 287 0 l 2
 242 0 219 -21 219 -63 c 2
 219 -244 l 1
 131 -244 l 1
 131 80 l 1
 977 80 l 1
 977 -244 l 1
EndSplineSet
EndChar
StartChar: endash
Encoding: 185 8211
OldEncoding: 8211
Width: 1128
VWidth: 1000
Flags: HW
Fore
1026 350 m 1
 86 350 l 1
 86 420 l 1
 1026 420 l 1
 1026 350 l 1
EndSplineSet
EndChar
StartChar: emdash
Encoding: 186 8212
OldEncoding: 8212
Width: 2256
VWidth: 1000
Flags: HW
Fore
2052 350 m 1
 86 350 l 1
 86 420 l 1
 2052 420 l 1
 2052 350 l 1
EndSplineSet
EndChar
StartChar: quoteleft
Encoding: 187 8216
OldEncoding: 8216
Width: 333
VWidth: 1000
Flags: HW
Fore
268 705 m 0
 268 679 259 657 242 641 c 0
 227 630 208 623 186 621 c 0
 162 621 138 629 115 645 c 1
 85 671 70 709 70 758 c 0
 70 801 91 847 135 895 c 0
 171 935 202 959 229 969 c 1
 244 942 l 1
 165 892 125 841 125 791 c 0
 125 778 132 771 145 770 c 2
 164 772 l 1
 180 776 l 1
 239 776 268 752 268 705 c 0
EndSplineSet
EndChar
StartChar: quoteright
Encoding: 188 8217
OldEncoding: 8217
Width: 333
VWidth: 1000
Flags: HW
Fore
268 831 m 0
 268 796 251 754 215 707 c 0
 182 667 147 638 109 621 c 1
 96 647 l 1
 174 699 213 750 213 801 c 0
 213 813 206 819 193 819 c 2
 176 817 l 1
 158 815 l 2
 99 815 70 839 70 887 c 0
 70 935 98 962 154 969 c 1
 178 969 201 961 223 944 c 0
 253 918 268 881 268 831 c 0
EndSplineSet
EndChar
StartChar: quotedblleft
Encoding: 189 8220
OldEncoding: 8220
Width: 677
VWidth: 1000
Flags: HW
Fore
567 707 m 0
 567 644 541 612 489 612 c 0
 413 612 375 656 375 743 c 0
 375 835 428 910 535 969 c 1
 549 942 l 1
 471 893 432 842 432 791 c 0
 432 782 436 777 444 774 c 1
 455 789 471 797 492 797 c 0
 542 798 567 768 567 707 c 0
270 707 m 0
 270 644 244 612 193 612 c 0
 116 612 78 656 78 743 c 0
 78 835 131 910 238 969 c 1
 252 942 l 1
 174 893 135 842 135 791 c 0
 135 782 139 777 147 774 c 1
 158 789 174 797 195 797 c 0
 245 798 270 768 270 707 c 0
EndSplineSet
EndChar
StartChar: quotedblright
Encoding: 190 8221
OldEncoding: 8221
Width: 677
VWidth: 1000
Flags: HW
Fore
567 846 m 0
 567 756 514 681 408 621 c 1
 393 647 l 1
 471 696 510 747 510 799 c 0
 510 808 506 814 498 815 c 1
 487 800 471 793 451 793 c 0
 400 791 375 821 375 883 c 0
 375 945 401 977 453 977 c 0
 529 977 567 933 567 846 c 0
270 846 m 0
 270 756 217 681 111 621 c 1
 96 647 l 1
 174 696 213 747 213 799 c 0
 213 808 209 814 201 815 c 1
 190 800 174 793 154 793 c 0
 103 791 78 821 78 883 c 0
 78 945 104 977 156 977 c 0
 232 977 270 933 270 846 c 0
EndSplineSet
EndChar
StartChar: bullet
Encoding: 191 8226
OldEncoding: 8226
Width: 552
VWidth: 1000
Flags: HW
Fore
469 475 m 0
 469 449 464 424 454 400 c 0
 443 376 429 356 412 338 c 0
 394 320 373 306 350 296 c 0
 327 286 302 281 274 281 c 0
 248 281 224 286 200 296 c 0
 176 306 155 320 138 338 c 0
 121 356 108 376 97 400 c 0
 87 424 82 449 82 475 c 0
 82 502 87 528 97 551 c 0
 108 574 121 594 138 611 c 0
 155 628 176 642 200 652 c 0
 224 663 248 668 274 668 c 0
 302 668 327 663 350 652 c 0
 373 642 394 628 412 611 c 0
 429 594 443 574 454 551 c 0
 464 528 469 502 469 475 c 0
EndSplineSet
EndChar
StartChar: ellipsis
Encoding: 192 8230
OldEncoding: 8230
Width: 1087
VWidth: 1000
Flags: HW
Fore
932 61 m 0
 932 16 905 -9 852 -14 c 1
 804 -14 778 11 772 61 c 1
 772 116 799 143 852 143 c 0
 874 143 893 135 909 119 c 0
 922 104 929 85 932 61 c 0
618 61 m 0
 618 16 592 -9 539 -14 c 1
 491 -14 464 11 459 61 c 1
 459 116 485 143 539 143 c 0
 560 143 580 135 596 119 c 0
 608 104 616 85 618 61 c 0
305 61 m 0
 305 11 279 -14 225 -14 c 0
 172 -14 145 11 145 61 c 0
 145 116 172 143 225 143 c 0
 279 143 305 116 305 61 c 0
EndSplineSet
EndChar
StartChar: DEL
Encoding: 193 8718
OldEncoding: 8718
Width: 546
VWidth: 1000
Flags: HW
Fore
479 -4 m 1
 0 -4 l 1
 0 1208 l 1
 479 1208 l 1
 479 -4 l 1
EndSplineSet
EndChar
StartChar: uniF700
Encoding: 194 63232
OldEncoding: 63232
Width: 727
VWidth: 1000
Flags: HW
Fore
502 403 m 1
 500 474 465 530 395 569 c 0
 339 599 270 614 188 614 c 0
 164 614 146 614 135 613 c 0
 124 613 115 612 109 610 c 1
 126 669 175 698 256 698 c 0
 268 698 284 695 303 689 c 0
 322 683 343 677 367 670 c 0
 391 662 412 656 430 652 c 0
 448 649 462 647 473 647 c 0
 550 647 600 691 625 778 c 1
 582 778 l 1
 572 758 561 741 550 727 c 0
 538 713 521 707 498 707 c 0
 491 707 482 709 472 714 c 0
 462 719 451 724 439 730 c 0
 428 736 416 742 404 749 c 0
 393 755 383 760 375 764 c 0
 356 773 337 780 317 783 c 0
 298 787 279 788 260 788 c 0
 231 788 205 783 180 771 c 0
 156 759 133 744 114 724 c 0
 94 704 78 681 66 655 c 0
 53 629 45 601 41 571 c 1
 135 571 209 564 262 549 c 0
 348 526 393 477 395 401 c 1
 395 330 l 1
 380 369 358 399 329 420 c 0
 299 440 267 451 231 451 c 0
 193 451 165 439 146 417 c 0
 128 394 119 366 119 332 c 0
 119 304 127 279 144 254 c 0
 161 229 182 217 207 217 c 0
 234 217 256 228 272 251 c 0
 289 273 297 299 297 328 c 0
 297 350 294 367 287 381 c 1
 319 352 346 306 366 243 c 0
 385 179 395 98 395 0 c 1
 502 0 l 1
 502 403 l 1
258 332 m 0
 258 307 253 288 243 275 c 0
 232 262 221 256 207 256 c 0
 192 256 180 262 171 275 c 0
 162 288 158 307 158 332 c 0
 158 352 162 369 171 383 c 0
 180 397 192 403 207 403 c 0
 223 403 236 396 245 380 c 0
 254 364 258 348 258 332 c 0
EndSplineSet
EndChar
StartChar: uniF701
Encoding: 195 63233
OldEncoding: 63233
Width: 0
VWidth: 1000
Flags: HW
Fore
-328 934 m 1
 -333 950 -344 969 -359 990 c 0
 -375 1011 -395 1031 -419 1050 c 0
 -443 1068 -469 1084 -497 1097 c 0
 -525 1110 -554 1116 -584 1116 c 0
 -596 1116 -610 1115 -625 1113 c 0
 -640 1111 -653 1108 -666 1104 c 0
 -678 1100 -688 1094 -696 1085 c 0
 -705 1077 -709 1067 -709 1055 c 0
 -709 1040 -700 1030 -682 1027 c 0
 -664 1024 -646 1022 -629 1022 c 0
 -601 1022 -578 1021 -558 1018 c 0
 -538 1015 -517 1011 -494 1006 c 0
 -462 999 -433 989 -407 977 c 0
 -380 965 -354 950 -328 934 c 1
-276 864 m 1
 -302 882 -332 898 -366 911 c 0
 -399 925 -433 937 -469 946 c 0
 -491 953 -515 958 -542 963 c 0
 -568 967 -595 969 -623 969 c 0
 -634 969 -646 969 -662 969 c 0
 -677 969 -689 968 -700 967 c 0
 -744 967 -776 973 -795 987 c 0
 -801 993 -807 1000 -812 1010 c 0
 -817 1019 -819 1027 -819 1034 c 0
 -819 1057 -810 1080 -791 1103 c 0
 -771 1125 -753 1142 -735 1153 c 0
 -697 1176 -650 1188 -594 1188 c 0
 -558 1188 -522 1180 -484 1163 c 0
 -447 1147 -413 1124 -382 1096 c 0
 -351 1067 -326 1033 -306 993 c 0
 -286 954 -276 911 -276 864 c 1
EndSplineSet
EndChar
StartChar: uniF702
Encoding: 196 63234
OldEncoding: 63234
Width: 0
VWidth: 1000
Flags: HW
Fore
-307 1260 m 1
 -387 1260 l 1
 -387 1100 l 1
 -418 1127 -452 1149 -487 1164 c 0
 -523 1180 -558 1188 -594 1188 c 0
 -650 1188 -697 1176 -735 1153 c 0
 -753 1142 -771 1125 -791 1103 c 0
 -810 1080 -819 1057 -819 1034 c 0
 -819 1027 -817 1019 -812 1010 c 0
 -807 1000 -801 993 -795 987 c 0
 -776 973 -744 967 -700 967 c 0
 -689 968 -677 969 -662 969 c 0
 -646 969 -634 969 -623 969 c 0
 -595 969 -568 967 -542 963 c 0
 -515 958 -491 953 -469 946 c 0
 -433 937 -399 925 -366 911 c 0
 -332 898 -302 882 -276 864 c 1
 -276 911 -287 954 -307 995 c 1
 -307 1260 l 1
-328 934 m 1
 -354 950 -380 965 -407 977 c 0
 -433 989 -462 999 -494 1006 c 0
 -517 1011 -538 1015 -558 1018 c 0
 -578 1021 -601 1022 -629 1022 c 0
 -646 1022 -664 1024 -682 1027 c 0
 -700 1030 -709 1040 -709 1055 c 0
 -709 1067 -705 1077 -696 1085 c 0
 -688 1094 -678 1100 -666 1104 c 0
 -653 1108 -640 1111 -625 1113 c 0
 -610 1115 -596 1116 -584 1116 c 0
 -554 1116 -525 1110 -497 1097 c 0
 -469 1084 -443 1068 -419 1050 c 0
 -395 1031 -375 1011 -359 990 c 0
 -344 969 -333 950 -328 934 c 1
EndSplineSet
EndChar
StartChar: uniF703
Encoding: 197 63235
OldEncoding: 63235
Width: 0
VWidth: 1000
Flags: HW
Fore
-276 864 m 1
 -276 933 -297 993 -338 1047 c 1
 -319 1056 -304 1070 -293 1087 c 0
 -282 1105 -276 1125 -276 1147 c 0
 -276 1178 -287 1205 -309 1227 c 0
 -331 1249 -358 1260 -389 1260 c 0
 -416 1260 -440 1251 -461 1234 c 0
 -481 1217 -494 1195 -500 1169 c 1
 -531 1182 -563 1188 -594 1188 c 0
 -650 1188 -697 1176 -735 1153 c 0
 -753 1142 -771 1125 -791 1103 c 0
 -810 1080 -819 1057 -819 1034 c 0
 -819 1027 -817 1019 -812 1010 c 0
 -807 1000 -801 993 -795 987 c 0
 -776 973 -744 967 -700 967 c 0
 -689 968 -677 969 -662 969 c 0
 -646 969 -634 969 -623 969 c 0
 -595 969 -568 967 -542 963 c 0
 -515 958 -491 953 -469 946 c 0
 -433 937 -399 925 -366 911 c 0
 -332 898 -302 882 -276 864 c 1
-328 934 m 1
 -354 950 -380 965 -407 977 c 0
 -433 989 -462 999 -494 1006 c 0
 -517 1011 -538 1015 -558 1018 c 0
 -578 1021 -601 1022 -629 1022 c 0
 -646 1022 -664 1024 -682 1027 c 0
 -700 1030 -709 1040 -709 1055 c 0
 -709 1067 -705 1077 -696 1085 c 0
 -688 1094 -678 1100 -666 1104 c 0
 -653 1108 -640 1111 -625 1113 c 0
 -610 1115 -596 1116 -584 1116 c 0
 -554 1116 -525 1110 -497 1097 c 0
 -469 1084 -443 1068 -419 1050 c 0
 -395 1031 -375 1011 -359 990 c 0
 -344 969 -333 950 -328 934 c 1
-451 1147 m 0
 -451 1165 -445 1179 -433 1191 c 0
 -422 1203 -407 1208 -389 1208 c 0
 -371 1208 -357 1203 -345 1191 c 0
 -333 1179 -328 1165 -328 1147 c 0
 -328 1129 -333 1114 -345 1103 c 0
 -357 1091 -371 1085 -389 1085 c 0
 -407 1085 -422 1091 -433 1103 c 0
 -445 1114 -451 1129 -451 1147 c 0
EndSplineSet
EndChar
StartChar: uniF704
Encoding: 198 63236
OldEncoding: 63236
Width: 0
VWidth: 1000
Flags: HW
Fore
-307 1260 m 1
 -379 1260 l 1
 -379 1094 l 1
 -394 1107 -411 1120 -430 1133 c 1
 -430 1260 l 1
 -502 1260 l 1
 -502 1169 l 1
 -533 1182 -564 1188 -594 1188 c 0
 -650 1188 -697 1176 -735 1153 c 0
 -753 1142 -771 1125 -791 1103 c 0
 -810 1080 -819 1057 -819 1034 c 0
 -819 1027 -817 1019 -812 1010 c 0
 -807 1000 -801 993 -795 987 c 0
 -776 973 -744 967 -700 967 c 0
 -689 968 -677 969 -662 969 c 0
 -646 969 -634 969 -623 969 c 0
 -595 969 -568 967 -542 963 c 0
 -515 958 -491 953 -469 946 c 0
 -433 937 -399 925 -366 911 c 0
 -332 898 -302 882 -276 864 c 1
 -276 911 -287 954 -307 995 c 1
 -307 1260 l 1
-328 934 m 1
 -354 950 -380 965 -407 977 c 0
 -433 989 -462 999 -494 1006 c 0
 -517 1011 -538 1015 -558 1018 c 0
 -578 1021 -601 1022 -629 1022 c 0
 -646 1022 -664 1024 -682 1027 c 0
 -700 1030 -709 1040 -709 1055 c 0
 -709 1067 -705 1077 -696 1085 c 0
 -688 1094 -678 1100 -666 1104 c 0
 -653 1108 -640 1111 -625 1113 c 0
 -610 1115 -596 1116 -584 1116 c 0
 -554 1116 -525 1110 -497 1097 c 0
 -469 1084 -443 1068 -419 1050 c 0
 -395 1031 -375 1011 -359 990 c 0
 -344 969 -333 950 -328 934 c 1
EndSplineSet
EndChar
StartChar: uniF705
Encoding: 199 63237
OldEncoding: 63237
Width: 0
VWidth: 1000
Flags: HW
Fore
-334 1223 m 1
 -342 1100 l 1
 -365 930 l 1
 -367 918 -375 911 -387 911 c 0
 -399 911 -407 918 -410 930 c 1
 -430 1100 l 1
 -436 1223 l 1
 -334 1223 l 1
EndSplineSet
EndChar
StartChar: uniF706
Encoding: 200 63238
OldEncoding: 63238
Width: 0
VWidth: 1000
Flags: HW
Fore
-297 1235 m 1
 -297 1131 -333 1050 -406 991 c 0
 -437 967 -470 947 -504 933 c 0
 -538 919 -577 911 -621 911 c 2
 -731 911 l 1
 -731 948 l 1
 -685 952 -649 976 -623 1018 c 1
 -637 1016 l 2
 -694 1016 -723 1053 -723 1126 c 0
 -723 1154 -715 1179 -699 1201 c 0
 -684 1224 -663 1235 -637 1235 c 0
 -612 1235 -592 1224 -575 1202 c 0
 -559 1180 -551 1156 -551 1128 c 0
 -551 1051 -575 994 -625 958 c 1
 -545 958 -487 986 -451 1040 c 0
 -433 1065 -419 1093 -410 1125 c 0
 -400 1157 -395 1194 -395 1235 c 1
 -297 1235 l 1
-592 1126 m 0
 -592 1146 -596 1162 -603 1175 c 0
 -611 1187 -622 1194 -637 1194 c 0
 -668 1194 -684 1171 -684 1126 c 0
 -684 1079 -668 1055 -637 1055 c 0
 -607 1055 -592 1079 -592 1126 c 0
EndSplineSet
EndChar
StartChar: uniF707
Encoding: 201 63239
OldEncoding: 63239
Width: 0
VWidth: 1000
Flags: HW
Fore
-289 1192 m 1
 -289 1002 -378 907 -557 907 c 1
 -557 948 l 1
 -534 954 -513 968 -496 990 c 0
 -478 1013 -469 1037 -469 1063 c 0
 -469 1115 -488 1141 -526 1141 c 0
 -562 1141 -580 1111 -580 1053 c 1
 -618 1053 l 1
 -618 1111 -639 1141 -680 1141 c 0
 -694 1141 -707 1135 -719 1122 c 1
 -696 1122 -678 1112 -667 1093 c 0
 -655 1073 -649 1048 -649 1018 c 0
 -649 947 -678 911 -735 911 c 0
 -758 911 -779 923 -796 945 c 0
 -813 968 -821 992 -821 1018 c 0
 -821 1049 -815 1078 -803 1104 c 0
 -792 1124 -777 1143 -759 1160 c 0
 -740 1177 -714 1186 -680 1186 c 0
 -644 1186 -618 1167 -600 1128 c 1
 -596 1145 -587 1158 -573 1169 c 0
 -560 1180 -545 1186 -530 1186 c 0
 -455 1186 -418 1146 -418 1065 c 0
 -418 1014 -435 976 -469 950 c 1
 -406 975 -375 1030 -375 1116 c 2
 -375 1151 l 1
 -379 1192 l 1
 -289 1192 l 1
-686 1018 m 0
 -686 1040 -690 1057 -698 1070 c 0
 -707 1083 -719 1090 -735 1090 c 0
 -750 1090 -762 1082 -770 1067 c 0
 -778 1052 -782 1036 -782 1018 c 0
 -782 997 -778 980 -770 967 c 0
 -762 953 -750 946 -735 946 c 0
 -702 946 -686 970 -686 1018 c 0
EndSplineSet
EndChar
StartChar: uniF708
Encoding: 202 63240
OldEncoding: 63240
Width: 0
VWidth: 1000
Flags: HW
Fore
-545 1235 m 1
 -539 1106 l 1
 -659 1106 l 1
 -659 1040 l 1
 -537 1040 l 1
 -530 911 l 1
 -442 911 l 1
 -436 1040 l 1
 -313 1040 l 1
 -313 1106 l 1
 -434 1106 l 1
 -428 1235 l 1
 -545 1235 l 1
EndSplineSet
EndChar
StartChar: uniF709
Encoding: 203 63241
OldEncoding: 63241
Width: 0
VWidth: 1000
Flags: HW
Fore
-406 1038 m 1
 -406 1038 -406 1043 -408 1054 c 0
 -409 1064 -411 1074 -414 1083 c 0
 -425 1103 -439 1112 -457 1112 c 0
 -470 1112 -482 1106 -492 1094 c 0
 -501 1081 -506 1063 -506 1038 c 0
 -506 985 -489 958 -457 958 c 0
 -451 958 -445 961 -437 965 c 0
 -430 969 -423 974 -416 981 c 0
 -412 989 -409 999 -408 1010 c 0
 -406 1021 -406 1030 -406 1038 c 1
-430 1155 m 1
 -382 1143 -358 1103 -358 1036 c 0
 -358 1004 -368 975 -387 949 c 0
 -406 924 -431 911 -461 911 c 0
 -496 911 -526 924 -551 948 c 0
 -575 973 -588 1003 -588 1038 c 0
 -588 1086 -571 1125 -538 1156 c 0
 -504 1187 -454 1212 -387 1231 c 0
 -352 1242 -326 1254 -311 1268 c 0
 -296 1281 -292 1303 -299 1331 c 1
 -211 1352 l 1
 -210 1345 -209 1335 -209 1321 c 0
 -209 1299 -216 1280 -229 1264 c 0
 -243 1247 -269 1232 -307 1219 c 0
 -330 1210 -354 1200 -378 1189 c 0
 -402 1177 -419 1166 -430 1155 c 1
EndSplineSet
EndChar
StartChar: uniF70A
Encoding: 204 63242
OldEncoding: 63242
Width: 0
VWidth: 1000
Flags: HW
Fore
-170 1223 m 1
 -178 1100 l 1
 -201 930 l 1
 -203 918 -211 911 -223 911 c 0
 -236 911 -243 918 -246 930 c 1
 -266 1100 l 1
 -272 1223 l 1
 -170 1223 l 1
EndSplineSet
EndChar
StartChar: uniF70B
Encoding: 205 63243
OldEncoding: 63243
Width: 0
VWidth: 1000
Flags: HW
Fore
-76 1235 m 1
 -76 1131 -112 1050 -184 991 c 0
 -216 967 -248 947 -283 933 c 0
 -317 919 -356 911 -399 911 c 2
 -510 911 l 1
 -510 948 l 1
 -464 952 -427 976 -401 1018 c 1
 -416 1016 l 2
 -473 1016 -502 1053 -502 1126 c 0
 -502 1154 -494 1179 -478 1201 c 0
 -463 1224 -442 1235 -416 1235 c 0
 -391 1235 -371 1224 -354 1202 c 0
 -338 1180 -330 1156 -330 1128 c 0
 -330 1051 -354 994 -403 958 c 1
 -324 958 -266 986 -229 1040 c 0
 -212 1065 -198 1093 -188 1125 c 0
 -179 1157 -174 1194 -174 1235 c 1
 -76 1235 l 1
-371 1126 m 0
 -371 1146 -374 1162 -382 1175 c 0
 -389 1187 -401 1194 -416 1194 c 0
 -447 1194 -463 1171 -463 1126 c 0
 -463 1079 -447 1055 -416 1055 c 0
 -386 1055 -371 1079 -371 1126 c 0
EndSplineSet
EndChar
StartChar: uniF70C
Encoding: 206 63244
OldEncoding: 63244
Width: 0
VWidth: 1000
Flags: HW
Fore
-59 1192 m 1
 -59 1002 -149 907 -328 907 c 1
 -328 948 l 1
 -304 954 -284 968 -266 990 c 0
 -248 1013 -240 1037 -240 1063 c 0
 -240 1115 -259 1141 -297 1141 c 0
 -332 1141 -350 1111 -350 1053 c 1
 -389 1053 l 1
 -389 1111 -410 1141 -451 1141 c 0
 -464 1141 -477 1135 -489 1122 c 1
 -466 1122 -449 1112 -437 1093 c 0
 -426 1073 -420 1048 -420 1018 c 0
 -420 947 -449 911 -506 911 c 0
 -529 911 -549 923 -566 945 c 0
 -583 968 -592 992 -592 1018 c 0
 -592 1033 -591 1048 -588 1062 c 0
 -585 1076 -580 1090 -573 1104 c 0
 -563 1127 -548 1147 -529 1163 c 0
 -511 1180 -485 1188 -451 1188 c 0
 -416 1188 -390 1168 -371 1128 c 1
 -367 1145 -359 1158 -347 1169 c 0
 -336 1180 -320 1186 -301 1186 c 0
 -226 1186 -188 1146 -188 1065 c 0
 -188 1014 -205 976 -240 950 c 1
 -177 975 -145 1030 -145 1116 c 2
 -145 1151 l 1
 -150 1192 l 1
 -59 1192 l 1
-457 1018 m 0
 -457 1040 -461 1057 -469 1070 c 0
 -477 1083 -489 1090 -506 1090 c 0
 -521 1090 -532 1082 -541 1067 c 0
 -549 1052 -553 1036 -553 1018 c 0
 -553 997 -549 980 -541 967 c 0
 -532 953 -521 946 -506 946 c 0
 -473 946 -457 970 -457 1018 c 0
EndSplineSet
EndChar
StartChar: uniF70D
Encoding: 207 63245
OldEncoding: 63245
Width: 0
VWidth: 1000
Flags: HW
Fore
-336 1317 m 1
 -330 1188 l 1
 -451 1188 l 1
 -451 1122 l 1
 -328 1122 l 1
 -322 993 l 1
 -233 993 l 1
 -227 1122 l 1
 -104 1122 l 1
 -104 1188 l 1
 -225 1188 l 1
 -219 1317 l 1
 -336 1317 l 1
EndSplineSet
EndChar
StartChar: uniF70E
Encoding: 208 63246
OldEncoding: 63246
Width: 0
VWidth: 1000
Flags: HW
Fore
-350 1051 m 1
 -350 1051 -351 1056 -352 1068 c 0
 -354 1080 -356 1090 -360 1100 c 0
 -373 1122 -388 1133 -408 1133 c 0
 -423 1133 -436 1126 -446 1112 c 0
 -457 1098 -463 1078 -463 1051 c 0
 -463 993 -444 965 -408 965 c 0
 -401 965 -393 967 -385 971 c 0
 -377 975 -369 981 -362 989 c 0
 -357 997 -354 1008 -352 1020 c 0
 -351 1032 -350 1042 -350 1051 c 1
-377 1180 m 1
 -324 1167 -297 1124 -297 1049 c 0
 -297 1013 -308 981 -329 953 c 0
 -350 925 -378 911 -412 911 c 0
 -451 911 -484 925 -511 951 c 0
 -538 978 -551 1011 -551 1051 c 0
 -551 1156 -477 1227 -330 1266 c 0
 -290 1277 -262 1290 -246 1305 c 0
 -229 1320 -225 1343 -233 1374 c 1
 -135 1397 l 1
 -134 1391 -133 1386 -133 1380 c 0
 -133 1375 -133 1369 -133 1364 c 0
 -133 1341 -141 1320 -156 1300 c 0
 -171 1281 -200 1264 -244 1249 c 0
 -268 1241 -294 1231 -319 1218 c 0
 -345 1205 -365 1192 -377 1180 c 1
EndSplineSet
EndChar
StartChar: uniF70F
Encoding: 209 63247
OldEncoding: 63247
Width: 1116
VWidth: 1000
Flags: HW
Fore
973 113 m 2
 973 38 943 -0 883 0 c 2
 561 0 l 1
 561 526 l 2
 561 584 542 630 503 667 c 0
 464 703 416 721 358 721 c 0
 261 721 186 692 133 635 c 1
 203 635 260 605 305 545 c 1
 278 537 256 523 240 503 c 0
 223 483 215 457 215 424 c 2
 215 193 l 1
 223 203 232 212 243 217 c 0
 253 223 266 225 281 225 c 0
 304 225 324 215 341 195 c 0
 358 174 367 144 367 104 c 0
 367 27 324 -12 240 -12 c 0
 197 -12 165 0 142 25 c 0
 120 49 109 83 109 127 c 2
 109 397 l 2
 109 481 149 535 229 559 c 1
 194 586 138 600 61 600 c 1
 76 655 117 700 182 737 c 0
 238 771 298 788 360 788 c 0
 565 788 668 701 668 526 c 2
 668 39 l 1
 793 39 l 2
 813 39 830 45 845 57 c 0
 859 70 866 88 866 113 c 2
 866 774 l 1
 973 774 l 1
 973 113 l 2
334 104 m 0
 334 128 328 147 317 162 c 0
 307 177 294 184 281 184 c 0
 267 184 254 177 241 162 c 0
 228 147 221 127 221 102 c 0
 221 87 226 71 236 53 c 0
 245 35 260 27 281 27 c 0
 294 27 307 33 317 47 c 0
 328 61 334 80 334 104 c 0
EndSplineSet
EndChar
StartChar: uniF710
Encoding: 210 63248
OldEncoding: 63248
Width: 0
VWidth: 1000
Flags: HW
Fore
57 1167 m 1
 57 1075 31 998 -23 938 c 0
 -36 923 -53 910 -74 898 c 0
 -94 886 -116 877 -140 869 c 0
 -164 862 -189 856 -214 852 c 0
 -239 848 -263 846 -285 846 c 0
 -315 846 -348 850 -384 858 c 0
 -420 866 -449 878 -471 893 c 0
 -519 928 -543 976 -543 1034 c 0
 -543 1123 -500 1167 -416 1167 c 0
 -353 1167 -322 1128 -322 1051 c 0
 -322 1021 -330 993 -346 969 c 0
 -362 944 -385 932 -414 932 c 1
 -432 936 l 1
 -418 921 -396 910 -366 903 c 0
 -335 896 -306 893 -279 893 c 0
 -247 893 -212 901 -174 918 c 0
 -136 934 -108 958 -90 989 c 0
 -60 1040 -45 1099 -45 1167 c 1
 57 1167 l 1
-365 1051 m 0
 -365 1071 -369 1088 -377 1101 c 0
 -385 1114 -397 1120 -414 1120 c 0
 -446 1120 -463 1097 -463 1051 c 0
 -463 1001 -446 977 -414 977 c 0
 -401 977 -390 984 -379 999 c 0
 -375 1006 -372 1014 -370 1023 c 0
 -368 1032 -366 1041 -365 1051 c 0
EndSplineSet
EndChar
StartChar: uniF711
Encoding: 211 63249
OldEncoding: 63249
Width: 0
VWidth: 1000
Flags: HW
Fore
-532 1018 m 0
 -532 985 -521 957 -497 935 c 0
 -473 912 -445 901 -414 901 c 0
 -382 901 -355 912 -332 935 c 0
 -309 957 -297 985 -297 1018 c 0
 -297 1051 -309 1079 -332 1102 c 0
 -355 1125 -382 1137 -414 1137 c 0
 -445 1137 -473 1125 -497 1102 c 0
 -521 1079 -532 1051 -532 1018 c 0
-481 1018 m 0
 -481 1037 -475 1053 -462 1066 c 0
 -449 1079 -433 1085 -414 1085 c 0
 -395 1085 -379 1079 -367 1066 c 0
 -354 1053 -348 1037 -348 1018 c 0
 -348 999 -354 983 -367 971 c 0
 -379 958 -395 952 -414 952 c 0
 -433 952 -449 958 -462 971 c 0
 -475 983 -481 999 -481 1018 c 0
EndSplineSet
EndChar
StartChar: uniF712
Encoding: 212 63250
OldEncoding: 63250
Width: 0
VWidth: 1000
Flags: HW
Fore
-281 1249 m 1
 -281 1189 -309 1149 -365 1128 c 0
 -371 1127 -380 1125 -390 1123 c 0
 -400 1121 -411 1120 -422 1120 c 0
 -433 1120 -447 1121 -465 1121 c 0
 -483 1122 -501 1122 -520 1122 c 0
 -530 1122 -537 1122 -543 1122 c 0
 -550 1122 -556 1122 -563 1120 c 0
 -586 1116 -606 1107 -621 1094 c 0
 -636 1080 -643 1055 -643 1020 c 0
 -643 1004 -640 989 -635 975 c 0
 -629 961 -623 949 -616 938 c 1
 -616 954 -611 967 -600 975 c 0
 -596 978 -592 980 -588 982 c 0
 -584 984 -578 986 -571 987 c 2
 -567 987 l 2
 -556 987 -545 983 -534 976 c 0
 -522 968 -512 959 -504 948 c 0
 -497 939 -489 930 -479 923 c 0
 -470 915 -460 911 -451 911 c 0
 -448 911 -445 912 -441 912 c 0
 -438 913 -434 916 -430 922 c 1
 -445 922 -459 929 -471 943 c 0
 -483 957 -489 979 -489 1008 c 0
 -489 1038 -482 1060 -468 1075 c 0
 -454 1090 -434 1098 -410 1098 c 0
 -386 1098 -367 1090 -350 1074 c 0
 -334 1058 -326 1039 -326 1016 c 0
 -326 976 -336 942 -356 913 c 0
 -367 898 -379 887 -392 880 c 0
 -405 872 -422 868 -442 868 c 0
 -457 868 -470 871 -480 876 c 0
 -490 880 -500 886 -510 893 c 0
 -518 900 -527 911 -536 927 c 0
 -544 942 -554 950 -565 950 c 2
 -571 950 l 2
 -586 949 -594 935 -594 907 c 0
 -594 900 -593 894 -592 888 c 0
 -591 882 -589 876 -588 870 c 1
 -622 876 -651 893 -674 923 c 0
 -697 952 -709 986 -709 1024 c 0
 -709 1073 -694 1111 -664 1138 c 0
 -634 1164 -596 1178 -551 1178 c 2
 -539 1178 l 2
 -520 1176 -496 1175 -467 1172 c 0
 -438 1170 -419 1169 -410 1169 c 0
 -367 1169 -346 1193 -346 1241 c 1
 -281 1249 l 1
-383 1008 m 0
 -383 1043 -396 1061 -422 1061 c 0
 -434 1061 -443 1056 -450 1046 c 0
 -456 1035 -459 1023 -459 1008 c 0
 -459 997 -456 985 -451 972 c 0
 -445 959 -436 952 -422 952 c 0
 -396 952 -383 971 -383 1008 c 0
EndSplineSet
EndChar
StartChar: uniF713
Encoding: 213 63251
OldEncoding: 63251
Width: 0
VWidth: 1000
Flags: HW
Fore
-287 1608 m 1
 -295 1495 l 1
 -315 1341 l 1
 -318 1331 -325 1325 -336 1325 c 0
 -347 1325 -354 1331 -356 1341 c 1
 -375 1495 l 1
 -381 1608 l 1
 -287 1608 l 1
EndSplineSet
EndChar
StartChar: uniF714
Encoding: 214 63252
OldEncoding: 63252
Width: 0
VWidth: 1000
Flags: HW
Fore
-102 1604 m 1
 -102 1575 -107 1546 -117 1517 c 0
 -126 1487 -139 1460 -156 1436 c 0
 -172 1411 -191 1390 -214 1372 c 0
 -237 1354 -260 1341 -285 1333 c 0
 -330 1318 -371 1311 -408 1311 c 2
 -471 1311 l 1
 -471 1346 l 1
 -452 1348 -432 1354 -413 1363 c 0
 -393 1372 -378 1384 -367 1399 c 1
 -373 1399 l 2
 -395 1399 -413 1407 -427 1423 c 0
 -441 1440 -449 1464 -449 1495 c 0
 -449 1518 -442 1540 -428 1560 c 0
 -414 1579 -396 1589 -373 1589 c 0
 -351 1589 -333 1580 -318 1561 c 0
 -304 1541 -297 1520 -297 1497 c 0
 -297 1464 -304 1435 -319 1409 c 0
 -335 1383 -354 1364 -377 1352 c 1
 -313 1356 -265 1380 -233 1425 c 0
 -202 1470 -186 1530 -186 1604 c 1
 -102 1604 l 1
-332 1495 m 0
 -332 1511 -336 1526 -344 1538 c 0
 -352 1550 -362 1556 -373 1556 c 0
 -388 1556 -399 1551 -407 1540 c 0
 -414 1529 -418 1514 -418 1495 c 0
 -418 1453 -403 1432 -373 1432 c 0
 -362 1432 -352 1437 -344 1448 c 0
 -336 1459 -332 1475 -332 1495 c 0
EndSplineSet
EndChar
StartChar: uniF715
Encoding: 215 63253
OldEncoding: 63253
Width: 0
VWidth: 1000
Flags: HW
Fore
-82 1567 m 1
 -82 1395 -163 1309 -326 1309 c 1
 -326 1346 l 1
 -304 1350 -285 1362 -269 1383 c 0
 -254 1405 -246 1427 -246 1450 c 0
 -246 1496 -263 1520 -297 1520 c 0
 -330 1520 -346 1493 -346 1440 c 1
 -381 1440 l 1
 -381 1493 -399 1520 -436 1520 c 0
 -450 1520 -462 1514 -473 1503 c 1
 -453 1503 -437 1494 -426 1477 c 0
 -415 1459 -410 1436 -410 1409 c 0
 -410 1343 -436 1311 -487 1311 c 0
 -509 1311 -528 1321 -543 1342 c 0
 -558 1364 -565 1386 -565 1409 c 0
 -565 1439 -560 1465 -549 1487 c 0
 -538 1509 -524 1527 -508 1541 c 0
 -492 1555 -468 1563 -436 1563 c 0
 -405 1563 -381 1545 -365 1509 c 1
 -360 1524 -353 1537 -343 1546 c 0
 -333 1556 -319 1561 -301 1561 c 0
 -233 1561 -199 1524 -199 1452 c 0
 -199 1406 -214 1371 -246 1348 c 1
 -188 1371 -160 1421 -160 1497 c 2
 -160 1530 l 1
 -164 1567 l 1
 -82 1567 l 1
-442 1409 m 0
 -442 1428 -446 1444 -454 1456 c 0
 -461 1468 -472 1475 -487 1475 c 0
 -502 1475 -513 1467 -520 1453 c 0
 -527 1439 -530 1424 -530 1409 c 0
 -530 1390 -527 1374 -519 1362 c 0
 -512 1350 -501 1343 -487 1343 c 0
 -457 1343 -442 1365 -442 1409 c 0
EndSplineSet
EndChar
StartChar: uniF716
Encoding: 216 63254
OldEncoding: 63254
Width: 0
VWidth: 1000
Flags: HW
Fore
-399 1606 m 1
 -395 1489 l 1
 -506 1489 l 1
 -506 1430 l 1
 -393 1430 l 1
 -389 1311 l 1
 -307 1311 l 1
 -303 1430 l 1
 -190 1430 l 1
 -190 1489 l 1
 -301 1489 l 1
 -297 1606 l 1
 -399 1606 l 1
EndSplineSet
EndChar
StartChar: uniF717
Encoding: 217 63255
OldEncoding: 63255
Width: 0
VWidth: 1000
Flags: HW
Fore
-276 1423 m 1
 -276 1423 -277 1428 -279 1437 c 0
 -280 1446 -282 1454 -285 1462 c 0
 -293 1480 -305 1489 -322 1489 c 0
 -334 1489 -344 1483 -353 1473 c 0
 -362 1462 -367 1445 -367 1423 c 0
 -367 1376 -352 1352 -322 1352 c 0
 -308 1352 -296 1359 -287 1372 c 0
 -283 1379 -280 1387 -279 1397 c 0
 -277 1406 -276 1415 -276 1423 c 1
-297 1526 m 1
 -255 1515 -233 1480 -233 1421 c 0
 -233 1391 -242 1365 -259 1343 c 0
 -276 1322 -298 1311 -326 1311 c 0
 -357 1311 -384 1322 -406 1343 c 0
 -427 1365 -438 1392 -438 1423 c 0
 -438 1507 -379 1563 -260 1593 c 0
 -229 1603 -206 1614 -193 1626 c 0
 -179 1638 -175 1657 -182 1681 c 1
 -104 1700 l 1
 -103 1693 -102 1684 -102 1673 c 0
 -102 1654 -109 1637 -121 1622 c 0
 -133 1607 -156 1593 -190 1581 c 0
 -210 1574 -230 1566 -251 1556 c 0
 -272 1547 -287 1537 -297 1526 c 1
EndSplineSet
EndChar
StartChar: uniF718
Encoding: 218 63256
OldEncoding: 63256
Width: 0
VWidth: 1000
Flags: HW
Fore
-104 -745 m 1
 -209 -745 l 1
 -209 -625 l 1
 -223 -634 -238 -639 -254 -639 c 0
 -281 -639 -304 -625 -324 -598 c 0
 -337 -576 -344 -550 -344 -520 c 0
 -344 -438 -304 -397 -225 -397 c 0
 -193 -397 -164 -409 -140 -432 c 0
 -116 -455 -104 -483 -104 -516 c 2
 -104 -745 l 1
-205 -520 m 0
 -205 -498 -209 -481 -217 -467 c 0
 -225 -453 -238 -446 -254 -446 c 0
 -272 -446 -284 -455 -292 -472 c 0
 -299 -489 -303 -505 -303 -520 c 0
 -303 -568 -287 -592 -254 -592 c 0
 -221 -592 -205 -568 -205 -520 c 0
EndSplineSet
EndChar
StartChar: uniF719
Encoding: 219 63257
OldEncoding: 63257
Width: 0
VWidth: 1000
Flags: HW
Fore
-211 -520 m 2
 -211 -487 -223 -459 -247 -436 c 0
 -271 -413 -299 -401 -332 -401 c 0
 -411 -401 -451 -442 -451 -524 c 0
 -451 -554 -444 -580 -430 -602 c 0
 -411 -629 -388 -643 -360 -643 c 0
 -352 -643 -343 -641 -334 -637 c 0
 -324 -633 -317 -628 -311 -623 c 1
 -311 -635 l 2
 -311 -711 -272 -750 -193 -750 c 2
 -139 -750 l 2
 -57 -750 -16 -710 -16 -631 c 2
 -16 -410 l 1
 -121 -410 l 1
 -121 -651 l 2
 -121 -683 -136 -698 -166 -698 c 0
 -196 -698 -211 -683 -211 -651 c 2
 -211 -520 l 2
-311 -524 m 0
 -311 -572 -328 -596 -360 -596 c 0
 -393 -596 -410 -572 -410 -524 c 0
 -410 -509 -406 -493 -398 -476 c 0
 -391 -459 -378 -451 -360 -451 c 0
 -344 -451 -332 -457 -324 -471 c 0
 -315 -485 -311 -502 -311 -524 c 0
EndSplineSet
EndChar
StartChar: uniF71A
Encoding: 220 63258
OldEncoding: 63258
Width: 0
VWidth: 1000
Flags: HW
Fore
-74 -492 m 0
 -74 -517 -83 -539 -100 -556 c 0
 -118 -573 -139 -582 -164 -582 c 0
 -190 -582 -211 -573 -228 -556 c 0
 -245 -539 -254 -517 -254 -492 c 0
 -254 -467 -245 -446 -228 -428 c 0
 -211 -410 -190 -401 -164 -401 c 0
 -139 -401 -118 -410 -100 -428 c 0
 -83 -446 -74 -467 -74 -492 c 0
EndSplineSet
EndChar
